<svg width="462" height="214" viewBox="0 0 462 214" fill="none" xmlns="http://www.w3.org/2000/svg">
<path d="M294.582 82.2422H302.639V93.6191H294.582V109H280.471V93.6191H251.32L250.686 84.7324L280.324 37.9062H294.582V82.2422ZM264.748 82.2422H280.471V57.1445L279.543 58.7559L264.748 82.2422ZM365.051 79.6055C365.051 89.4362 363.016 96.9557 358.947 102.164C354.878 107.372 348.921 109.977 341.076 109.977C333.329 109.977 327.404 107.421 323.303 102.311C319.201 97.1999 317.102 89.8757 317.004 80.3379V67.252C317.004 57.3236 319.055 49.7878 323.156 44.6445C327.291 39.5013 333.231 36.9297 340.979 36.9297C348.726 36.9297 354.651 39.485 358.752 44.5957C362.854 49.6738 364.953 56.9818 365.051 66.5195V79.6055ZM350.94 65.25C350.94 59.3581 350.126 55.0775 348.498 52.4082C346.903 49.7064 344.397 48.3555 340.979 48.3555C337.658 48.3555 335.201 49.6413 333.606 52.2129C332.043 54.752 331.213 58.7396 331.115 64.1758V81.4609C331.115 87.2552 331.897 91.5684 333.459 94.4004C335.054 97.1999 337.593 98.5996 341.076 98.5996C344.527 98.5996 347.017 97.2487 348.547 94.5469C350.077 91.8451 350.875 87.7109 350.94 82.1445V65.25ZM423.313 82.2422H431.37V93.6191H423.313V109H409.202V93.6191H380.051L379.416 84.7324L409.055 37.9062H423.313V82.2422ZM393.479 82.2422H409.202V57.1445L408.274 58.7559L393.479 82.2422Z" fill="#FF5656"/>
<path d="M250.939 142.353H255.294V144H248.889V134.047H250.939V142.353ZM265.148 139.249C265.148 140.229 264.975 141.088 264.629 141.826C264.282 142.564 263.786 143.134 263.138 143.535C262.496 143.936 261.758 144.137 260.924 144.137C260.099 144.137 259.363 143.938 258.716 143.542C258.068 143.146 257.567 142.58 257.212 141.847C256.856 141.108 256.676 140.261 256.672 139.304V138.812C256.672 137.832 256.847 136.97 257.198 136.228C257.553 135.48 258.052 134.908 258.695 134.512C259.342 134.111 260.08 133.91 260.91 133.91C261.739 133.91 262.475 134.111 263.118 134.512C263.765 134.908 264.264 135.48 264.615 136.228C264.97 136.97 265.148 137.829 265.148 138.805V139.249ZM263.07 138.798C263.07 137.754 262.883 136.961 262.51 136.419C262.136 135.877 261.603 135.605 260.91 135.605C260.222 135.605 259.691 135.874 259.317 136.412C258.943 136.945 258.754 137.729 258.75 138.764V139.249C258.75 140.265 258.937 141.054 259.31 141.614C259.684 142.175 260.222 142.455 260.924 142.455C261.612 142.455 262.14 142.186 262.51 141.648C262.879 141.106 263.065 140.318 263.07 139.283V138.798ZM275.748 139.249C275.748 140.229 275.574 141.088 275.228 141.826C274.882 142.564 274.385 143.134 273.738 143.535C273.095 143.936 272.357 144.137 271.523 144.137C270.698 144.137 269.962 143.938 269.315 143.542C268.668 143.146 268.166 142.58 267.811 141.847C267.456 141.108 267.276 140.261 267.271 139.304V138.812C267.271 137.832 267.446 136.97 267.797 136.228C268.153 135.48 268.652 134.908 269.294 134.512C269.942 134.111 270.68 133.91 271.509 133.91C272.339 133.91 273.075 134.111 273.717 134.512C274.364 134.908 274.863 135.48 275.214 136.228C275.57 136.97 275.748 137.829 275.748 138.805V139.249ZM273.669 138.798C273.669 137.754 273.483 136.961 273.109 136.419C272.735 135.877 272.202 135.605 271.509 135.605C270.821 135.605 270.29 135.874 269.916 136.412C269.543 136.945 269.354 137.729 269.349 138.764V139.249C269.349 140.265 269.536 141.054 269.91 141.614C270.283 142.175 270.821 142.455 271.523 142.455C272.211 142.455 272.74 142.186 273.109 141.648C273.478 141.106 273.665 140.318 273.669 139.283V138.798ZM281.288 140.008L280.222 141.156V144H278.171V134.047H280.222V138.559L281.124 137.321L283.66 134.047H286.183L282.649 138.47L286.285 144H283.845L281.288 140.008ZM293.152 141.389C293.152 141.001 293.016 140.705 292.742 140.5C292.469 140.29 291.976 140.072 291.266 139.844C290.555 139.611 289.992 139.383 289.577 139.16C288.447 138.549 287.882 137.727 287.882 136.692C287.882 136.155 288.032 135.676 288.333 135.257C288.638 134.833 289.074 134.503 289.639 134.266C290.208 134.029 290.846 133.91 291.553 133.91C292.264 133.91 292.897 134.04 293.453 134.3C294.009 134.555 294.44 134.917 294.745 135.387C295.055 135.856 295.21 136.389 295.21 136.986H293.159C293.159 136.531 293.016 136.177 292.728 135.927C292.441 135.672 292.038 135.544 291.518 135.544C291.017 135.544 290.628 135.651 290.35 135.865C290.072 136.075 289.933 136.353 289.933 136.699C289.933 137.023 290.094 137.294 290.418 137.513C290.746 137.731 291.227 137.937 291.86 138.128C293.027 138.479 293.877 138.914 294.41 139.434C294.943 139.953 295.21 140.6 295.21 141.375C295.21 142.236 294.884 142.913 294.232 143.405C293.581 143.893 292.703 144.137 291.601 144.137C290.835 144.137 290.138 143.998 289.509 143.72C288.88 143.437 288.399 143.052 288.066 142.564C287.738 142.077 287.574 141.512 287.574 140.869H289.632C289.632 141.967 290.288 142.517 291.601 142.517C292.088 142.517 292.469 142.419 292.742 142.223C293.016 142.022 293.152 141.744 293.152 141.389ZM304.008 142.353H308.363V144H301.957V134.047H304.008V142.353ZM312.659 144H310.609V134.047H312.659V144ZM318.617 140.008L317.551 141.156V144H315.5V134.047H317.551V138.559L318.453 137.321L320.989 134.047H323.512L319.977 138.47L323.614 144H321.174L318.617 140.008ZM331.308 139.687H327.371V142.353H331.992V144H325.32V134.047H331.978V135.708H327.371V138.08H331.308V139.687ZM341.98 138.531L344.051 134.047H346.293L343.025 140.391V144H340.94V140.391L337.673 134.047H339.922L341.98 138.531ZM356.106 139.249C356.106 140.229 355.933 141.088 355.587 141.826C355.24 142.564 354.744 143.134 354.096 143.535C353.454 143.936 352.716 144.137 351.882 144.137C351.057 144.137 350.321 143.938 349.674 143.542C349.026 143.146 348.525 142.58 348.17 141.847C347.814 141.108 347.634 140.261 347.63 139.304V138.812C347.63 137.832 347.805 136.97 348.156 136.228C348.512 135.48 349.011 134.908 349.653 134.512C350.3 134.111 351.039 133.91 351.868 133.91C352.697 133.91 353.433 134.111 354.076 134.512C354.723 134.908 355.222 135.48 355.573 136.228C355.929 136.97 356.106 137.829 356.106 138.805V139.249ZM354.028 138.798C354.028 137.754 353.841 136.961 353.468 136.419C353.094 135.877 352.561 135.605 351.868 135.605C351.18 135.605 350.649 135.874 350.275 136.412C349.901 136.945 349.712 137.729 349.708 138.764V139.249C349.708 140.265 349.895 141.054 350.268 141.614C350.642 142.175 351.18 142.455 351.882 142.455C352.57 142.455 353.098 142.186 353.468 141.648C353.837 141.106 354.024 140.318 354.028 139.283V138.798ZM366.063 134.047V140.603C366.063 141.692 365.721 142.553 365.038 143.187C364.359 143.82 363.429 144.137 362.249 144.137C361.086 144.137 360.164 143.829 359.48 143.214C358.796 142.599 358.448 141.753 358.434 140.678V134.047H360.485V140.616C360.485 141.268 360.64 141.744 360.95 142.045C361.264 142.341 361.697 142.489 362.249 142.489C363.402 142.489 363.987 141.883 364.005 140.671V134.047H366.063ZM369.115 137.103L368.186 136.562C368.578 135.947 368.781 135.312 368.794 134.655V133.5H370.366V134.56C370.366 134.97 370.253 135.414 370.025 135.893C369.797 136.371 369.494 136.774 369.115 137.103ZM376.509 140.356H374.875V144H372.824V134.047H376.522C377.698 134.047 378.605 134.309 379.243 134.833C379.881 135.357 380.2 136.098 380.2 137.055C380.2 137.734 380.052 138.301 379.756 138.757C379.464 139.208 379.02 139.568 378.423 139.837L380.576 143.904V144H378.375L376.509 140.356ZM374.875 138.695H376.529C377.044 138.695 377.443 138.565 377.726 138.306C378.008 138.041 378.149 137.679 378.149 137.219C378.149 136.749 378.015 136.38 377.746 136.111C377.482 135.842 377.074 135.708 376.522 135.708H374.875V138.695ZM388.687 139.687H384.75V142.353H389.371V144H382.699V134.047H389.357V135.708H384.75V138.08H388.687V139.687ZM397.978 142.353H402.332V144H395.927V134.047H397.978V142.353ZM412.186 139.249C412.186 140.229 412.013 141.088 411.667 141.826C411.321 142.564 410.824 143.134 410.177 143.535C409.534 143.936 408.796 144.137 407.962 144.137C407.137 144.137 406.401 143.938 405.754 143.542C405.107 143.146 404.605 142.58 404.25 141.847C403.894 141.108 403.714 140.261 403.71 139.304V138.812C403.71 137.832 403.885 136.97 404.236 136.228C404.592 135.48 405.091 134.908 405.733 134.512C406.38 134.111 407.119 133.91 407.948 133.91C408.778 133.91 409.514 134.111 410.156 134.512C410.803 134.908 411.302 135.48 411.653 136.228C412.009 136.97 412.186 137.829 412.186 138.805V139.249ZM410.108 138.798C410.108 137.754 409.921 136.961 409.548 136.419C409.174 135.877 408.641 135.605 407.948 135.605C407.26 135.605 406.729 135.874 406.355 136.412C405.982 136.945 405.793 137.729 405.788 138.764V139.249C405.788 140.265 405.975 141.054 406.349 141.614C406.722 142.175 407.26 142.455 407.962 142.455C408.65 142.455 409.179 142.186 409.548 141.648C409.917 141.106 410.104 140.318 410.108 139.283V138.798ZM419.771 141.389C419.771 141.001 419.634 140.705 419.361 140.5C419.088 140.29 418.595 140.072 417.884 139.844C417.174 139.611 416.611 139.383 416.196 139.16C415.066 138.549 414.501 137.727 414.501 136.692C414.501 136.155 414.651 135.676 414.952 135.257C415.257 134.833 415.692 134.503 416.257 134.266C416.827 134.029 417.465 133.91 418.172 133.91C418.882 133.91 419.516 134.04 420.072 134.3C420.628 134.555 421.059 134.917 421.364 135.387C421.674 135.856 421.829 136.389 421.829 136.986H419.778C419.778 136.531 419.634 136.177 419.347 135.927C419.06 135.672 418.657 135.544 418.137 135.544C417.636 135.544 417.246 135.651 416.968 135.865C416.69 136.075 416.551 136.353 416.551 136.699C416.551 137.023 416.713 137.294 417.037 137.513C417.365 137.731 417.846 137.937 418.479 138.128C419.646 138.479 420.496 138.914 421.029 139.434C421.562 139.953 421.829 140.6 421.829 141.375C421.829 142.236 421.503 142.913 420.851 143.405C420.2 143.893 419.322 144.137 418.219 144.137C417.454 144.137 416.757 143.998 416.128 143.72C415.499 143.437 415.018 143.052 414.685 142.564C414.357 142.077 414.193 141.512 414.193 140.869H416.251C416.251 141.967 416.907 142.517 418.219 142.517C418.707 142.517 419.088 142.419 419.361 142.223C419.634 142.022 419.771 141.744 419.771 141.389ZM431.649 135.708H428.6V144H426.549V135.708H423.541V134.047H431.649V135.708Z" fill="#212121"/>
<path d="M254.311 158.028H251.797V165H250.771V158.028H248.263V157.18H254.311V158.028ZM256.309 159.892C256.75 159.351 257.322 159.081 258.028 159.081C259.256 159.081 259.875 159.774 259.886 161.16V165H258.893V161.154C258.889 160.735 258.792 160.426 258.603 160.225C258.416 160.025 258.125 159.924 257.727 159.924C257.405 159.924 257.122 160.01 256.878 160.182C256.635 160.354 256.445 160.58 256.309 160.859V165H255.315V156.75H256.309V159.892ZM263.786 165.107C262.998 165.107 262.357 164.85 261.863 164.334C261.369 163.815 261.122 163.122 261.122 162.255V162.073C261.122 161.496 261.231 160.982 261.449 160.531C261.671 160.076 261.979 159.722 262.373 159.468C262.771 159.21 263.2 159.081 263.662 159.081C264.418 159.081 265.005 159.33 265.424 159.828C265.843 160.325 266.052 161.038 266.052 161.965V162.379H262.115C262.13 162.952 262.296 163.416 262.615 163.77C262.937 164.121 263.345 164.296 263.839 164.296C264.19 164.296 264.487 164.225 264.731 164.082C264.974 163.938 265.188 163.749 265.37 163.512L265.977 163.985C265.49 164.733 264.76 165.107 263.786 165.107ZM263.662 159.897C263.261 159.897 262.924 160.044 262.652 160.338C262.38 160.628 262.212 161.036 262.147 161.562H265.059V161.487C265.03 160.982 264.894 160.592 264.65 160.316C264.407 160.037 264.077 159.897 263.662 159.897ZM274.845 162.159C274.845 163.043 274.642 163.756 274.238 164.296C273.833 164.837 273.285 165.107 272.594 165.107C271.889 165.107 271.334 164.884 270.929 164.436V167.234H269.936V159.188H270.843L270.892 159.833C271.296 159.332 271.858 159.081 272.578 159.081C273.276 159.081 273.828 159.344 274.232 159.871C274.641 160.397 274.845 161.129 274.845 162.067V162.159ZM273.851 162.046C273.851 161.391 273.711 160.873 273.432 160.494C273.153 160.114 272.77 159.924 272.283 159.924C271.681 159.924 271.23 160.191 270.929 160.725V163.501C271.226 164.031 271.681 164.296 272.293 164.296C272.77 164.296 273.147 164.108 273.427 163.732C273.71 163.353 273.851 162.791 273.851 162.046ZM279.7 165C279.643 164.885 279.596 164.681 279.561 164.388C279.099 164.868 278.547 165.107 277.906 165.107C277.333 165.107 276.862 164.946 276.494 164.624C276.128 164.298 275.946 163.886 275.946 163.389C275.946 162.784 276.175 162.314 276.633 161.981C277.095 161.645 277.743 161.477 278.578 161.477H279.544V161.02C279.544 160.673 279.441 160.397 279.233 160.193C279.025 159.985 278.719 159.881 278.314 159.881C277.96 159.881 277.663 159.971 277.423 160.15C277.183 160.329 277.063 160.546 277.063 160.8H276.064C276.064 160.51 276.166 160.23 276.37 159.962C276.578 159.69 276.857 159.475 277.208 159.317C277.562 159.16 277.951 159.081 278.374 159.081C279.043 159.081 279.568 159.249 279.947 159.586C280.327 159.919 280.524 160.379 280.538 160.966V163.641C280.538 164.175 280.606 164.599 280.742 164.914V165H279.7ZM278.051 164.243C278.363 164.243 278.658 164.162 278.938 164.001C279.217 163.84 279.419 163.63 279.544 163.373V162.18H278.766C277.548 162.18 276.939 162.536 276.939 163.249C276.939 163.561 277.043 163.804 277.251 163.979C277.459 164.155 277.725 164.243 278.051 164.243ZM281.859 162.046C281.859 161.14 282.069 160.42 282.488 159.887C282.907 159.35 283.462 159.081 284.153 159.081C284.862 159.081 285.415 159.332 285.812 159.833L285.861 159.188H286.769V164.86C286.769 165.612 286.545 166.205 286.097 166.638C285.653 167.071 285.055 167.288 284.303 167.288C283.884 167.288 283.474 167.199 283.073 167.02C282.672 166.84 282.366 166.595 282.155 166.284L282.67 165.688C283.097 166.214 283.618 166.477 284.233 166.477C284.717 166.477 285.093 166.341 285.361 166.069C285.633 165.797 285.77 165.414 285.77 164.919V164.42C285.372 164.878 284.83 165.107 284.142 165.107C283.462 165.107 282.91 164.833 282.488 164.286C282.069 163.738 281.859 162.991 281.859 162.046ZM282.858 162.159C282.858 162.814 282.993 163.33 283.261 163.706C283.53 164.078 283.906 164.264 284.389 164.264C285.016 164.264 285.476 163.979 285.77 163.41V160.757C285.465 160.202 285.009 159.924 284.4 159.924C283.917 159.924 283.539 160.112 283.267 160.488C282.994 160.864 282.858 161.421 282.858 162.159ZM290.684 165.107C289.896 165.107 289.255 164.85 288.761 164.334C288.267 163.815 288.02 163.122 288.02 162.255V162.073C288.02 161.496 288.129 160.982 288.348 160.531C288.57 160.076 288.878 159.722 289.271 159.468C289.669 159.21 290.099 159.081 290.561 159.081C291.316 159.081 291.903 159.33 292.322 159.828C292.741 160.325 292.951 161.038 292.951 161.965V162.379H289.014C289.028 162.952 289.194 163.416 289.513 163.77C289.835 164.121 290.244 164.296 290.738 164.296C291.089 164.296 291.386 164.225 291.629 164.082C291.873 163.938 292.086 163.749 292.269 163.512L292.875 163.985C292.389 164.733 291.658 165.107 290.684 165.107ZM290.561 159.897C290.16 159.897 289.823 160.044 289.551 160.338C289.279 160.628 289.11 161.036 289.046 161.562H291.957V161.487C291.928 160.982 291.792 160.592 291.549 160.316C291.305 160.037 290.976 159.897 290.561 159.897ZM298.735 163.544L300.089 159.188H301.152L298.816 165.897C298.454 166.864 297.88 167.347 297.092 167.347L296.904 167.331L296.533 167.261V166.456L296.802 166.477C297.138 166.477 297.4 166.409 297.586 166.273C297.776 166.137 297.931 165.888 298.053 165.526L298.273 164.936L296.2 159.188H297.285L298.735 163.544ZM301.695 162.041C301.695 161.471 301.806 160.959 302.028 160.504C302.253 160.05 302.565 159.699 302.962 159.452C303.363 159.205 303.82 159.081 304.332 159.081C305.123 159.081 305.763 159.355 306.25 159.903C306.74 160.451 306.985 161.179 306.985 162.089V162.159C306.985 162.724 306.876 163.233 306.658 163.684C306.443 164.132 306.133 164.481 305.729 164.731C305.327 164.982 304.866 165.107 304.343 165.107C303.555 165.107 302.916 164.833 302.425 164.286C301.938 163.738 301.695 163.013 301.695 162.11V162.041ZM302.694 162.159C302.694 162.803 302.842 163.321 303.14 163.711C303.44 164.101 303.841 164.296 304.343 164.296C304.848 164.296 305.249 164.099 305.546 163.706C305.843 163.308 305.992 162.753 305.992 162.041C305.992 161.403 305.84 160.888 305.535 160.494C305.234 160.096 304.833 159.897 304.332 159.897C303.841 159.897 303.446 160.093 303.145 160.483C302.844 160.873 302.694 161.432 302.694 162.159ZM311.819 164.425C311.433 164.88 310.865 165.107 310.117 165.107C309.497 165.107 309.025 164.928 308.699 164.57C308.376 164.209 308.214 163.675 308.21 162.97V159.188H309.204V162.943C309.204 163.824 309.562 164.264 310.278 164.264C311.037 164.264 311.542 163.981 311.792 163.416V159.188H312.786V165H311.841L311.819 164.425ZM320.617 165C320.56 164.885 320.513 164.681 320.478 164.388C320.016 164.868 319.464 165.107 318.823 165.107C318.25 165.107 317.779 164.946 317.411 164.624C317.045 164.298 316.863 163.886 316.863 163.389C316.863 162.784 317.092 162.314 317.55 161.981C318.012 161.645 318.66 161.477 319.495 161.477H320.461V161.02C320.461 160.673 320.358 160.397 320.15 160.193C319.942 159.985 319.636 159.881 319.231 159.881C318.877 159.881 318.58 159.971 318.34 160.15C318.1 160.329 317.98 160.546 317.98 160.8H316.981C316.981 160.51 317.083 160.23 317.287 159.962C317.495 159.69 317.774 159.475 318.125 159.317C318.479 159.16 318.868 159.081 319.291 159.081C319.96 159.081 320.485 159.249 320.864 159.586C321.244 159.919 321.441 160.379 321.455 160.966V163.641C321.455 164.175 321.523 164.599 321.659 164.914V165H320.617ZM318.968 164.243C319.28 164.243 319.575 164.162 319.854 164.001C320.134 163.84 320.336 163.63 320.461 163.373V162.18H319.683C318.465 162.18 317.856 162.536 317.856 163.249C317.856 163.561 317.96 163.804 318.168 163.979C318.376 164.155 318.642 164.243 318.968 164.243ZM325.822 160.08C325.671 160.055 325.508 160.042 325.333 160.042C324.681 160.042 324.239 160.32 324.006 160.875V165H323.013V159.188H323.979L323.996 159.86C324.321 159.341 324.783 159.081 325.381 159.081C325.575 159.081 325.722 159.106 325.822 159.156V160.08ZM329.044 165.107C328.257 165.107 327.616 164.85 327.122 164.334C326.627 163.815 326.38 163.122 326.38 162.255V162.073C326.38 161.496 326.49 160.982 326.708 160.531C326.93 160.076 327.238 159.722 327.632 159.468C328.029 159.21 328.459 159.081 328.921 159.081C329.676 159.081 330.264 159.33 330.683 159.828C331.102 160.325 331.311 161.038 331.311 161.965V162.379H327.374C327.388 162.952 327.555 163.416 327.874 163.77C328.196 164.121 328.604 164.296 329.098 164.296C329.449 164.296 329.746 164.225 329.99 164.082C330.233 163.938 330.446 163.749 330.629 163.512L331.236 163.985C330.749 164.733 330.018 165.107 329.044 165.107ZM328.921 159.897C328.52 159.897 328.183 160.044 327.911 160.338C327.639 160.628 327.471 161.036 327.406 161.562H330.317V161.487C330.289 160.982 330.153 160.592 329.909 160.316C329.666 160.037 329.336 159.897 328.921 159.897ZM336.274 165H335.28V156.75H336.274V165ZM337.606 162.041C337.606 161.471 337.717 160.959 337.939 160.504C338.165 160.05 338.476 159.699 338.874 159.452C339.275 159.205 339.731 159.081 340.243 159.081C341.035 159.081 341.674 159.355 342.161 159.903C342.651 160.451 342.896 161.179 342.896 162.089V162.159C342.896 162.724 342.787 163.233 342.569 163.684C342.354 164.132 342.044 164.481 341.64 164.731C341.239 164.982 340.777 165.107 340.254 165.107C339.466 165.107 338.827 164.833 338.336 164.286C337.849 163.738 337.606 163.013 337.606 162.11V162.041ZM338.605 162.159C338.605 162.803 338.754 163.321 339.051 163.711C339.352 164.101 339.753 164.296 340.254 164.296C340.759 164.296 341.16 164.099 341.457 163.706C341.754 163.308 341.903 162.753 341.903 162.041C341.903 161.403 341.751 160.888 341.446 160.494C341.146 160.096 340.744 159.897 340.243 159.897C339.753 159.897 339.357 160.093 339.056 160.483C338.755 160.873 338.605 161.432 338.605 162.159ZM343.879 162.041C343.879 161.471 343.99 160.959 344.212 160.504C344.438 160.05 344.75 159.699 345.147 159.452C345.548 159.205 346.005 159.081 346.517 159.081C347.308 159.081 347.947 159.355 348.434 159.903C348.925 160.451 349.17 161.179 349.17 162.089V162.159C349.17 162.724 349.061 163.233 348.842 163.684C348.627 164.132 348.318 164.481 347.913 164.731C347.512 164.982 347.05 165.107 346.527 165.107C345.74 165.107 345.1 164.833 344.61 164.286C344.123 163.738 343.879 163.013 343.879 162.11V162.041ZM344.878 162.159C344.878 162.803 345.027 163.321 345.324 163.711C345.625 164.101 346.026 164.296 346.527 164.296C347.032 164.296 347.433 164.099 347.73 163.706C348.028 163.308 348.176 162.753 348.176 162.041C348.176 161.403 348.024 160.888 347.72 160.494C347.419 160.096 347.018 159.897 346.517 159.897C346.026 159.897 345.63 160.093 345.33 160.483C345.029 160.873 344.878 161.432 344.878 162.159ZM352.038 162.309L351.415 162.959V165H350.421V156.75H351.415V161.74L351.947 161.101L353.757 159.188H354.965L352.704 161.616L355.229 165H354.063L352.038 162.309ZM357.071 165H356.077V159.188H357.071V165ZM355.997 157.647C355.997 157.486 356.045 157.35 356.142 157.239C356.242 157.128 356.389 157.072 356.582 157.072C356.775 157.072 356.922 157.128 357.022 157.239C357.123 157.35 357.173 157.486 357.173 157.647C357.173 157.808 357.123 157.942 357.022 158.05C356.922 158.157 356.775 158.211 356.582 158.211C356.389 158.211 356.242 158.157 356.142 158.05C356.045 157.942 355.997 157.808 355.997 157.647ZM359.606 159.188L359.638 159.919C360.082 159.36 360.662 159.081 361.378 159.081C362.607 159.081 363.226 159.774 363.237 161.16V165H362.243V161.154C362.24 160.735 362.143 160.426 361.953 160.225C361.767 160.025 361.475 159.924 361.078 159.924C360.755 159.924 360.472 160.01 360.229 160.182C359.986 160.354 359.796 160.58 359.66 160.859V165H358.666V159.188H359.606ZM364.499 162.046C364.499 161.14 364.708 160.42 365.127 159.887C365.546 159.35 366.101 159.081 366.792 159.081C367.501 159.081 368.055 159.332 368.452 159.833L368.5 159.188H369.408V164.86C369.408 165.612 369.184 166.205 368.737 166.638C368.293 167.071 367.695 167.288 366.943 167.288C366.524 167.288 366.114 167.199 365.713 167.02C365.312 166.84 365.006 166.595 364.794 166.284L365.31 165.688C365.736 166.214 366.257 166.477 366.873 166.477C367.356 166.477 367.732 166.341 368.001 166.069C368.273 165.797 368.409 165.414 368.409 164.919V164.42C368.012 164.878 367.469 165.107 366.782 165.107C366.101 165.107 365.55 164.833 365.127 164.286C364.708 163.738 364.499 162.991 364.499 162.046ZM365.498 162.159C365.498 162.814 365.632 163.33 365.901 163.706C366.169 164.078 366.545 164.264 367.029 164.264C367.655 164.264 368.116 163.979 368.409 163.41V160.757C368.105 160.202 367.648 159.924 367.04 159.924C366.556 159.924 366.178 160.112 365.906 160.488C365.634 160.864 365.498 161.421 365.498 162.159ZM374.129 165V159.957H373.211V159.188H374.129V158.592C374.129 157.969 374.296 157.488 374.629 157.147C374.962 156.807 375.433 156.637 376.042 156.637C376.271 156.637 376.498 156.668 376.724 156.729L376.67 157.534C376.502 157.502 376.323 157.486 376.133 157.486C375.811 157.486 375.562 157.581 375.386 157.771C375.211 157.957 375.123 158.225 375.123 158.576V159.188H376.364V159.957H375.123V165H374.129ZM377.202 162.041C377.202 161.471 377.313 160.959 377.535 160.504C377.76 160.05 378.072 159.699 378.469 159.452C378.87 159.205 379.327 159.081 379.839 159.081C380.63 159.081 381.269 159.355 381.756 159.903C382.247 160.451 382.492 161.179 382.492 162.089V162.159C382.492 162.724 382.383 163.233 382.165 163.684C381.95 164.132 381.64 164.481 381.235 164.731C380.834 164.982 380.372 165.107 379.85 165.107C379.062 165.107 378.423 164.833 377.932 164.286C377.445 163.738 377.202 163.013 377.202 162.11V162.041ZM378.201 162.159C378.201 162.803 378.349 163.321 378.646 163.711C378.947 164.101 379.348 164.296 379.85 164.296C380.354 164.296 380.756 164.099 381.053 163.706C381.35 163.308 381.499 162.753 381.499 162.041C381.499 161.403 381.346 160.888 381.042 160.494C380.741 160.096 380.34 159.897 379.839 159.897C379.348 159.897 378.953 160.093 378.652 160.483C378.351 160.873 378.201 161.432 378.201 162.159ZM386.547 160.08C386.397 160.055 386.234 160.042 386.059 160.042C385.407 160.042 384.965 160.32 384.732 160.875V165H383.738V159.188H384.705L384.721 159.86C385.047 159.341 385.509 159.081 386.107 159.081C386.3 159.081 386.447 159.106 386.547 159.156V160.08ZM391.134 159.188L391.167 159.919C391.611 159.36 392.191 159.081 392.907 159.081C394.135 159.081 394.754 159.774 394.765 161.16V165H393.771V161.154C393.768 160.735 393.671 160.426 393.481 160.225C393.295 160.025 393.003 159.924 392.606 159.924C392.284 159.924 392.001 160.01 391.757 160.182C391.514 160.354 391.324 160.58 391.188 160.859V165H390.194V159.188H391.134ZM396 162.041C396 161.471 396.111 160.959 396.333 160.504C396.559 160.05 396.871 159.699 397.268 159.452C397.669 159.205 398.126 159.081 398.638 159.081C399.429 159.081 400.068 159.355 400.555 159.903C401.046 160.451 401.291 161.179 401.291 162.089V162.159C401.291 162.724 401.182 163.233 400.963 163.684C400.749 164.132 400.439 164.481 400.034 164.731C399.633 164.982 399.171 165.107 398.648 165.107C397.861 165.107 397.222 164.833 396.731 164.286C396.244 163.738 396 163.013 396 162.11V162.041ZM397 162.159C397 162.803 397.148 163.321 397.445 163.711C397.746 164.101 398.147 164.296 398.648 164.296C399.153 164.296 399.554 164.099 399.852 163.706C400.149 163.308 400.297 162.753 400.297 162.041C400.297 161.403 400.145 160.888 399.841 160.494C399.54 160.096 399.139 159.897 398.638 159.897C398.147 159.897 397.751 160.093 397.451 160.483C397.15 160.873 397 161.432 397 162.159ZM403.885 157.781V159.188H404.97V159.957H403.885V163.561C403.885 163.793 403.934 163.969 404.03 164.087C404.127 164.201 404.292 164.259 404.524 164.259C404.639 164.259 404.797 164.237 404.997 164.194V165C404.736 165.072 404.481 165.107 404.234 165.107C403.79 165.107 403.456 164.973 403.23 164.705C403.004 164.436 402.892 164.055 402.892 163.561V159.957H401.833V159.188H402.892V157.781H403.885ZM412.452 165C412.395 164.885 412.348 164.681 412.312 164.388C411.851 164.868 411.299 165.107 410.658 165.107C410.085 165.107 409.614 164.946 409.246 164.624C408.88 164.298 408.698 163.886 408.698 163.389C408.698 162.784 408.927 162.314 409.385 161.981C409.847 161.645 410.495 161.477 411.33 161.477H412.296V161.02C412.296 160.673 412.193 160.397 411.985 160.193C411.777 159.985 411.471 159.881 411.066 159.881C410.712 159.881 410.415 159.971 410.175 160.15C409.935 160.329 409.815 160.546 409.815 160.8H408.816C408.816 160.51 408.918 160.23 409.122 159.962C409.33 159.69 409.609 159.475 409.96 159.317C410.314 159.16 410.703 159.081 411.125 159.081C411.795 159.081 412.32 159.249 412.699 159.586C413.079 159.919 413.276 160.379 413.29 160.966V163.641C413.29 164.175 413.358 164.599 413.494 164.914V165H412.452ZM410.803 164.243C411.115 164.243 411.41 164.162 411.689 164.001C411.969 163.84 412.171 163.63 412.296 163.373V162.18H411.518C410.3 162.18 409.691 162.536 409.691 163.249C409.691 163.561 409.795 163.804 410.003 163.979C410.211 164.155 410.477 164.243 410.803 164.243ZM416.679 163.652L418.119 159.188H419.134L417.05 165H416.292L414.187 159.188H415.202L416.679 163.652ZM423.592 165C423.535 164.885 423.488 164.681 423.452 164.388C422.99 164.868 422.439 165.107 421.798 165.107C421.225 165.107 420.754 164.946 420.385 164.624C420.02 164.298 419.837 163.886 419.837 163.389C419.837 162.784 420.067 162.314 420.525 161.981C420.987 161.645 421.635 161.477 422.469 161.477H423.436V161.02C423.436 160.673 423.332 160.397 423.125 160.193C422.917 159.985 422.611 159.881 422.206 159.881C421.852 159.881 421.554 159.971 421.314 160.15C421.075 160.329 420.955 160.546 420.955 160.8H419.956C419.956 160.51 420.058 160.23 420.262 159.962C420.469 159.69 420.749 159.475 421.1 159.317C421.454 159.16 421.843 159.081 422.265 159.081C422.935 159.081 423.459 159.249 423.839 159.586C424.218 159.919 424.415 160.379 424.43 160.966V163.641C424.43 164.175 424.498 164.599 424.634 164.914V165H423.592ZM421.943 164.243C422.254 164.243 422.55 164.162 422.829 164.001C423.108 163.84 423.311 163.63 423.436 163.373V162.18H422.657C421.44 162.18 420.831 162.536 420.831 163.249C420.831 163.561 420.935 163.804 421.143 163.979C421.35 164.155 421.617 164.243 421.943 164.243ZM427.067 165H426.073V159.188H427.067V165ZM425.993 157.647C425.993 157.486 426.041 157.35 426.138 157.239C426.238 157.128 426.385 157.072 426.578 157.072C426.771 157.072 426.918 157.128 427.019 157.239C427.119 157.35 427.169 157.486 427.169 157.647C427.169 157.808 427.119 157.942 427.019 158.05C426.918 158.157 426.771 158.211 426.578 158.211C426.385 158.211 426.238 158.157 426.138 158.05C426.041 157.942 425.993 157.808 425.993 157.647ZM429.742 165H428.748V156.75H429.742V165ZM436.257 162.159C436.257 163.047 436.053 163.761 435.645 164.302C435.236 164.839 434.688 165.107 434.001 165.107C433.267 165.107 432.699 164.848 432.298 164.329L432.25 165H431.337V156.75H432.331V159.828C432.732 159.33 433.285 159.081 433.99 159.081C434.696 159.081 435.249 159.348 435.65 159.881C436.055 160.415 436.257 161.145 436.257 162.073V162.159ZM435.263 162.046C435.263 161.369 435.132 160.846 434.871 160.478C434.61 160.109 434.234 159.924 433.743 159.924C433.088 159.924 432.617 160.229 432.331 160.837V163.351C432.635 163.96 433.109 164.264 433.754 164.264C434.23 164.264 434.601 164.08 434.866 163.711C435.131 163.342 435.263 162.787 435.263 162.046ZM438.593 165H437.6V156.75H438.593V165ZM442.6 165.107C441.812 165.107 441.171 164.85 440.677 164.334C440.183 163.815 439.936 163.122 439.936 162.255V162.073C439.936 161.496 440.045 160.982 440.264 160.531C440.486 160.076 440.794 159.722 441.188 159.468C441.585 159.21 442.015 159.081 442.477 159.081C443.232 159.081 443.819 159.33 444.238 159.828C444.657 160.325 444.867 161.038 444.867 161.965V162.379H440.93C440.944 162.952 441.111 163.416 441.429 163.77C441.751 164.121 442.16 164.296 442.654 164.296C443.005 164.296 443.302 164.225 443.545 164.082C443.789 163.938 444.002 163.749 444.185 163.512L444.792 163.985C444.305 164.733 443.574 165.107 442.6 165.107ZM442.477 159.897C442.076 159.897 441.739 160.044 441.467 160.338C441.195 160.628 441.026 161.036 440.962 161.562H443.873V161.487C443.844 160.982 443.708 160.592 443.465 160.316C443.221 160.037 442.892 159.897 442.477 159.897ZM447.133 162.792H446.236L446.167 157.18H447.208L447.133 162.792ZM446.129 164.5C446.129 164.339 446.177 164.205 446.274 164.098C446.374 163.987 446.521 163.931 446.714 163.931C446.908 163.931 447.055 163.987 447.155 164.098C447.255 164.205 447.305 164.339 447.305 164.5C447.305 164.662 447.255 164.796 447.155 164.903C447.055 165.007 446.908 165.059 446.714 165.059C446.521 165.059 446.374 165.007 446.274 164.903C446.177 164.796 446.129 164.662 446.129 164.5Z" fill="#ABB1BF"/>
<g clip-path="url(#clip0_0_11)">
<path fill-rule="evenodd" clip-rule="evenodd" d="M31.6244 57.532L43.1086 62.4019L50.9819 78.0399L52.3122 80.9078L56.3303 80.0961L64.6652 78.6622L70.6923 80.5019L73.2986 82.0982L74.7104 92.5145L76.2851 95.7611L80.086 99.7383L81.6606 100.631L85.19 94.5978L91.9231 83.2345L92.7647 81.5842L102.511 81.0701L108.566 80.3667C108.566 80.3667 112.231 79.7173 112.774 78.581C113.317 77.4447 116.629 72.3853 116.629 72.3853L121.407 65.1345L125.887 61.5903L129.633 58.2084L130.312 57.9108C130.312 57.9108 131.86 59.2365 133.271 58.9118C134.656 58.5871 136.095 57.3426 136.339 56.9097C136.557 56.5039 138.077 51.688 138.403 50.1729C138.729 48.6578 139.081 42.9762 139.081 42.9762L137.697 37.5652C137.697 37.5652 135.389 30.2332 135.308 29.0969C135.226 27.9605 134.005 23.2259 134.005 23.2259L132.484 15.0552C132.484 15.0552 134.167 16.2185 134.357 16.435C134.548 16.6514 140.113 24.0916 140.113 24.0916L145.516 33.2634L148.394 40.9741L150.077 49.2801L150.62 58.2895L149.751 67.8401L146.52 78.8786L142.611 86.6976L136.937 96.9786L130.312 108.234L125.751 118.433L123.145 129.851L122.005 141.755C122.005 141.755 120.403 146.517 119.887 147.22C119.371 147.924 116.575 150.738 116.575 150.738L114.973 151.82L107.697 153.362L94.0407 153.524L79.7873 153.659C79.7873 153.659 71.914 153.01 71.2353 152.848C70.5566 152.686 65.6697 151.495 64.095 149.926C62.5204 148.357 60.0226 144.19 59.6697 141.809C59.3167 139.428 59.2624 133.016 59.2624 133.016C59.2624 133.016 58.1222 126.171 57.552 123.899C56.9548 121.653 54.7014 114.754 54.0769 113.374C53.4525 111.994 50.4932 105.745 49.9502 105.149C49.4072 104.554 44.4118 95.1118 43.3529 94.2731C42.2941 93.4344 37 82.3146 36.4299 80.9348C35.8597 79.555 33.0634 71.9795 33.1991 71.6007C33.3348 71.1949 31.4072 62.1314 31.3529 61.5903C31.2986 61.0492 31.3529 57.3967 31.6244 57.532V57.532Z" fill="white"/>
<path opacity="0.18" fill-rule="evenodd" clip-rule="evenodd" d="M64.0407 80.7454C64.0407 80.7454 65.0724 89.1055 67.4887 97.8714C67.9774 99.63 68.3303 101.416 68.4661 103.228C68.7647 107.124 68.2217 111.426 62.0588 100.793C60.1312 97.4656 55.9774 88.5103 55.8416 79.7714L60.1584 78.9057L63.6335 78.9598C63.6335 78.9327 64.3394 78.6892 64.0407 80.7454V80.7454Z" fill="#E8E9EA"/>
<path opacity="0.33" fill-rule="evenodd" clip-rule="evenodd" d="M65.9412 80.7454C65.9412 80.7454 66.9728 89.1055 69.3891 97.8714C69.8778 99.63 70.2308 101.416 70.3665 103.228C70.6652 107.124 70.1222 111.426 63.9593 100.793C62.0317 97.4656 57.8778 88.5103 57.7421 79.7714L62.0588 78.9057L65.5339 78.9598C65.5339 78.9327 66.2398 78.6892 65.9412 80.7454V80.7454Z" fill="#E8E9EA"/>
<path opacity="0.19" fill-rule="evenodd" clip-rule="evenodd" d="M134.303 24.5245C134.33 24.7139 134.412 24.9033 134.52 25.0927C135.878 27.23 144.864 42.841 144.321 58.5601C143.724 75.7673 136.91 83.9921 135.09 87.9692C133.271 91.9463 121.597 108.721 120.213 120.246C118.828 131.772 119.344 139.915 117.715 143.162C116.086 146.409 112.611 149.06 108.186 149.304C108.158 149.304 108.131 149.304 108.077 149.304C107.262 149.412 96.1041 150.873 70.3665 149.385C70.3122 149.385 70.2579 149.385 70.2308 149.358C65.5611 148.708 61.7873 145.272 61.4344 139.347C61.0814 133.395 61.6244 125.278 54.1041 109.045C46.5837 92.8121 39.009 82.3417 36.0769 72.5747C33.905 65.2969 33.6878 61.5091 33.7421 59.6423C33.7692 58.9389 33.2805 58.3166 32.5747 58.1543V58.1543C31.8145 57.9649 31.2715 58.4519 31.3529 59.2365C31.8145 63.3489 33.009 72.6559 34.8009 76.7413C37.19 82.2064 42.6199 93.4344 45.1991 96.8163C47.7783 100.198 52.6109 109.803 53.0181 111.372C53.4253 112.941 57.4434 122.275 58.0407 127.47C58.5294 131.528 58.9638 133.07 59.1267 133.557C59.181 133.693 59.2081 133.855 59.2081 133.99C59.2353 135.424 59.4796 142.675 61.0814 145.272C62.8733 148.167 64.7195 151.468 68.6561 152.361C72.5928 153.254 86.2489 153.2 86.2489 153.2L99.6878 153.47C100.367 153.47 101.48 153.47 102.158 153.443C108.701 153.145 111.742 152.767 112.991 152.577C114.783 152.307 116.439 151.549 118.801 150.007C119.371 149.655 121.76 146.706 121.977 142.404C122.113 139.997 122.873 132.178 123.063 131.285C123.253 130.392 124.095 123.709 125.425 120.111C126.647 116.837 130.312 107.693 134.982 100.442C139.081 94.1108 140.167 91.4323 140.357 90.8641C140.385 90.783 140.439 90.7018 140.466 90.6206C141.253 89.2949 147.606 78.6351 148.149 74.4686C148.149 74.4145 148.176 74.3604 148.176 74.3063C148.367 73.5217 149.86 67.6777 150.104 65.6756C150.348 63.5383 150.81 53.636 150.104 49.3342C149.398 45.0324 147.552 37.1864 146.222 34.8326C144.973 32.6141 140.52 24.9033 140.005 23.9834C139.977 23.9293 139.923 23.8752 139.896 23.8211L135.525 18.1936C131.29 12.6202 133.217 17.896 133.407 19.1135L134.303 24.5245V24.5245Z" fill="#FF5656"/>
<path opacity="0.08" fill-rule="evenodd" clip-rule="evenodd" d="M135.552 54.5018C135.552 54.5018 139.597 64.5123 134.357 74.9827C129.118 85.4531 128.032 85.4801 128.032 85.4801C128.032 85.4801 128.385 78.2293 128.032 74.0898C127.679 69.9504 126.403 64.891 124.855 61.6444C124.855 61.6444 125.914 59.8858 127.109 59.48C128.466 59.02 132.186 58.2084 132.186 58.2084C132.186 58.2084 135.335 55.7463 135.552 54.5018V54.5018Z" fill="#E5E5E5"/>
<path opacity="0.3" d="M121.136 142.404C121.136 142.404 120.864 151.468 111.362 151.766" stroke="#FF5656" stroke-width="1.5" stroke-linecap="round"/>
<path opacity="0.2" fill-rule="evenodd" clip-rule="evenodd" d="M136.638 54.5018C136.638 54.5018 140.683 64.5123 135.443 74.9827C130.204 85.4531 129.118 85.4801 129.118 85.4801C129.118 85.4801 129.471 78.2293 129.118 74.0898C128.765 69.9504 127.489 64.891 125.941 61.6444C125.941 61.6444 127 59.8858 128.195 59.48C129.552 59.02 133.271 58.2084 133.271 58.2084C133.271 58.2084 136.421 55.7463 136.638 54.5018V54.5018Z" fill="#E5E5E5"/>
<g clip-path="url(#clip1_0_11)">
<path d="M65.8054 151.116C59.8326 145.922 59.5882 141.025 59.3982 135.451C59.3439 133.287 59.0995 131.122 58.6923 128.985C56.4661 117.432 53.8326 112.103 49.8959 104.906C48.2398 101.876 46.4751 98.9537 44.6018 96.0587C32.0045 76.6601 31.2172 62.1043 31.2715 58.2625C31.2715 57.7755 31.7873 57.4508 32.2217 57.6402L43.3258 62.3478C43.7059 62.5102 44.0045 62.8078 44.1674 63.1595L52.0679 80.0961C52.2579 80.5019 52.7195 80.7454 53.1538 80.6372L63.8507 78.4998C64.0679 78.4457 64.2579 78.4457 64.4751 78.4998L67.8145 79.1492C68.3846 79.2574 68.9547 78.8786 69.0905 78.3105L69.6606 75.6049C69.7421 75.2262 69.9864 74.9286 70.3394 74.7662L88.638 66.5685C89.2081 66.325 89.6425 65.838 89.8054 65.2157L94.6109 48.4144C94.7195 47.9815 94.9638 47.6297 95.3167 47.3321L111.226 33.8045C111.715 33.3716 112.502 33.5069 112.828 34.075L122.493 50.4706C122.792 50.9575 123.443 51.0928 123.878 50.7141C126.593 48.5496 135.063 41.7587 137.534 39.4861C137.968 39.0803 138.131 38.458 137.941 37.9169C134.629 28.1229 132.62 15.1363 132.457 14.1082C132.457 14.0812 132.484 14.0812 132.484 14.1082C138.294 20.6556 140.222 23.0906 144.104 30.2061C146.195 34.048 147.715 38.1874 148.882 42.4081C153.172 57.9919 148.882 71.709 148.231 74.2522C148.068 74.8744 147.579 76.2272 147.389 76.8224C145.652 81.9359 133.271 103.364 132.348 104.852" stroke="#353D47" stroke-width="1.08"/>
<path d="M65.8054 151.116C59.8326 145.922 59.5882 141.025 59.3982 135.451C59.3439 133.287 59.0995 131.122 58.6923 128.985C56.4661 117.432 53.8326 112.103 49.8959 104.906C48.2398 101.876 46.4751 98.9537 44.6018 96.0587C32.0045 76.6601 31.2172 62.1043 31.2715 58.2625C31.2715 57.7755 31.7873 57.4508 32.2217 57.6402L43.3258 62.3478C43.7059 62.5102 44.0045 62.8078 44.1674 63.1595L52.0679 80.0961C52.2579 80.5019 52.7195 80.7454 53.1538 80.6372L63.8507 78.4998C64.0679 78.4457 64.2579 78.4457 64.4751 78.4998L67.8145 79.1492C68.3846 79.2574 68.9547 78.8786 69.0905 78.3105L69.6606 75.6049C69.7421 75.2262 69.9864 74.9286 70.3394 74.7662L88.638 66.5685C89.2081 66.325 89.6425 65.838 89.8054 65.2157L94.6109 48.4144C94.7195 47.9815 94.9638 47.6297 95.3167 47.3321L111.226 33.8045C111.715 33.3716 112.502 33.5069 112.828 34.075L122.493 50.4706C122.792 50.9575 123.443 51.0928 123.878 50.7141C126.593 48.5496 135.063 41.7587 137.534 39.4861C137.968 39.0803 138.131 38.458 137.941 37.9169C134.629 28.1229 132.62 15.1363 132.457 14.1082C132.457 14.0812 132.484 14.0812 132.484 14.1082C138.294 20.6556 140.222 23.0906 144.104 30.2061C146.195 34.048 147.715 38.1874 148.882 42.4081C153.172 57.9919 148.882 71.709 148.231 74.2522C148.068 74.8744 147.579 76.2272 147.389 76.8224C145.652 81.9359 133.271 103.364 132.348 104.852" stroke="#333435" stroke-width="1.5" stroke-linecap="round"/>
</g>
<path d="M68.7104 79.2574L73.8688 81.3407C74.1946 81.4759 74.4389 81.7735 74.4932 82.1253L76.1493 93.0827C76.2308 93.5697 76.4208 94.0025 76.7466 94.3813L80.6018 98.9266C81.362 99.8194 82.7738 99.6842 83.371 98.6831L92.9004 82.2064C93.1176 81.8547 93.4706 81.6112 93.8778 81.5842L110.113 80.3126C110.113 80.3126 112.394 80.2314 114.593 76.0378C115.896 73.5758 118.176 70.0045 119.833 67.4883C121.081 65.5945 122.629 63.89 124.394 62.4561L128.683 58.993C129.281 58.506 130.041 58.2895 130.801 58.3707C132.186 58.506 134.548 58.3707 136.041 56.0981C136.367 55.6111 136.584 55.0429 136.665 54.4747L138.077 46.1688C138.213 45.3842 138.213 44.5996 138.104 43.8149L138.05 38.5392" stroke="#333435" stroke-width="1.5"/>
<path fill-rule="evenodd" clip-rule="evenodd" d="M112.91 78.2022C112.665 78.4999 112.611 78.9057 112.719 79.2845C113.072 80.5019 114.023 83.7756 114.158 85.1013C114.321 86.5623 114.62 92.6768 114.701 93.9755C114.701 94.1378 114.729 94.3002 114.756 94.4625L116.412 103.445C116.412 103.445 114.919 93.0827 114.973 92.7851C115.027 92.4874 120.158 94.6248 120.158 94.6248L115.733 92.6498C115.136 92.3792 114.756 91.8111 114.729 91.1888C114.647 88.9432 114.484 83.8027 114.484 83.6133C114.484 83.3698 113.588 79.1492 113.317 78.3646C113.235 77.9317 113.072 78.0129 112.91 78.2022V78.2022Z" fill="#333435"/>
<path opacity="0.31" fill-rule="evenodd" clip-rule="evenodd" d="M113.181 77.9317C112.937 78.2293 112.882 78.6351 112.991 79.0139C113.344 80.2314 114.294 83.5051 114.43 84.8308C114.593 86.2918 114.729 92.2169 114.973 93.7049C115 93.8673 115 94.0296 115.027 94.1919L116.683 103.174C116.683 103.174 115.054 92.758 115.109 92.4333C115.244 92.4063 120.186 94.5978 120.186 94.5978L116.032 92.3522C115.434 92.0816 115.054 91.5134 115.027 90.8912C114.946 88.6456 114.783 83.5051 114.783 83.3157C114.783 83.0722 113.887 78.8516 113.615 78.067C113.507 77.6611 113.344 77.7423 113.181 77.9317V77.9317Z" fill="#FF5656"/>
<path fill-rule="evenodd" clip-rule="evenodd" d="M53.371 81.2054L52.7466 86.6435C52.7195 86.7788 52.7466 86.914 52.8009 87.0493C53.0181 87.5904 53.6154 89.1596 53.8869 90.1607C53.9412 90.296 53.724 90.3771 53.6425 90.2419C53.2353 89.4572 52.638 88.2127 52.3665 87.6445C52.2579 87.4281 52.0679 87.3199 51.8507 87.3199H50.3303C50.1674 87.3199 50.1131 87.0764 50.276 87.0223L51.2805 86.6705C51.552 86.5623 51.7692 86.3188 51.7964 86.0212L52.2851 80.8807C52.3122 80.6102 52.5566 80.4208 52.8281 80.4478L52.9638 80.7184C53.2353 80.7454 53.3982 80.9619 53.371 81.2054V81.2054Z" fill="#333435"/>
<path opacity="0.15" fill-rule="evenodd" clip-rule="evenodd" d="M53.2081 81.503L52.448 86.9141C52.4208 87.0493 52.448 87.1846 52.5023 87.3199C52.6923 87.861 53.4525 89.322 53.724 90.3501C53.7511 90.4854 53.5068 90.6206 53.4525 90.4854C53.0724 89.7007 52.3394 88.5103 52.095 87.9151C52.0136 87.6987 51.7964 87.5634 51.5792 87.5634L50.086 87.6716C49.9231 87.6716 50.0588 87.2117 50.2217 87.1576L51.0362 86.887C51.3348 86.8058 51.5249 86.5353 51.5792 86.2377L52.095 80.7184C52.1222 80.4478 52.4751 80.6372 52.7466 80.6643L52.8552 80.9619C53.0724 81.0431 53.2624 81.2595 53.2081 81.503V81.503Z" fill="#6F7175"/>
<path fill-rule="evenodd" clip-rule="evenodd" d="M82.6652 99.5489L78.4299 111.534C78.4299 111.561 78.3756 111.561 78.3756 111.534L80.9819 99.9547C81.009 99.7653 81.1448 99.603 81.3348 99.5489L82.2851 99.2242C82.5294 99.116 82.7195 99.3324 82.6652 99.5489V99.5489Z" fill="#333435"/>
<path opacity="0.22" fill-rule="evenodd" clip-rule="evenodd" d="M81.6335 99.4136L78.3484 111.697C78.3484 111.724 78.2941 111.724 78.2941 111.697L79.9774 99.9277C80.0045 99.7383 80.1131 99.5759 80.3032 99.4948L81.2262 99.0889C81.4706 98.9807 81.6878 99.1701 81.6335 99.4136V99.4136Z" fill="#FF5656"/>
<path fill-rule="evenodd" clip-rule="evenodd" d="M94.8281 193.106H93.8778C93.7421 193.106 93.6335 192.998 93.6335 192.863V192.863C93.6335 192.727 93.7421 192.619 93.8778 192.619H94.8281C94.9638 192.619 95.0724 192.727 95.0724 192.863V192.863C95.0724 192.998 94.9638 193.106 94.8281 193.106V193.106Z" fill="white"/>
<path fill-rule="evenodd" clip-rule="evenodd" d="M104.113 63.4571C104.113 63.4571 106.557 65.2157 111.335 64.2958C111.878 64.0794 112.828 64.0794 112.91 64.3499C112.991 64.6205 111.308 70.8161 111.308 71.0867H110.276L107.29 80.0149H105.932C105.932 80.0149 110.819 66.4332 111.09 64.8099C111.145 64.7558 107.29 65.4321 103.842 63.917C103.842 63.8359 103.842 63.2948 104.113 63.4571V63.4571Z" fill="#9AAAC1"/>
<path opacity="0.29" fill-rule="evenodd" clip-rule="evenodd" d="M104.928 63.1865C104.928 63.1865 107.371 64.9451 112.149 64.0253C112.692 63.8088 113.643 63.8088 113.724 64.0794C113.805 64.3499 112.122 70.5456 112.122 70.8161H111.09L108.104 79.7444H106.747C106.747 79.7444 111.633 66.1626 111.905 64.5393C111.959 64.4852 108.104 65.1616 104.656 63.6465C104.656 63.5653 104.656 63.0242 104.928 63.1865V63.1865Z" fill="#9AAAC1"/>
<path opacity="0.48" fill-rule="evenodd" clip-rule="evenodd" d="M106.285 82.1794C106.285 82.1794 99.7692 103.147 99.4163 104.581C99.0634 106.015 99.0634 112.806 100.312 121.572C101.045 128.146 100.502 148.357 100.855 149.087C101.208 149.818 99.6606 124.44 99.1991 122.221C98.7376 119.976 97.5158 108.288 98.3846 104.852C99.2534 101.416 104.71 83.965 104.71 83.965L105.335 82.1794H106.285V82.1794Z" fill="#B4C1DB"/>
<path opacity="0.12" fill-rule="evenodd" clip-rule="evenodd" d="M107.371 82.1794C107.371 82.1794 100.855 103.147 100.502 104.581C100.149 106.015 100.149 112.806 101.398 121.572C102.131 128.146 101.588 148.357 101.941 149.087C102.294 149.818 100.747 124.44 100.285 122.221C99.8235 119.976 98.6018 108.288 99.4706 104.852C100.339 101.416 105.796 83.965 105.796 83.965L106.421 82.1794H107.371V82.1794Z" fill="#FF5656"/>
<path opacity="0.48" fill-rule="evenodd" clip-rule="evenodd" d="M81.552 103.283C82.0407 104.96 82.2308 110.723 81.9864 113.32C81.7421 115.944 81.4163 118.001 80.9004 123.249C80.3846 128.471 81.0633 146.706 81.0633 146.706C81.0633 146.706 81.3891 129.174 81.5249 127.849C81.6606 126.55 83.0724 114.186 83.2353 110.858C83.4253 107.53 82.4751 101.794 82.4751 101.794L82.2851 100.496L81.552 103.283V103.283Z" fill="#B4C1DB"/>
<path opacity="0.46" d="M97.1086 82.9369C97.1086 82.9369 95.2624 88.0233 93.905 88.0233" stroke="#142A51" stroke-width="0.54"/>
<path opacity="0.3" d="M79.9502 57.1803C79.9502 57.1803 79.5158 61.1033 79.8416 62.2667C80.1946 63.403 83.6968 79.5009 83.8326 79.6903C83.9412 79.8526 85.2715 84.0732 86.4932 86.2377C86.9276 86.9952 87.6335 87.5904 88.4751 87.8339C88.8823 87.9692 89.5339 87.9692 89.5339 87.9692" stroke="#FF5656" stroke-width="0.5"/>
<path opacity="0.3" d="M102.05 57.1532C102.05 57.1532 102.593 62.429 100.149 70.735C98.6018 77.4988 97.7873 80.7454 97.7873 80.7454" stroke="#FF5656" stroke-width="0.5"/>
<path opacity="0.19" d="M102.593 57.1532C102.593 57.1532 103.136 62.429 100.692 70.735C99.1448 77.4988 98.3303 80.7454 98.3303 80.7454" stroke="#FF5656" stroke-width="0.54"/>
<ellipse opacity="0.22" cx="100.502" cy="61.5632" rx="1.27602" ry="1.2716" stroke="#FF5656" stroke-width="0.54"/>
<ellipse opacity="0.22" cx="80.3032" cy="61.5632" rx="1.27602" ry="1.2716" stroke="#FF5656" stroke-width="0.54"/>
<path d="M88.7466 86.3188L84.4299 86.4812C84.0769 86.4812 83.8054 86.7788 83.8054 87.1305V87.6445C83.8054 87.9963 84.1041 88.2939 84.457 88.2939H86.6561" stroke="#FF5656" stroke-width="0.5"/>
<path d="M88.5023 86.5894L84.3756 86.7247C84.0498 86.7247 83.7783 86.9411 83.7783 87.2117V87.5904C83.7783 87.861 84.0498 88.0774 84.3756 88.0774H86.4932" stroke="#1951FC" stroke-opacity="0.31" stroke-width="0.5"/>
<path opacity="0.22" d="M90.8643 86.1836C90.8643 86.1836 94.448 86.2377 95.9412 86.4271C96.2941 86.4812 96.5656 86.7788 96.5656 87.1305V87.5093C96.5656 87.861 96.2941 88.1586 95.914 88.1856L93.7964 88.2939" stroke="#142A51" stroke-width="0.5"/>
<path opacity="0.22" d="M93.0362 88.2668C93.0362 88.2668 92.4932 92.1898 92.6833 98.629C92.9548 104.716 92.5475 106.421 95.0181 107.909" stroke="#142A51" stroke-width="0.5"/>
<path opacity="0.28" d="M93.3077 88.2668C93.3077 88.2668 92.7647 92.1898 92.9547 98.629C93.2262 104.716 92.819 106.421 95.2896 107.909" stroke="#FF5656" stroke-width="0.5"/>
<path d="M93.8507 89.7819C93.8507 89.7819 93.3077 93.4073 93.4977 99.3324C93.7692 104.96 93.362 106.502 95.8326 107.882" stroke="white" stroke-width="0.5"/>
<path opacity="0.22" d="M88.3665 90.2148C88.3665 90.2148 88.638 103.283 88.3665 104.554C88.095 105.826 87.0905 107.99 84.8371 108.612" stroke="#142A51" stroke-width="0.5"/>
<path opacity="0.28" d="M88.095 90.2148C88.095 90.2148 88.3665 103.283 88.095 104.554C87.8235 105.826 86.819 107.99 84.5656 108.612" stroke="#FF5656" stroke-width="0.5"/>
<path d="M87.552 92.6227C87.552 92.6227 87.8235 103.986 87.552 105.095C87.2805 106.204 86.276 108.071 84.0226 108.612" stroke="white" stroke-width="0.5"/>
<ellipse opacity="0.14" cx="91.3258" cy="121.815" rx="3.58371" ry="3.5713" stroke="#142A51" stroke-width="0.5"/>
<path opacity="0.14" d="M95.4253 124.196C95.4253 124.196 94.0679 125.468 93.8507 130.419C93.6335 135.37 93.8507 141.052 93.8507 141.052" stroke="#142A51" stroke-width="0.5"/>
<path opacity="0.14" d="M86.1946 124.927C86.1946 124.927 87.905 126.739 87.7421 129.364C87.552 131.988 87.7421 139.997 87.7421 139.997" stroke="#142A51" stroke-width="0.5"/>
<path fill-rule="evenodd" clip-rule="evenodd" d="M101.072 154.077H80.4932C80.3032 154.077 80.1403 153.84 80.1403 153.564V153.09C80.1403 152.814 80.3032 152.577 80.4932 152.577H101.072C101.262 152.577 101.425 152.814 101.425 153.09V153.564C101.425 153.84 101.29 154.077 101.072 154.077V154.077Z" fill="#333435"/>
<path fill-rule="evenodd" clip-rule="evenodd" d="M104.005 154.077H102.348C102.158 154.077 101.995 153.84 101.995 153.564V153.09C101.995 152.814 102.158 152.577 102.348 152.577H104.005C104.195 152.577 104.357 152.814 104.357 153.09V153.564C104.385 153.84 104.222 154.077 104.005 154.077V154.077Z" fill="#333435"/>
<path opacity="0.26" fill-rule="evenodd" clip-rule="evenodd" d="M101.072 152.523H80.4932C80.3032 152.523 80.1403 152.361 80.1403 152.171V151.847C80.1403 151.657 80.3032 151.495 80.4932 151.495H101.072C101.262 151.495 101.425 151.657 101.425 151.847V152.171C101.425 152.361 101.29 152.523 101.072 152.523V152.523Z" fill="#FF5656"/>
<path opacity="0.26" fill-rule="evenodd" clip-rule="evenodd" d="M104.005 152.523H102.348C102.158 152.523 101.995 152.361 101.995 152.171V151.847C101.995 151.657 102.158 151.495 102.348 151.495H104.005C104.195 151.495 104.357 151.657 104.357 151.847V152.171C104.385 152.361 104.222 152.523 104.005 152.523V152.523Z" fill="#FF5656"/>
<path fill-rule="evenodd" clip-rule="evenodd" d="M73.8688 157.123H112.231C113.154 157.123 114.05 157.393 114.756 157.934C115.597 158.584 116.439 159.72 116.33 161.668C116.195 164.076 114.511 165.05 113.262 165.456C113.018 165.537 113.018 165.888 113.262 165.97C114.566 166.403 116.33 167.539 116.33 170.434C116.33 172.788 114.81 173.897 113.615 174.384C113.181 174.573 113.154 175.141 113.534 175.385C114.783 176.115 116.466 177.576 116.303 180.147C116.222 181.364 115.706 182.311 115.054 183.014C113.995 184.124 112.502 184.719 110.955 184.719H74.5204C73 184.719 71.5339 184.043 70.638 182.798C70.095 182.041 69.6878 181.012 69.7692 179.633C69.905 177.008 71.6697 175.926 72.8642 175.466C73.19 175.358 73.19 174.898 72.8914 174.763C71.6154 174.167 69.7421 172.815 69.7421 170.163C69.7421 167.755 71.371 166.646 72.6742 166.159C73.0543 166.024 73.0543 165.483 72.6742 165.347C71.2896 164.779 69.4977 163.535 69.7421 160.694C69.905 156.825 73.8688 157.123 73.8688 157.123V157.123Z" fill="#FF5656" stroke="#333435" stroke-width="1.5"/>
<path opacity="0.17" fill-rule="evenodd" clip-rule="evenodd" d="M75.6302 157.664H111.744C111.744 157.664 114.996 158.34 114.786 161.993C114.681 164.103 113.343 165.05 112.242 165.483C111.927 165.591 111.927 166.051 112.216 166.186C113.37 166.646 114.786 167.755 114.786 170.326C114.786 172.517 113.422 173.572 112.321 174.059C111.901 174.249 111.875 174.817 112.268 175.06C113.422 175.764 114.917 177.171 114.786 179.551C114.655 181.797 112.95 183.015 111.901 183.556C111.455 183.772 110.983 183.907 110.485 183.907H75.0794C75.0794 183.907 71.6175 182.852 71.8274 179.064C71.9585 176.657 73.5058 175.601 74.6073 175.168C74.922 175.033 74.9483 174.573 74.6336 174.411C73.4796 173.816 71.8011 172.544 71.8274 170.082C71.8274 167.62 73.5845 166.592 74.8171 166.186C75.0794 166.105 75.0794 165.699 74.8171 165.618C73.5058 165.131 71.5913 163.941 71.8274 161.073C71.9585 157.42 75.6302 157.664 75.6302 157.664V157.664Z" stroke="#1D2128" stroke-width="1.5"/>
<path fill-rule="evenodd" clip-rule="evenodd" d="M79.7873 187.154H106.584C107.018 187.154 107.235 187.641 106.991 187.993C105.416 189.914 100.855 194.54 93.0905 194.784C85.6244 194.784 80.9819 189.968 79.4072 187.993C79.1086 187.641 79.3529 187.154 79.7873 187.154V187.154Z" fill="#FF5656" stroke="#333435" stroke-width="1.5"/>
<path opacity="0.26" fill-rule="evenodd" clip-rule="evenodd" d="M105.824 187.776C106.231 187.776 106.448 187.209 106.176 187.48C104.71 189.13 100.502 193.08 93.2805 193.297C86.3575 193.297 82.0407 189.184 80.6018 187.48C80.3575 187.182 80.5747 187.776 80.9819 187.776H105.824Z" fill="#FF5656" stroke="#333435" stroke-width="1.5"/>
<path fill-rule="evenodd" clip-rule="evenodd" d="M108.077 167.701H79.733C78.3756 167.701 77.2896 166.619 77.2896 165.266V164.969C77.2896 163.616 78.3756 162.534 79.733 162.534H108.077C109.434 162.534 110.52 163.616 110.52 164.969V165.266C110.52 166.619 109.434 167.701 108.077 167.701V167.701Z" fill="white"/>
<path fill-rule="evenodd" clip-rule="evenodd" d="M101.371 178.145H79.7602C78.4027 178.145 77.3167 177.062 77.3167 175.71V175.412C77.3167 174.059 78.4027 172.977 79.7602 172.977H101.371C102.729 172.977 103.814 174.059 103.814 175.412V175.71C103.814 177.035 102.701 178.145 101.371 178.145V178.145Z" fill="white"/>
<path opacity="0.31" fill-rule="evenodd" clip-rule="evenodd" d="M101.697 179.699H79.2443C78.9729 179.699 78.7557 179.365 78.7557 178.949V178.949C78.7557 178.532 78.9729 178.199 79.2443 178.199H101.697C101.968 178.199 102.186 178.532 102.186 178.949V178.949C102.186 179.365 101.968 179.699 101.697 179.699V179.699Z" fill="#2D2D2D"/>
<path opacity="0.31" fill-rule="evenodd" clip-rule="evenodd" d="M108.376 169.147H79.2715C79 169.147 78.7828 168.814 78.7828 168.397V168.397C78.7828 167.98 79 167.647 79.2715 167.647H108.376C108.647 167.647 108.864 167.98 108.864 168.397V168.397C108.864 168.814 108.62 169.147 108.376 169.147V169.147Z" fill="#2D2D2D"/>
<path d="M111.362 159.152C111.362 159.152 112.719 159.639 112.584 161.587" stroke="white" stroke-width="1.5" stroke-linecap="round"/>
<path d="M112.557 180.958C112.557 180.958 112.285 182.365 110.303 182.5" stroke="white" stroke-width="1.5" stroke-linecap="round"/>
<path d="M102.154 189.428C102.154 189.428 99.8462 191.403 95.7466 192.052" stroke="white" stroke-width="1.5" stroke-linecap="round"/>
<path d="M121.95 142.404C121.95 142.404 121.652 152.253 111.362 152.577" stroke="#333435" stroke-width="1.5" stroke-linecap="round"/>
<path opacity="0.28" d="M69.1176 78.3105L74.6561 80.4478C74.6561 80.4478 75.5792 82.4499 75.6878 84.5873C75.7964 86.7247 76.8281 93.1368 76.8281 93.1368L81.5249 98.5478C81.5249 98.5478 82.5294 99.3595 83.5611 96.8433C84.5928 94.3272 91.7873 82.1523 91.7873 82.1523C91.7873 82.1523 92.5204 80.4749 94.6923 80.7184L109.896 79.4468C109.896 79.4468 111.226 79.9338 112.937 77.2824C114.647 74.6309 117.824 68.5435 120.891 64.4311C124.394 60.7516 128.575 57.8567 128.575 57.8567C128.575 57.8567 129.878 57.1262 131.643 57.4508C133.543 57.559 135.172 55.8004 135.389 55.3405C135.824 54.3665 137.154 46.1417 137.154 46.1417C137.154 46.1417 137.127 42.4892 136.692 40.7306" stroke="#FF5656" stroke-width="1.08"/>
<path opacity="0.3" d="M133.299 15.8939C133.299 15.8939 143.208 26.6619 147.036 39.2426C147.172 39.6484 147.308 40.0543 147.443 40.4601C151.434 51.661 149.778 62.3208 149.452 64.2417L149.398 64.7016C149.344 65.0263 149.317 65.1886 149.29 65.5133C149.154 67.9753 147.742 76.4166 143.561 83.2616C143.29 83.6945 143.018 84.1544 142.774 84.6144C138.104 93.3532 131.914 104.311 131.914 104.311" stroke="#FF5656" stroke-width="1.08"/>
<path opacity="0.28" d="M69.8778 78.9327L70.6923 75.9566L88.7195 67.7589C88.7195 67.7589 90.1855 67.2178 90.8371 65.1886C91.5158 63.1595 95.371 48.8202 95.371 48.8202C95.371 48.8202 95.724 48.0085 96.6742 47.251C97.6244 46.4934 111.199 34.8055 111.199 34.8055C111.199 34.8055 112.014 34.1833 112.367 35.1572C112.719 36.1312 121.597 50.5788 121.597 50.5788C121.597 50.5788 122.765 52.4185 124.122 51.7963C125.48 51.174 136.339 41.6505 136.339 41.6505" stroke="#FF5656" stroke-width="1.08"/>
<path opacity="0.46" d="M96.5656 82.9369C96.5656 82.9369 94.7195 88.0233 93.362 88.0233" stroke="#142A51" stroke-opacity="0.24" stroke-width="0.54"/>
<path opacity="0.5" fill-rule="evenodd" clip-rule="evenodd" d="M118.828 104.284C118.828 104.284 115.434 112.346 115.326 115.647C115.353 118.975 115.326 126.739 115.326 126.739C115.326 126.739 114.62 115.376 114.837 113.428C115.054 111.561 116.303 107.909 118.828 104.284V104.284Z" fill="#E5E5E5"/>
<path opacity="0.12" fill-rule="evenodd" clip-rule="evenodd" d="M119.643 104.284C119.643 104.284 116.249 112.346 116.14 115.647C116.167 118.975 116.14 126.739 116.14 126.739C116.14 126.739 115.434 115.376 115.652 113.428C115.869 111.561 117.118 107.909 119.643 104.284V104.284Z" fill="#FF5656"/>
<path opacity="0.47" fill-rule="evenodd" clip-rule="evenodd" d="M143.127 62.8619C143.127 62.8619 142.122 77.1471 131.072 92.9474C120.05 108.775 139.326 83.0722 143.127 62.8619V62.8619Z" fill="#E8E9EA"/>
<path opacity="0.35" fill-rule="evenodd" clip-rule="evenodd" d="M61.2172 135.127C61.2172 135.127 59.7511 147.653 69.9864 149.249C70.4208 149.493 60.7014 147.112 61.2172 135.127V135.127Z" fill="#FF5656"/>
<path opacity="0.22" fill-rule="evenodd" clip-rule="evenodd" d="M61.7602 134.856C61.7602 134.856 60.2941 147.383 70.5294 148.979C70.9638 149.222 61.2443 146.842 61.7602 134.856V134.856Z" fill="#FF5656"/>
<path fill-rule="evenodd" clip-rule="evenodd" d="M81.4977 98.9266C81.3348 98.8725 78.0498 88.8079 78.0498 88.8079L74.3032 77.2012L71.6697 68.8952L70.7466 66.1356C70.7466 66.1356 74.6833 66.0273 77.724 63.2677C78.5928 62.5372 78.7014 61.9961 78.7014 61.9961C78.7014 61.9961 76.0136 65.6756 70.7466 65.7568C70.5837 65.6215 70.0136 63.3759 69.0362 64.1876C68.819 64.864 69.3891 68.2459 69.9321 69.3552C70.4751 70.4644 70.5294 71.1408 70.5294 71.1408H71.4253C71.4253 71.1408 72.8643 76.0108 73.1358 76.7142C73.4072 77.4176 76.3394 86.5894 76.5023 86.9682C76.6652 87.3469 79.8688 97.141 79.9502 97.3574C80.0317 97.4927 80.4661 97.9797 80.629 98.2232" fill="#9AAAC1"/>
<path opacity="0.12" fill-rule="evenodd" clip-rule="evenodd" d="M82.7738 99.1431C82.6109 99.0889 79.2172 88.9703 79.2172 88.9703L75.3348 77.3094L72.6199 68.9764L71.6697 66.1897C71.6697 66.1897 76.3394 65.378 78.2398 62.916C78.4299 62.7266 78.5928 62.1314 78.5928 62.1314C78.5928 62.1314 76.7738 65.2698 71.6425 65.7568C71.4796 65.6215 70.8824 63.3759 69.905 64.1876C69.6878 64.864 70.3122 68.2729 70.8552 69.3822C71.3982 70.4915 71.4796 71.1679 71.4796 71.1679H72.3756C72.3756 71.1679 73.8688 76.0649 74.1403 76.7683C74.4118 77.4718 77.4253 86.6976 77.6154 87.0493C77.7783 87.4281 81.0633 97.2492 81.1719 97.4656C81.2534 97.6009 81.6878 98.0879 81.8507 98.3314" fill="#FF5656"/>
<path opacity="0.22" d="M79.4072 57.1803C79.4072 57.1803 78.9728 61.1033 79.2986 62.2667C79.6516 63.403 83.1538 79.5009 83.2896 79.6903C83.3982 79.8526 84.7285 84.0732 85.9502 86.2377C86.3846 86.9952 87.0905 87.5904 87.9321 87.8339C88.3394 87.9692 88.9909 87.9692 88.9909 87.9692" stroke="#FF5656" stroke-width="0.54"/>
<path opacity="0.22" d="M79.9502 62.8348C79.9502 62.8348 88.638 66.2167 89.0452 66.2708C89.4525 66.325 93.3348 66.812 93.3348 66.812" stroke="#FF5656" stroke-width="0.54"/>
</g>
<defs>
<clipPath id="clip0_0_11">
<rect width="120" height="181" fill="white" transform="translate(31 14)"/>
</clipPath>
<clipPath id="clip1_0_11">
<rect width="120" height="138" fill="white" transform="translate(31 14)"/>
</clipPath>
</defs>
</svg>
