<svg width="304" height="209" viewBox="0 0 304 209" fill="none" xmlns="http://www.w3.org/2000/svg">
<path d="M96.2812 178H94.7734L89.0469 169.234V178H87.5391V166.625H89.0469L94.7891 175.43V166.625H96.2812V178ZM98.3359 173.695C98.3359 172.867 98.4974 172.122 98.8203 171.461C99.1484 170.799 99.6016 170.289 100.18 169.93C100.763 169.57 101.427 169.391 102.172 169.391C103.323 169.391 104.253 169.789 104.961 170.586C105.674 171.383 106.031 172.443 106.031 173.766V173.867C106.031 174.69 105.872 175.43 105.555 176.086C105.242 176.737 104.792 177.245 104.203 177.609C103.62 177.974 102.948 178.156 102.188 178.156C101.042 178.156 100.112 177.758 99.3984 176.961C98.6901 176.164 98.3359 175.109 98.3359 173.797V173.695ZM99.7891 173.867C99.7891 174.805 100.005 175.557 100.438 176.125C100.875 176.693 101.458 176.977 102.188 176.977C102.922 176.977 103.505 176.69 103.938 176.117C104.37 175.539 104.586 174.732 104.586 173.695C104.586 172.768 104.365 172.018 103.922 171.445C103.484 170.867 102.901 170.578 102.172 170.578C101.458 170.578 100.883 170.862 100.445 171.43C100.008 171.997 99.7891 172.81 99.7891 173.867ZM113.18 169.547L113.227 170.609C113.872 169.797 114.716 169.391 115.758 169.391C117.544 169.391 118.445 170.398 118.461 172.414V178H117.016V172.406C117.01 171.797 116.87 171.346 116.594 171.055C116.323 170.763 115.898 170.617 115.32 170.617C114.852 170.617 114.44 170.742 114.086 170.992C113.732 171.242 113.456 171.57 113.258 171.977V178H111.812V169.547H113.18ZM124.148 178.156C123.003 178.156 122.07 177.781 121.352 177.031C120.633 176.276 120.273 175.268 120.273 174.008V173.742C120.273 172.904 120.432 172.156 120.75 171.5C121.073 170.839 121.521 170.323 122.094 169.953C122.672 169.578 123.297 169.391 123.969 169.391C125.068 169.391 125.922 169.753 126.531 170.477C127.141 171.201 127.445 172.237 127.445 173.586V174.188H121.719C121.74 175.021 121.982 175.695 122.445 176.211C122.914 176.721 123.508 176.977 124.227 176.977C124.737 176.977 125.169 176.872 125.523 176.664C125.878 176.456 126.188 176.18 126.453 175.836L127.336 176.523C126.628 177.612 125.565 178.156 124.148 178.156ZM123.969 170.578C123.385 170.578 122.896 170.792 122.5 171.219C122.104 171.641 121.859 172.234 121.766 173H126V172.891C125.958 172.156 125.76 171.589 125.406 171.188C125.052 170.781 124.573 170.578 123.969 170.578ZM136.609 176.008L138.234 169.547H139.68L137.219 178H136.047L133.992 171.594L131.992 178H130.82L128.367 169.547H129.805L131.469 175.875L133.438 169.547H134.602L136.609 176.008ZM148.109 166.625L151.031 174.875L153.938 166.625H157.016V178H154.664V174.891L154.898 169.523L151.828 178H150.219L147.156 169.531L147.391 174.891V178H145.047V166.625H148.109ZM162.805 178.156C161.565 178.156 160.555 177.776 159.773 177.016C158.997 176.255 158.609 175.242 158.609 173.977V173.758C158.609 172.909 158.773 172.151 159.102 171.484C159.43 170.812 159.893 170.297 160.492 169.938C161.096 169.573 161.784 169.391 162.555 169.391C163.711 169.391 164.62 169.755 165.281 170.484C165.948 171.214 166.281 172.247 166.281 173.586V174.508H160.898C160.971 175.06 161.19 175.503 161.555 175.836C161.924 176.169 162.391 176.336 162.953 176.336C163.823 176.336 164.503 176.021 164.992 175.391L166.102 176.633C165.763 177.112 165.305 177.487 164.727 177.758C164.148 178.023 163.508 178.156 162.805 178.156ZM162.547 171.219C162.099 171.219 161.734 171.37 161.453 171.672C161.177 171.974 161 172.406 160.922 172.969H164.062V172.789C164.052 172.289 163.917 171.904 163.656 171.633C163.396 171.357 163.026 171.219 162.547 171.219ZM172.148 175.664C172.148 175.388 172.01 175.172 171.734 175.016C171.464 174.854 171.026 174.711 170.422 174.586C168.411 174.164 167.406 173.31 167.406 172.023C167.406 171.273 167.716 170.648 168.336 170.148C168.961 169.643 169.776 169.391 170.781 169.391C171.854 169.391 172.711 169.643 173.352 170.148C173.997 170.654 174.32 171.31 174.32 172.117H172.062C172.062 171.794 171.958 171.529 171.75 171.32C171.542 171.107 171.216 171 170.773 171C170.393 171 170.099 171.086 169.891 171.258C169.682 171.43 169.578 171.648 169.578 171.914C169.578 172.164 169.695 172.367 169.93 172.523C170.169 172.674 170.57 172.807 171.133 172.922C171.695 173.031 172.169 173.156 172.555 173.297C173.747 173.734 174.344 174.492 174.344 175.57C174.344 176.341 174.013 176.966 173.352 177.445C172.69 177.919 171.836 178.156 170.789 178.156C170.081 178.156 169.451 178.031 168.898 177.781C168.352 177.526 167.922 177.18 167.609 176.742C167.297 176.299 167.141 175.823 167.141 175.312H169.281C169.302 175.714 169.451 176.021 169.727 176.234C170.003 176.448 170.372 176.555 170.836 176.555C171.268 176.555 171.594 176.474 171.812 176.312C172.036 176.146 172.148 175.93 172.148 175.664ZM180.383 175.664C180.383 175.388 180.245 175.172 179.969 175.016C179.698 174.854 179.26 174.711 178.656 174.586C176.646 174.164 175.641 173.31 175.641 172.023C175.641 171.273 175.951 170.648 176.57 170.148C177.195 169.643 178.01 169.391 179.016 169.391C180.089 169.391 180.945 169.643 181.586 170.148C182.232 170.654 182.555 171.31 182.555 172.117H180.297C180.297 171.794 180.193 171.529 179.984 171.32C179.776 171.107 179.451 171 179.008 171C178.628 171 178.333 171.086 178.125 171.258C177.917 171.43 177.812 171.648 177.812 171.914C177.812 172.164 177.93 172.367 178.164 172.523C178.404 172.674 178.805 172.807 179.367 172.922C179.93 173.031 180.404 173.156 180.789 173.297C181.982 173.734 182.578 174.492 182.578 175.57C182.578 176.341 182.247 176.966 181.586 177.445C180.924 177.919 180.07 178.156 179.023 178.156C178.315 178.156 177.685 178.031 177.133 177.781C176.586 177.526 176.156 177.18 175.844 176.742C175.531 176.299 175.375 175.823 175.375 175.312H177.516C177.536 175.714 177.685 176.021 177.961 176.234C178.237 176.448 178.607 176.555 179.07 176.555C179.503 176.555 179.828 176.474 180.047 176.312C180.271 176.146 180.383 175.93 180.383 175.664ZM188.938 178C188.833 177.797 188.758 177.544 188.711 177.242C188.164 177.852 187.453 178.156 186.578 178.156C185.75 178.156 185.062 177.917 184.516 177.438C183.974 176.958 183.703 176.354 183.703 175.625C183.703 174.729 184.034 174.042 184.695 173.562C185.362 173.083 186.323 172.841 187.578 172.836H188.617V172.352C188.617 171.961 188.516 171.648 188.312 171.414C188.115 171.18 187.799 171.062 187.367 171.062C186.987 171.062 186.688 171.154 186.469 171.336C186.255 171.518 186.148 171.768 186.148 172.086H183.891C183.891 171.596 184.042 171.143 184.344 170.727C184.646 170.31 185.073 169.984 185.625 169.75C186.177 169.51 186.797 169.391 187.484 169.391C188.526 169.391 189.352 169.654 189.961 170.18C190.576 170.701 190.883 171.435 190.883 172.383V176.047C190.888 176.849 191 177.456 191.219 177.867V178H188.938ZM187.07 176.43C187.404 176.43 187.711 176.357 187.992 176.211C188.273 176.06 188.482 175.859 188.617 175.609V174.156H187.773C186.643 174.156 186.042 174.547 185.969 175.328L185.961 175.461C185.961 175.742 186.06 175.974 186.258 176.156C186.456 176.339 186.727 176.43 187.07 176.43ZM192.289 173.711C192.289 172.414 192.596 171.37 193.211 170.578C193.831 169.786 194.664 169.391 195.711 169.391C196.638 169.391 197.359 169.708 197.875 170.344L197.969 169.547H200.016V177.719C200.016 178.458 199.846 179.102 199.508 179.648C199.174 180.195 198.703 180.612 198.094 180.898C197.484 181.185 196.771 181.328 195.953 181.328C195.333 181.328 194.729 181.203 194.141 180.953C193.552 180.708 193.107 180.391 192.805 180L193.805 178.625C194.367 179.255 195.049 179.57 195.852 179.57C196.451 179.57 196.917 179.409 197.25 179.086C197.583 178.768 197.75 178.315 197.75 177.727V177.273C197.229 177.862 196.544 178.156 195.695 178.156C194.68 178.156 193.857 177.76 193.227 176.969C192.602 176.172 192.289 175.117 192.289 173.805V173.711ZM194.547 173.875C194.547 174.641 194.701 175.242 195.008 175.68C195.315 176.112 195.737 176.328 196.273 176.328C196.961 176.328 197.453 176.07 197.75 175.555V172C197.448 171.484 196.961 171.227 196.289 171.227C195.747 171.227 195.32 171.448 195.008 171.891C194.701 172.333 194.547 172.995 194.547 173.875ZM205.648 178.156C204.409 178.156 203.398 177.776 202.617 177.016C201.841 176.255 201.453 175.242 201.453 173.977V173.758C201.453 172.909 201.617 172.151 201.945 171.484C202.273 170.812 202.737 170.297 203.336 169.938C203.94 169.573 204.628 169.391 205.398 169.391C206.555 169.391 207.464 169.755 208.125 170.484C208.792 171.214 209.125 172.247 209.125 173.586V174.508H203.742C203.815 175.06 204.034 175.503 204.398 175.836C204.768 176.169 205.234 176.336 205.797 176.336C206.667 176.336 207.346 176.021 207.836 175.391L208.945 176.633C208.607 177.112 208.148 177.487 207.57 177.758C206.992 178.023 206.352 178.156 205.648 178.156ZM205.391 171.219C204.943 171.219 204.578 171.37 204.297 171.672C204.021 171.974 203.844 172.406 203.766 172.969H206.906V172.789C206.896 172.289 206.76 171.904 206.5 171.633C206.24 171.357 205.87 171.219 205.391 171.219ZM214.992 175.664C214.992 175.388 214.854 175.172 214.578 175.016C214.307 174.854 213.87 174.711 213.266 174.586C211.255 174.164 210.25 173.31 210.25 172.023C210.25 171.273 210.56 170.648 211.18 170.148C211.805 169.643 212.62 169.391 213.625 169.391C214.698 169.391 215.555 169.643 216.195 170.148C216.841 170.654 217.164 171.31 217.164 172.117H214.906C214.906 171.794 214.802 171.529 214.594 171.32C214.385 171.107 214.06 171 213.617 171C213.237 171 212.943 171.086 212.734 171.258C212.526 171.43 212.422 171.648 212.422 171.914C212.422 172.164 212.539 172.367 212.773 172.523C213.013 172.674 213.414 172.807 213.977 172.922C214.539 173.031 215.013 173.156 215.398 173.297C216.591 173.734 217.188 174.492 217.188 175.57C217.188 176.341 216.857 176.966 216.195 177.445C215.534 177.919 214.68 178.156 213.633 178.156C212.924 178.156 212.294 178.031 211.742 177.781C211.195 177.526 210.766 177.18 210.453 176.742C210.141 176.299 209.984 175.823 209.984 175.312H212.125C212.146 175.714 212.294 176.021 212.57 176.234C212.846 176.448 213.216 176.555 213.68 176.555C214.112 176.555 214.438 176.474 214.656 176.312C214.88 176.146 214.992 175.93 214.992 175.664ZM32.8516 199.031H28.0859L27.0156 202H25.4688L29.8125 190.625H31.125L35.4766 202H33.9375L32.8516 199.031ZM28.5391 197.797H32.4062L30.4688 192.477L28.5391 197.797ZM38.1484 193.547L38.1953 194.609C38.8411 193.797 39.6849 193.391 40.7266 193.391C42.513 193.391 43.4141 194.398 43.4297 196.414V202H41.9844V196.406C41.9792 195.797 41.8385 195.346 41.5625 195.055C41.2917 194.763 40.8672 194.617 40.2891 194.617C39.8203 194.617 39.4089 194.742 39.0547 194.992C38.7005 195.242 38.4245 195.57 38.2266 195.977V202H36.7812V193.547H38.1484ZM48.375 199.883L50.3438 193.547H51.8906L48.4922 203.305C47.9661 204.711 47.1302 205.414 45.9844 205.414L45.7109 205.391L45.1719 205.289V204.117L45.5625 204.148C46.0521 204.148 46.4323 204.049 46.7031 203.852C46.9792 203.654 47.2057 203.292 47.3828 202.766L47.7031 201.906L44.6875 193.547H46.2656L48.375 199.883ZM58.5234 193.547L58.5703 194.609C59.2161 193.797 60.0599 193.391 61.1016 193.391C62.888 193.391 63.7891 194.398 63.8047 196.414V202H62.3594V196.406C62.3542 195.797 62.2135 195.346 61.9375 195.055C61.6667 194.763 61.2422 194.617 60.6641 194.617C60.1953 194.617 59.7839 194.742 59.4297 194.992C59.0755 195.242 58.7995 195.57 58.6016 195.977V202H57.1562V193.547H58.5234ZM69.4922 202.156C68.3464 202.156 67.4141 201.781 66.6953 201.031C65.9766 200.276 65.6172 199.268 65.6172 198.008V197.742C65.6172 196.904 65.776 196.156 66.0938 195.5C66.4167 194.839 66.8646 194.323 67.4375 193.953C68.0156 193.578 68.6406 193.391 69.3125 193.391C70.4115 193.391 71.2656 193.753 71.875 194.477C72.4844 195.201 72.7891 196.237 72.7891 197.586V198.188H67.0625C67.0833 199.021 67.3255 199.695 67.7891 200.211C68.2578 200.721 68.8516 200.977 69.5703 200.977C70.0807 200.977 70.513 200.872 70.8672 200.664C71.2214 200.456 71.5312 200.18 71.7969 199.836L72.6797 200.523C71.9714 201.612 70.9089 202.156 69.4922 202.156ZM69.3125 194.578C68.7292 194.578 68.2396 194.792 67.8438 195.219C67.4479 195.641 67.2031 196.234 67.1094 197H71.3438V196.891C71.3021 196.156 71.1042 195.589 70.75 195.188C70.3958 194.781 69.9167 194.578 69.3125 194.578ZM81.9531 200.008L83.5781 193.547H85.0234L82.5625 202H81.3906L79.3359 195.594L77.3359 202H76.1641L73.7109 193.547H75.1484L76.8125 199.875L78.7812 193.547H79.9453L81.9531 200.008ZM91.8281 193.547L91.8672 194.484C92.487 193.755 93.3229 193.391 94.375 193.391C95.5573 193.391 96.362 193.844 96.7891 194.75C97.0703 194.344 97.4349 194.016 97.8828 193.766C98.3359 193.516 98.8698 193.391 99.4844 193.391C101.339 193.391 102.281 194.372 102.312 196.336V202H100.867V196.422C100.867 195.818 100.729 195.367 100.453 195.07C100.177 194.768 99.7135 194.617 99.0625 194.617C98.526 194.617 98.0807 194.779 97.7266 195.102C97.3724 195.419 97.1667 195.849 97.1094 196.391V202H95.6562V196.461C95.6562 195.232 95.0547 194.617 93.8516 194.617C92.9036 194.617 92.2552 195.021 91.9062 195.828V202H90.4609V193.547H91.8281ZM108.008 202.156C106.862 202.156 105.93 201.781 105.211 201.031C104.492 200.276 104.133 199.268 104.133 198.008V197.742C104.133 196.904 104.292 196.156 104.609 195.5C104.932 194.839 105.38 194.323 105.953 193.953C106.531 193.578 107.156 193.391 107.828 193.391C108.927 193.391 109.781 193.753 110.391 194.477C111 195.201 111.305 196.237 111.305 197.586V198.188H105.578C105.599 199.021 105.841 199.695 106.305 200.211C106.773 200.721 107.367 200.977 108.086 200.977C108.596 200.977 109.029 200.872 109.383 200.664C109.737 200.456 110.047 200.18 110.312 199.836L111.195 200.523C110.487 201.612 109.424 202.156 108.008 202.156ZM107.828 194.578C107.245 194.578 106.755 194.792 106.359 195.219C105.964 195.641 105.719 196.234 105.625 197H109.859V196.891C109.818 196.156 109.62 195.589 109.266 195.188C108.911 194.781 108.432 194.578 107.828 194.578ZM117.906 199.758C117.906 199.367 117.758 199.065 117.461 198.852C117.169 198.633 116.656 198.445 115.922 198.289C115.193 198.133 114.612 197.945 114.18 197.727C113.753 197.508 113.435 197.247 113.227 196.945C113.023 196.643 112.922 196.284 112.922 195.867C112.922 195.174 113.214 194.589 113.797 194.109C114.385 193.63 115.135 193.391 116.047 193.391C117.005 193.391 117.781 193.638 118.375 194.133C118.974 194.628 119.273 195.26 119.273 196.031H117.82C117.82 195.635 117.651 195.294 117.312 195.008C116.979 194.721 116.557 194.578 116.047 194.578C115.521 194.578 115.109 194.693 114.812 194.922C114.516 195.151 114.367 195.451 114.367 195.82C114.367 196.169 114.505 196.432 114.781 196.609C115.057 196.786 115.555 196.956 116.273 197.117C116.997 197.279 117.583 197.471 118.031 197.695C118.479 197.919 118.81 198.19 119.023 198.508C119.242 198.82 119.352 199.203 119.352 199.656C119.352 200.411 119.049 201.018 118.445 201.477C117.841 201.93 117.057 202.156 116.094 202.156C115.417 202.156 114.818 202.036 114.297 201.797C113.776 201.557 113.367 201.224 113.07 200.797C112.779 200.365 112.633 199.898 112.633 199.398H114.078C114.104 199.883 114.297 200.268 114.656 200.555C115.021 200.836 115.5 200.977 116.094 200.977C116.641 200.977 117.078 200.867 117.406 200.648C117.74 200.424 117.906 200.128 117.906 199.758ZM126.156 199.758C126.156 199.367 126.008 199.065 125.711 198.852C125.419 198.633 124.906 198.445 124.172 198.289C123.443 198.133 122.862 197.945 122.43 197.727C122.003 197.508 121.685 197.247 121.477 196.945C121.273 196.643 121.172 196.284 121.172 195.867C121.172 195.174 121.464 194.589 122.047 194.109C122.635 193.63 123.385 193.391 124.297 193.391C125.255 193.391 126.031 193.638 126.625 194.133C127.224 194.628 127.523 195.26 127.523 196.031H126.07C126.07 195.635 125.901 195.294 125.562 195.008C125.229 194.721 124.807 194.578 124.297 194.578C123.771 194.578 123.359 194.693 123.062 194.922C122.766 195.151 122.617 195.451 122.617 195.82C122.617 196.169 122.755 196.432 123.031 196.609C123.307 196.786 123.805 196.956 124.523 197.117C125.247 197.279 125.833 197.471 126.281 197.695C126.729 197.919 127.06 198.19 127.273 198.508C127.492 198.82 127.602 199.203 127.602 199.656C127.602 200.411 127.299 201.018 126.695 201.477C126.091 201.93 125.307 202.156 124.344 202.156C123.667 202.156 123.068 202.036 122.547 201.797C122.026 201.557 121.617 201.224 121.32 200.797C121.029 200.365 120.883 199.898 120.883 199.398H122.328C122.354 199.883 122.547 200.268 122.906 200.555C123.271 200.836 123.75 200.977 124.344 200.977C124.891 200.977 125.328 200.867 125.656 200.648C125.99 200.424 126.156 200.128 126.156 199.758ZM134.703 202C134.62 201.833 134.552 201.536 134.5 201.109C133.828 201.807 133.026 202.156 132.094 202.156C131.26 202.156 130.576 201.922 130.039 201.453C129.508 200.979 129.242 200.38 129.242 199.656C129.242 198.776 129.576 198.094 130.242 197.609C130.914 197.12 131.857 196.875 133.07 196.875H134.477V196.211C134.477 195.706 134.326 195.305 134.023 195.008C133.721 194.706 133.276 194.555 132.688 194.555C132.172 194.555 131.74 194.685 131.391 194.945C131.042 195.206 130.867 195.521 130.867 195.891H129.414C129.414 195.469 129.562 195.062 129.859 194.672C130.161 194.276 130.568 193.964 131.078 193.734C131.594 193.505 132.159 193.391 132.773 193.391C133.747 193.391 134.51 193.635 135.062 194.125C135.615 194.609 135.901 195.279 135.922 196.133V200.023C135.922 200.799 136.021 201.417 136.219 201.875V202H134.703ZM132.305 200.898C132.758 200.898 133.188 200.781 133.594 200.547C134 200.312 134.294 200.008 134.477 199.633V197.898H133.344C131.573 197.898 130.688 198.417 130.688 199.453C130.688 199.906 130.839 200.26 131.141 200.516C131.443 200.771 131.831 200.898 132.305 200.898ZM137.844 197.703C137.844 196.385 138.148 195.339 138.758 194.562C139.367 193.781 140.174 193.391 141.18 193.391C142.211 193.391 143.016 193.755 143.594 194.484L143.664 193.547H144.984V201.797C144.984 202.891 144.659 203.753 144.008 204.383C143.362 205.013 142.492 205.328 141.398 205.328C140.789 205.328 140.193 205.198 139.609 204.938C139.026 204.677 138.581 204.32 138.273 203.867L139.023 203C139.643 203.766 140.401 204.148 141.297 204.148C142 204.148 142.547 203.951 142.938 203.555C143.333 203.159 143.531 202.602 143.531 201.883V201.156C142.953 201.823 142.164 202.156 141.164 202.156C140.174 202.156 139.372 201.758 138.758 200.961C138.148 200.164 137.844 199.078 137.844 197.703ZM139.297 197.867C139.297 198.82 139.492 199.57 139.883 200.117C140.273 200.659 140.82 200.93 141.523 200.93C142.435 200.93 143.104 200.516 143.531 199.688V195.828C143.089 195.021 142.424 194.617 141.539 194.617C140.836 194.617 140.286 194.891 139.891 195.438C139.495 195.984 139.297 196.794 139.297 197.867ZM150.68 202.156C149.534 202.156 148.602 201.781 147.883 201.031C147.164 200.276 146.805 199.268 146.805 198.008V197.742C146.805 196.904 146.964 196.156 147.281 195.5C147.604 194.839 148.052 194.323 148.625 193.953C149.203 193.578 149.828 193.391 150.5 193.391C151.599 193.391 152.453 193.753 153.062 194.477C153.672 195.201 153.977 196.237 153.977 197.586V198.188H148.25C148.271 199.021 148.513 199.695 148.977 200.211C149.445 200.721 150.039 200.977 150.758 200.977C151.268 200.977 151.701 200.872 152.055 200.664C152.409 200.456 152.719 200.18 152.984 199.836L153.867 200.523C153.159 201.612 152.096 202.156 150.68 202.156ZM150.5 194.578C149.917 194.578 149.427 194.792 149.031 195.219C148.635 195.641 148.391 196.234 148.297 197H152.531V196.891C152.49 196.156 152.292 195.589 151.938 195.188C151.583 194.781 151.104 194.578 150.5 194.578ZM160.578 199.758C160.578 199.367 160.43 199.065 160.133 198.852C159.841 198.633 159.328 198.445 158.594 198.289C157.865 198.133 157.284 197.945 156.852 197.727C156.424 197.508 156.107 197.247 155.898 196.945C155.695 196.643 155.594 196.284 155.594 195.867C155.594 195.174 155.885 194.589 156.469 194.109C157.057 193.63 157.807 193.391 158.719 193.391C159.677 193.391 160.453 193.638 161.047 194.133C161.646 194.628 161.945 195.26 161.945 196.031H160.492C160.492 195.635 160.323 195.294 159.984 195.008C159.651 194.721 159.229 194.578 158.719 194.578C158.193 194.578 157.781 194.693 157.484 194.922C157.188 195.151 157.039 195.451 157.039 195.82C157.039 196.169 157.177 196.432 157.453 196.609C157.729 196.786 158.227 196.956 158.945 197.117C159.669 197.279 160.255 197.471 160.703 197.695C161.151 197.919 161.482 198.19 161.695 198.508C161.914 198.82 162.023 199.203 162.023 199.656C162.023 200.411 161.721 201.018 161.117 201.477C160.513 201.93 159.729 202.156 158.766 202.156C158.089 202.156 157.49 202.036 156.969 201.797C156.448 201.557 156.039 201.224 155.742 200.797C155.451 200.365 155.305 199.898 155.305 199.398H156.75C156.776 199.883 156.969 200.268 157.328 200.555C157.693 200.836 158.172 200.977 158.766 200.977C159.312 200.977 159.75 200.867 160.078 200.648C160.411 200.424 160.578 200.128 160.578 199.758ZM175.359 200.008L176.984 193.547H178.43L175.969 202H174.797L172.742 195.594L170.742 202H169.57L167.117 193.547H168.555L170.219 199.875L172.188 193.547H173.352L175.359 200.008ZM181.477 202H180.031V193.547H181.477V202ZM179.914 191.305C179.914 191.07 179.984 190.872 180.125 190.711C180.271 190.549 180.484 190.469 180.766 190.469C181.047 190.469 181.26 190.549 181.406 190.711C181.552 190.872 181.625 191.07 181.625 191.305C181.625 191.539 181.552 191.734 181.406 191.891C181.26 192.047 181.047 192.125 180.766 192.125C180.484 192.125 180.271 192.047 180.125 191.891C179.984 191.734 179.914 191.539 179.914 191.305ZM185.367 202H183.922V190H185.367V202ZM189.258 202H187.812V190H189.258V202ZM200.766 202C200.682 201.833 200.615 201.536 200.562 201.109C199.891 201.807 199.089 202.156 198.156 202.156C197.323 202.156 196.638 201.922 196.102 201.453C195.57 200.979 195.305 200.38 195.305 199.656C195.305 198.776 195.638 198.094 196.305 197.609C196.977 197.12 197.919 196.875 199.133 196.875H200.539V196.211C200.539 195.706 200.388 195.305 200.086 195.008C199.784 194.706 199.339 194.555 198.75 194.555C198.234 194.555 197.802 194.685 197.453 194.945C197.104 195.206 196.93 195.521 196.93 195.891H195.477C195.477 195.469 195.625 195.062 195.922 194.672C196.224 194.276 196.63 193.964 197.141 193.734C197.656 193.505 198.221 193.391 198.836 193.391C199.81 193.391 200.573 193.635 201.125 194.125C201.677 194.609 201.964 195.279 201.984 196.133V200.023C201.984 200.799 202.083 201.417 202.281 201.875V202H200.766ZM198.367 200.898C198.82 200.898 199.25 200.781 199.656 200.547C200.062 200.312 200.357 200.008 200.539 199.633V197.898H199.406C197.635 197.898 196.75 198.417 196.75 199.453C196.75 199.906 196.901 200.26 197.203 200.516C197.505 200.771 197.893 200.898 198.367 200.898ZM211.391 197.867C211.391 199.154 211.096 200.19 210.508 200.977C209.919 201.763 209.122 202.156 208.117 202.156C207.091 202.156 206.284 201.831 205.695 201.18V205.25H204.25V193.547H205.57L205.641 194.484C206.229 193.755 207.047 193.391 208.094 193.391C209.109 193.391 209.911 193.773 210.5 194.539C211.094 195.305 211.391 196.37 211.391 197.734V197.867ZM209.945 197.703C209.945 196.75 209.742 195.997 209.336 195.445C208.93 194.893 208.372 194.617 207.664 194.617C206.789 194.617 206.133 195.005 205.695 195.781V199.82C206.128 200.591 206.789 200.977 207.68 200.977C208.372 200.977 208.922 200.703 209.328 200.156C209.74 199.604 209.945 198.786 209.945 197.703ZM220.375 197.867C220.375 199.154 220.081 200.19 219.492 200.977C218.904 201.763 218.107 202.156 217.102 202.156C216.076 202.156 215.268 201.831 214.68 201.18V205.25H213.234V193.547H214.555L214.625 194.484C215.214 193.755 216.031 193.391 217.078 193.391C218.094 193.391 218.896 193.773 219.484 194.539C220.078 195.305 220.375 196.37 220.375 197.734V197.867ZM218.93 197.703C218.93 196.75 218.727 195.997 218.32 195.445C217.914 194.893 217.357 194.617 216.648 194.617C215.773 194.617 215.117 195.005 214.68 195.781V199.82C215.112 200.591 215.773 200.977 216.664 200.977C217.357 200.977 217.906 200.703 218.312 200.156C218.724 199.604 218.93 198.786 218.93 197.703ZM225.727 202.156C224.581 202.156 223.648 201.781 222.93 201.031C222.211 200.276 221.852 199.268 221.852 198.008V197.742C221.852 196.904 222.01 196.156 222.328 195.5C222.651 194.839 223.099 194.323 223.672 193.953C224.25 193.578 224.875 193.391 225.547 193.391C226.646 193.391 227.5 193.753 228.109 194.477C228.719 195.201 229.023 196.237 229.023 197.586V198.188H223.297C223.318 199.021 223.56 199.695 224.023 200.211C224.492 200.721 225.086 200.977 225.805 200.977C226.315 200.977 226.747 200.872 227.102 200.664C227.456 200.456 227.766 200.18 228.031 199.836L228.914 200.523C228.206 201.612 227.143 202.156 225.727 202.156ZM225.547 194.578C224.964 194.578 224.474 194.792 224.078 195.219C223.682 195.641 223.438 196.234 223.344 197H227.578V196.891C227.536 196.156 227.339 195.589 226.984 195.188C226.63 194.781 226.151 194.578 225.547 194.578ZM235.922 202C235.839 201.833 235.771 201.536 235.719 201.109C235.047 201.807 234.245 202.156 233.312 202.156C232.479 202.156 231.794 201.922 231.258 201.453C230.727 200.979 230.461 200.38 230.461 199.656C230.461 198.776 230.794 198.094 231.461 197.609C232.133 197.12 233.076 196.875 234.289 196.875H235.695V196.211C235.695 195.706 235.544 195.305 235.242 195.008C234.94 194.706 234.495 194.555 233.906 194.555C233.391 194.555 232.958 194.685 232.609 194.945C232.26 195.206 232.086 195.521 232.086 195.891H230.633C230.633 195.469 230.781 195.062 231.078 194.672C231.38 194.276 231.786 193.964 232.297 193.734C232.812 193.505 233.378 193.391 233.992 193.391C234.966 193.391 235.729 193.635 236.281 194.125C236.833 194.609 237.12 195.279 237.141 196.133V200.023C237.141 200.799 237.24 201.417 237.438 201.875V202H235.922ZM233.523 200.898C233.977 200.898 234.406 200.781 234.812 200.547C235.219 200.312 235.513 200.008 235.695 199.633V197.898H234.562C232.792 197.898 231.906 198.417 231.906 199.453C231.906 199.906 232.057 200.26 232.359 200.516C232.661 200.771 233.049 200.898 233.523 200.898ZM243.492 194.844C243.273 194.807 243.036 194.789 242.781 194.789C241.833 194.789 241.19 195.193 240.852 196V202H239.406V193.547H240.812L240.836 194.523C241.31 193.768 241.982 193.391 242.852 193.391C243.133 193.391 243.346 193.427 243.492 193.5V194.844ZM250.242 194.57C250.883 193.784 251.716 193.391 252.742 193.391C254.529 193.391 255.43 194.398 255.445 196.414V202H254V196.406C253.995 195.797 253.854 195.346 253.578 195.055C253.307 194.763 252.883 194.617 252.305 194.617C251.836 194.617 251.424 194.742 251.07 194.992C250.716 195.242 250.44 195.57 250.242 195.977V202H248.797V190H250.242V194.57ZM261.117 202.156C259.971 202.156 259.039 201.781 258.32 201.031C257.602 200.276 257.242 199.268 257.242 198.008V197.742C257.242 196.904 257.401 196.156 257.719 195.5C258.042 194.839 258.49 194.323 259.062 193.953C259.641 193.578 260.266 193.391 260.938 193.391C262.036 193.391 262.891 193.753 263.5 194.477C264.109 195.201 264.414 196.237 264.414 197.586V198.188H258.688C258.708 199.021 258.951 199.695 259.414 200.211C259.883 200.721 260.477 200.977 261.195 200.977C261.706 200.977 262.138 200.872 262.492 200.664C262.846 200.456 263.156 200.18 263.422 199.836L264.305 200.523C263.596 201.612 262.534 202.156 261.117 202.156ZM260.938 194.578C260.354 194.578 259.865 194.792 259.469 195.219C259.073 195.641 258.828 196.234 258.734 197H262.969V196.891C262.927 196.156 262.729 195.589 262.375 195.188C262.021 194.781 261.542 194.578 260.938 194.578ZM270.18 194.844C269.961 194.807 269.724 194.789 269.469 194.789C268.521 194.789 267.878 195.193 267.539 196V202H266.094V193.547H267.5L267.523 194.523C267.997 193.768 268.669 193.391 269.539 193.391C269.82 193.391 270.034 193.427 270.18 193.5V194.844ZM274.867 202.156C273.721 202.156 272.789 201.781 272.07 201.031C271.352 200.276 270.992 199.268 270.992 198.008V197.742C270.992 196.904 271.151 196.156 271.469 195.5C271.792 194.839 272.24 194.323 272.812 193.953C273.391 193.578 274.016 193.391 274.688 193.391C275.786 193.391 276.641 193.753 277.25 194.477C277.859 195.201 278.164 196.237 278.164 197.586V198.188H272.438C272.458 199.021 272.701 199.695 273.164 200.211C273.633 200.721 274.227 200.977 274.945 200.977C275.456 200.977 275.888 200.872 276.242 200.664C276.596 200.456 276.906 200.18 277.172 199.836L278.055 200.523C277.346 201.612 276.284 202.156 274.867 202.156ZM274.688 194.578C274.104 194.578 273.615 194.792 273.219 195.219C272.823 195.641 272.578 196.234 272.484 197H276.719V196.891C276.677 196.156 276.479 195.589 276.125 195.188C275.771 194.781 275.292 194.578 274.688 194.578Z" fill="#FF5656" fill-opacity="0.6"/>
<path fill-rule="evenodd" clip-rule="evenodd" d="M173.852 56.305L171.379 54.8532L170.581 54.385L170.219 55.2356L169.927 55.9206C168.766 58.6448 166.46 60.337 163.907 60.337C161.354 60.337 159.047 58.6448 157.887 55.921L157.595 55.236L157.233 54.385L156.435 54.8532L153.962 56.305L153.345 56.6675L153.625 57.3256L153.917 58.0102C155.808 62.4515 159.635 65.2102 163.907 65.2102C168.177 65.2102 172.005 62.4515 173.897 58.0102L174.189 57.326L174.469 56.6675L173.852 56.305ZM146.326 54.8532L145.529 54.385L145.166 55.2356L144.874 55.9206C143.714 58.6448 141.407 60.337 138.854 60.337C136.301 60.337 133.995 58.6448 132.835 55.921L132.543 55.236L132.18 54.385L131.383 54.8532L128.909 56.305L128.292 56.6675L128.573 57.3256L128.864 58.0102C130.755 62.4515 134.583 65.2102 138.854 65.2102C143.125 65.2102 146.953 62.4515 148.844 58.0102L149.136 57.326L149.417 56.6675L148.8 56.305L146.326 54.8532Z" fill="#FF5656"/>
<path fill-rule="evenodd" clip-rule="evenodd" d="M151.788 79.3685C149.648 79.3685 147.914 81.103 147.914 83.2423C147.914 85.3815 149.648 87.1152 151.788 87.1152C153.926 87.1152 155.66 85.3815 155.66 83.2423C155.66 81.103 153.926 79.3685 151.788 79.3685" fill="#FF5656"/>
<path fill-rule="evenodd" clip-rule="evenodd" d="M222.865 40.59V43.3272H211.917V41.1831L218.167 33.7923H212.077V31.0551H222.661V33.1992L216.411 40.59H222.865Z" fill="#FF5656"/>
<path fill-rule="evenodd" clip-rule="evenodd" d="M217.389 16.1361L217.391 20.7681L198.862 20.7759L198.861 17.1474L209.433 4.63525L199.126 4.63932L199.124 0.00732203L217.037 0L217.038 3.62807L206.466 16.1406L217.389 16.1361Z" fill="#FF5656"/>
<path fill-rule="evenodd" clip-rule="evenodd" d="M118.983 38.6129C114.656 38.6129 111.136 42.136 111.136 46.4662L112.124 116.746L122.654 103.238C123.424 102.249 124.608 101.671 125.862 101.671H186.718C191.045 101.671 194.565 98.152 194.565 93.8263L193.576 46.4662C193.576 42.136 190.056 38.6129 185.729 38.6129H118.983ZM108.056 132.65C107.614 132.65 107.168 132.578 106.734 132.428C105.092 131.864 103.989 130.319 103.989 128.582L103 46.4662C103 37.65 110.17 30.4773 118.983 30.4773H185.729C194.543 30.4773 201.712 37.65 201.712 46.4662L202.701 93.8263C202.701 102.638 195.531 109.807 186.718 109.807H127.849L111.265 131.082C110.479 132.09 109.286 132.65 108.056 132.65V132.65Z" fill="#FF5656" fill-opacity="0.3"/>
<path d="M111.136 46.4662H110.636L110.636 46.4732L111.136 46.4662ZM112.124 116.746L111.625 116.753L111.645 118.175L112.519 117.054L112.124 116.746ZM122.654 103.238L122.259 102.931L122.259 102.931L122.654 103.238ZM194.565 93.8263H195.065L195.065 93.8159L194.565 93.8263ZM193.576 46.4662H193.076L193.077 46.4766L193.576 46.4662ZM106.734 132.428L106.897 131.956L106.897 131.956L106.734 132.428ZM103.989 128.582H104.489L104.489 128.576L103.989 128.582ZM103 46.4662L102.5 46.4662L102.5 46.4722L103 46.4662ZM201.712 46.4662H201.212L201.212 46.4766L201.712 46.4662ZM202.701 93.8263H203.201L203.201 93.8159L202.701 93.8263ZM127.849 109.807V109.307H127.604L127.454 109.499L127.849 109.807ZM111.265 131.082L111.659 131.39L111.659 131.39L111.265 131.082ZM118.983 38.1129C114.379 38.1129 110.636 41.8602 110.636 46.4662H111.636C111.636 42.4118 114.932 39.1129 118.983 39.1129V38.1129ZM110.636 46.4732L111.625 116.753L112.624 116.739L111.636 46.4591L110.636 46.4732ZM112.519 117.054L123.048 103.545L122.259 102.931L111.73 116.439L112.519 117.054ZM123.048 103.545C123.724 102.678 124.762 102.171 125.862 102.171V101.171C124.454 101.171 123.125 101.82 122.259 102.931L123.048 103.545ZM125.862 102.171H186.718V101.171H125.862V102.171ZM186.718 102.171C191.321 102.171 195.065 98.4283 195.065 93.8263H194.065C194.065 97.8757 190.769 101.171 186.718 101.171V102.171ZM195.065 93.8159L194.076 46.4557L193.077 46.4766L194.065 93.8368L195.065 93.8159ZM194.076 46.4662C194.076 41.8602 190.333 38.1129 185.729 38.1129V39.1129C189.78 39.1129 193.076 42.4118 193.076 46.4662H194.076ZM185.729 38.1129H118.983V39.1129H185.729V38.1129ZM108.056 132.15C107.669 132.15 107.278 132.087 106.897 131.956L106.572 132.901C107.059 133.069 107.56 133.15 108.056 133.15V132.15ZM106.897 131.956C105.456 131.461 104.489 130.105 104.489 128.582H103.489C103.489 130.532 104.727 132.268 106.572 132.901L106.897 131.956ZM104.489 128.576L103.5 46.4602L102.5 46.4722L103.489 128.588L104.489 128.576ZM103.5 46.4662C103.5 37.926 110.446 30.9773 118.983 30.9773V29.9773C109.894 29.9773 102.5 37.3741 102.5 46.4662H103.5ZM118.983 30.9773H185.729V29.9773H118.983V30.9773ZM185.729 30.9773C194.266 30.9773 201.212 37.926 201.212 46.4662H202.212C202.212 37.3741 194.819 29.9773 185.729 29.9773V30.9773ZM201.212 46.4766L202.201 93.8368L203.201 93.8159L202.212 46.4557L201.212 46.4766ZM202.201 93.8263C202.201 102.362 195.255 109.307 186.718 109.307V110.307C195.807 110.307 203.201 102.914 203.201 93.8263H202.201ZM186.718 109.307H127.849V110.307H186.718V109.307ZM127.454 109.499L110.871 130.775L111.659 131.39L128.243 110.114L127.454 109.499ZM110.871 130.775C110.181 131.659 109.135 132.15 108.056 132.15V133.15C109.437 133.15 110.777 132.522 111.659 131.39L110.871 130.775Z" fill="#FF5656"/>
</svg>
