<svg width="304" height="219" viewBox="0 0 304 219" fill="none" xmlns="http://www.w3.org/2000/svg">
<path d="M108.914 188H107.406L101.68 179.234V188H100.172V176.625H101.68L107.422 185.43V176.625H108.914V188ZM110.969 183.695C110.969 182.867 111.13 182.122 111.453 181.461C111.781 180.799 112.234 180.289 112.812 179.93C113.396 179.57 114.06 179.391 114.805 179.391C115.956 179.391 116.885 179.789 117.594 180.586C118.307 181.383 118.664 182.443 118.664 183.766V183.867C118.664 184.69 118.505 185.43 118.188 186.086C117.875 186.737 117.424 187.245 116.836 187.609C116.253 187.974 115.581 188.156 114.82 188.156C113.674 188.156 112.745 187.758 112.031 186.961C111.323 186.164 110.969 185.109 110.969 183.797V183.695ZM112.422 183.867C112.422 184.805 112.638 185.557 113.07 186.125C113.508 186.693 114.091 186.977 114.82 186.977C115.555 186.977 116.138 186.69 116.57 186.117C117.003 185.539 117.219 184.732 117.219 183.695C117.219 182.768 116.997 182.018 116.555 181.445C116.117 180.867 115.534 180.578 114.805 180.578C114.091 180.578 113.516 180.862 113.078 181.43C112.641 181.997 112.422 182.81 112.422 183.867ZM125.812 179.547L125.859 180.609C126.505 179.797 127.349 179.391 128.391 179.391C130.177 179.391 131.078 180.398 131.094 182.414V188H129.648V182.406C129.643 181.797 129.503 181.346 129.227 181.055C128.956 180.763 128.531 180.617 127.953 180.617C127.484 180.617 127.073 180.742 126.719 180.992C126.365 181.242 126.089 181.57 125.891 181.977V188H124.445V179.547H125.812ZM136.781 188.156C135.635 188.156 134.703 187.781 133.984 187.031C133.266 186.276 132.906 185.268 132.906 184.008V183.742C132.906 182.904 133.065 182.156 133.383 181.5C133.706 180.839 134.154 180.323 134.727 179.953C135.305 179.578 135.93 179.391 136.602 179.391C137.701 179.391 138.555 179.753 139.164 180.477C139.773 181.201 140.078 182.237 140.078 183.586V184.188H134.352C134.372 185.021 134.615 185.695 135.078 186.211C135.547 186.721 136.141 186.977 136.859 186.977C137.37 186.977 137.802 186.872 138.156 186.664C138.51 186.456 138.82 186.18 139.086 185.836L139.969 186.523C139.26 187.612 138.198 188.156 136.781 188.156ZM136.602 180.578C136.018 180.578 135.529 180.792 135.133 181.219C134.737 181.641 134.492 182.234 134.398 183H138.633V182.891C138.591 182.156 138.393 181.589 138.039 181.188C137.685 180.781 137.206 180.578 136.602 180.578ZM149.242 186.008L150.867 179.547H152.312L149.852 188H148.68L146.625 181.594L144.625 188H143.453L141 179.547H142.438L144.102 185.875L146.07 179.547H147.234L149.242 186.008ZM167.023 182.57C167.023 183.69 166.826 184.672 166.43 185.516C166.034 186.359 165.466 187.01 164.727 187.469C163.992 187.927 163.148 188.156 162.195 188.156C161.253 188.156 160.411 187.93 159.672 187.477C158.932 187.023 158.359 186.378 157.953 185.539C157.547 184.695 157.341 183.727 157.336 182.633V182.07C157.336 180.951 157.536 179.966 157.938 179.117C158.344 178.263 158.914 177.609 159.648 177.156C160.388 176.698 161.232 176.469 162.18 176.469C163.128 176.469 163.969 176.698 164.703 177.156C165.443 177.609 166.013 178.263 166.414 179.117C166.82 179.966 167.023 180.948 167.023 182.062V182.57ZM164.648 182.055C164.648 180.862 164.435 179.956 164.008 179.336C163.581 178.716 162.971 178.406 162.18 178.406C161.393 178.406 160.786 178.714 160.359 179.328C159.932 179.938 159.716 180.833 159.711 182.016V182.57C159.711 183.732 159.924 184.633 160.352 185.273C160.779 185.914 161.393 186.234 162.195 186.234C162.982 186.234 163.586 185.927 164.008 185.312C164.43 184.693 164.643 183.792 164.648 182.609V182.055ZM173.328 181.664C173.021 181.622 172.75 181.602 172.516 181.602C171.661 181.602 171.102 181.891 170.836 182.469V188H168.578V179.547H170.711L170.773 180.555C171.227 179.779 171.854 179.391 172.656 179.391C172.906 179.391 173.141 179.424 173.359 179.492L173.328 181.664ZM173.914 183.711C173.914 182.393 174.208 181.344 174.797 180.562C175.391 179.781 176.201 179.391 177.227 179.391C178.049 179.391 178.729 179.698 179.266 180.312V176H181.531V188H179.492L179.383 187.102C178.82 187.805 178.096 188.156 177.211 188.156C176.216 188.156 175.417 187.766 174.812 186.984C174.214 186.198 173.914 185.107 173.914 183.711ZM176.172 183.875C176.172 184.667 176.31 185.273 176.586 185.695C176.862 186.117 177.263 186.328 177.789 186.328C178.487 186.328 178.979 186.034 179.266 185.445V182.109C178.984 181.521 178.497 181.227 177.805 181.227C176.716 181.227 176.172 182.109 176.172 183.875ZM187.172 188.156C185.932 188.156 184.922 187.776 184.141 187.016C183.365 186.255 182.977 185.242 182.977 183.977V183.758C182.977 182.909 183.141 182.151 183.469 181.484C183.797 180.812 184.26 180.297 184.859 179.938C185.464 179.573 186.151 179.391 186.922 179.391C188.078 179.391 188.987 179.755 189.648 180.484C190.315 181.214 190.648 182.247 190.648 183.586V184.508H185.266C185.339 185.06 185.557 185.503 185.922 185.836C186.292 186.169 186.758 186.336 187.32 186.336C188.19 186.336 188.87 186.021 189.359 185.391L190.469 186.633C190.13 187.112 189.672 187.487 189.094 187.758C188.516 188.023 187.875 188.156 187.172 188.156ZM186.914 181.219C186.466 181.219 186.102 181.37 185.82 181.672C185.544 181.974 185.367 182.406 185.289 182.969H188.43V182.789C188.419 182.289 188.284 181.904 188.023 181.633C187.763 181.357 187.393 181.219 186.914 181.219ZM196.688 181.664C196.38 181.622 196.109 181.602 195.875 181.602C195.021 181.602 194.461 181.891 194.195 182.469V188H191.938V179.547H194.07L194.133 180.555C194.586 179.779 195.214 179.391 196.016 179.391C196.266 179.391 196.5 179.424 196.719 179.492L196.688 181.664ZM202.359 185.664C202.359 185.388 202.221 185.172 201.945 185.016C201.674 184.854 201.237 184.711 200.633 184.586C198.622 184.164 197.617 183.31 197.617 182.023C197.617 181.273 197.927 180.648 198.547 180.148C199.172 179.643 199.987 179.391 200.992 179.391C202.065 179.391 202.922 179.643 203.562 180.148C204.208 180.654 204.531 181.31 204.531 182.117H202.273C202.273 181.794 202.169 181.529 201.961 181.32C201.753 181.107 201.427 181 200.984 181C200.604 181 200.31 181.086 200.102 181.258C199.893 181.43 199.789 181.648 199.789 181.914C199.789 182.164 199.906 182.367 200.141 182.523C200.38 182.674 200.781 182.807 201.344 182.922C201.906 183.031 202.38 183.156 202.766 183.297C203.958 183.734 204.555 184.492 204.555 185.57C204.555 186.341 204.224 186.966 203.562 187.445C202.901 187.919 202.047 188.156 201 188.156C200.292 188.156 199.661 188.031 199.109 187.781C198.562 187.526 198.133 187.18 197.82 186.742C197.508 186.299 197.352 185.823 197.352 185.312H199.492C199.513 185.714 199.661 186.021 199.938 186.234C200.214 186.448 200.583 186.555 201.047 186.555C201.479 186.555 201.805 186.474 202.023 186.312C202.247 186.146 202.359 185.93 202.359 185.664ZM45.8438 209.031H41.0781L40.0078 212H38.4609L42.8047 200.625H44.1172L48.4688 212H46.9297L45.8438 209.031ZM41.5312 207.797H45.3984L43.4609 202.477L41.5312 207.797ZM51.1406 203.547L51.1875 204.609C51.8333 203.797 52.6771 203.391 53.7188 203.391C55.5052 203.391 56.4062 204.398 56.4219 206.414V212H54.9766V206.406C54.9714 205.797 54.8307 205.346 54.5547 205.055C54.2839 204.763 53.8594 204.617 53.2812 204.617C52.8125 204.617 52.401 204.742 52.0469 204.992C51.6927 205.242 51.4167 205.57 51.2188 205.977V212H49.7734V203.547H51.1406ZM61.3672 209.883L63.3359 203.547H64.8828L61.4844 213.305C60.9583 214.711 60.1224 215.414 58.9766 215.414L58.7031 215.391L58.1641 215.289V214.117L58.5547 214.148C59.0443 214.148 59.4245 214.049 59.6953 213.852C59.9714 213.654 60.1979 213.292 60.375 212.766L60.6953 211.906L57.6797 203.547H59.2578L61.3672 209.883ZM71.5156 203.547L71.5625 204.609C72.2083 203.797 73.0521 203.391 74.0938 203.391C75.8802 203.391 76.7812 204.398 76.7969 206.414V212H75.3516V206.406C75.3464 205.797 75.2057 205.346 74.9297 205.055C74.6589 204.763 74.2344 204.617 73.6562 204.617C73.1875 204.617 72.776 204.742 72.4219 204.992C72.0677 205.242 71.7917 205.57 71.5938 205.977V212H70.1484V203.547H71.5156ZM82.4844 212.156C81.3385 212.156 80.4062 211.781 79.6875 211.031C78.9688 210.276 78.6094 209.268 78.6094 208.008V207.742C78.6094 206.904 78.7682 206.156 79.0859 205.5C79.4089 204.839 79.8568 204.323 80.4297 203.953C81.0078 203.578 81.6328 203.391 82.3047 203.391C83.4036 203.391 84.2578 203.753 84.8672 204.477C85.4766 205.201 85.7812 206.237 85.7812 207.586V208.188H80.0547C80.0755 209.021 80.3177 209.695 80.7812 210.211C81.25 210.721 81.8438 210.977 82.5625 210.977C83.0729 210.977 83.5052 210.872 83.8594 210.664C84.2135 210.456 84.5234 210.18 84.7891 209.836L85.6719 210.523C84.9635 211.612 83.901 212.156 82.4844 212.156ZM82.3047 204.578C81.7214 204.578 81.2318 204.792 80.8359 205.219C80.4401 205.641 80.1953 206.234 80.1016 207H84.3359V206.891C84.2943 206.156 84.0964 205.589 83.7422 205.188C83.388 204.781 82.9089 204.578 82.3047 204.578ZM94.9453 210.008L96.5703 203.547H98.0156L95.5547 212H94.3828L92.3281 205.594L90.3281 212H89.1562L86.7031 203.547H88.1406L89.8047 209.875L91.7734 203.547H92.9375L94.9453 210.008ZM112.438 206.68C112.438 207.794 112.25 208.768 111.875 209.602C111.5 210.43 110.969 211.062 110.281 211.5C109.594 211.938 108.792 212.156 107.875 212.156C106.979 212.156 106.185 211.938 105.492 211.5C104.799 211.057 104.26 210.43 103.875 209.617C103.495 208.799 103.299 207.854 103.289 206.781V205.961C103.289 204.867 103.479 203.901 103.859 203.062C104.24 202.224 104.776 201.583 105.469 201.141C106.167 200.693 106.964 200.469 107.859 200.469C108.771 200.469 109.573 200.69 110.266 201.133C110.964 201.57 111.5 202.208 111.875 203.047C112.25 203.88 112.438 204.852 112.438 205.961V206.68ZM110.945 205.945C110.945 204.596 110.674 203.562 110.133 202.844C109.591 202.12 108.833 201.758 107.859 201.758C106.911 201.758 106.164 202.12 105.617 202.844C105.076 203.562 104.797 204.562 104.781 205.844V206.68C104.781 207.987 105.055 209.016 105.602 209.766C106.154 210.51 106.911 210.883 107.875 210.883C108.844 210.883 109.594 210.531 110.125 209.828C110.656 209.12 110.93 208.107 110.945 206.789V205.945ZM118.547 204.844C118.328 204.807 118.091 204.789 117.836 204.789C116.888 204.789 116.245 205.193 115.906 206V212H114.461V203.547H115.867L115.891 204.523C116.365 203.768 117.036 203.391 117.906 203.391C118.188 203.391 118.401 203.427 118.547 203.5V204.844ZM119.375 207.703C119.375 206.406 119.682 205.365 120.297 204.578C120.911 203.786 121.716 203.391 122.711 203.391C123.701 203.391 124.484 203.729 125.062 204.406V200H126.508V212H125.18L125.109 211.094C124.531 211.802 123.727 212.156 122.695 212.156C121.716 212.156 120.917 211.755 120.297 210.953C119.682 210.151 119.375 209.104 119.375 207.812V207.703ZM120.82 207.867C120.82 208.826 121.018 209.576 121.414 210.117C121.81 210.659 122.357 210.93 123.055 210.93C123.971 210.93 124.641 210.518 125.062 209.695V205.812C124.63 205.016 123.966 204.617 123.07 204.617C122.362 204.617 121.81 204.891 121.414 205.438C121.018 205.984 120.82 206.794 120.82 207.867ZM132.266 212.156C131.12 212.156 130.188 211.781 129.469 211.031C128.75 210.276 128.391 209.268 128.391 208.008V207.742C128.391 206.904 128.549 206.156 128.867 205.5C129.19 204.839 129.638 204.323 130.211 203.953C130.789 203.578 131.414 203.391 132.086 203.391C133.185 203.391 134.039 203.753 134.648 204.477C135.258 205.201 135.562 206.237 135.562 207.586V208.188H129.836C129.857 209.021 130.099 209.695 130.562 210.211C131.031 210.721 131.625 210.977 132.344 210.977C132.854 210.977 133.286 210.872 133.641 210.664C133.995 210.456 134.305 210.18 134.57 209.836L135.453 210.523C134.745 211.612 133.682 212.156 132.266 212.156ZM132.086 204.578C131.503 204.578 131.013 204.792 130.617 205.219C130.221 205.641 129.977 206.234 129.883 207H134.117V206.891C134.076 206.156 133.878 205.589 133.523 205.188C133.169 204.781 132.69 204.578 132.086 204.578ZM141.328 204.844C141.109 204.807 140.872 204.789 140.617 204.789C139.669 204.789 139.026 205.193 138.688 206V212H137.242V203.547H138.648L138.672 204.523C139.146 203.768 139.818 203.391 140.688 203.391C140.969 203.391 141.182 203.427 141.328 203.5V204.844ZM147.586 209.758C147.586 209.367 147.438 209.065 147.141 208.852C146.849 208.633 146.336 208.445 145.602 208.289C144.872 208.133 144.292 207.945 143.859 207.727C143.432 207.508 143.115 207.247 142.906 206.945C142.703 206.643 142.602 206.284 142.602 205.867C142.602 205.174 142.893 204.589 143.477 204.109C144.065 203.63 144.815 203.391 145.727 203.391C146.685 203.391 147.461 203.638 148.055 204.133C148.654 204.628 148.953 205.26 148.953 206.031H147.5C147.5 205.635 147.331 205.294 146.992 205.008C146.659 204.721 146.237 204.578 145.727 204.578C145.201 204.578 144.789 204.693 144.492 204.922C144.195 205.151 144.047 205.451 144.047 205.82C144.047 206.169 144.185 206.432 144.461 206.609C144.737 206.786 145.234 206.956 145.953 207.117C146.677 207.279 147.263 207.471 147.711 207.695C148.159 207.919 148.49 208.19 148.703 208.508C148.922 208.82 149.031 209.203 149.031 209.656C149.031 210.411 148.729 211.018 148.125 211.477C147.521 211.93 146.737 212.156 145.773 212.156C145.096 212.156 144.497 212.036 143.977 211.797C143.456 211.557 143.047 211.224 142.75 210.797C142.458 210.365 142.312 209.898 142.312 209.398H143.758C143.784 209.883 143.977 210.268 144.336 210.555C144.701 210.836 145.18 210.977 145.773 210.977C146.32 210.977 146.758 210.867 147.086 210.648C147.419 210.424 147.586 210.128 147.586 209.758ZM162.367 210.008L163.992 203.547H165.438L162.977 212H161.805L159.75 205.594L157.75 212H156.578L154.125 203.547H155.562L157.227 209.875L159.195 203.547H160.359L162.367 210.008ZM168.484 212H167.039V203.547H168.484V212ZM166.922 201.305C166.922 201.07 166.992 200.872 167.133 200.711C167.279 200.549 167.492 200.469 167.773 200.469C168.055 200.469 168.268 200.549 168.414 200.711C168.56 200.872 168.633 201.07 168.633 201.305C168.633 201.539 168.56 201.734 168.414 201.891C168.268 202.047 168.055 202.125 167.773 202.125C167.492 202.125 167.279 202.047 167.133 201.891C166.992 201.734 166.922 201.539 166.922 201.305ZM172.375 212H170.93V200H172.375V212ZM176.266 212H174.82V200H176.266V212ZM187.773 212C187.69 211.833 187.622 211.536 187.57 211.109C186.898 211.807 186.096 212.156 185.164 212.156C184.331 212.156 183.646 211.922 183.109 211.453C182.578 210.979 182.312 210.38 182.312 209.656C182.312 208.776 182.646 208.094 183.312 207.609C183.984 207.12 184.927 206.875 186.141 206.875H187.547V206.211C187.547 205.706 187.396 205.305 187.094 205.008C186.792 204.706 186.346 204.555 185.758 204.555C185.242 204.555 184.81 204.685 184.461 204.945C184.112 205.206 183.938 205.521 183.938 205.891H182.484C182.484 205.469 182.633 205.062 182.93 204.672C183.232 204.276 183.638 203.964 184.148 203.734C184.664 203.505 185.229 203.391 185.844 203.391C186.818 203.391 187.581 203.635 188.133 204.125C188.685 204.609 188.971 205.279 188.992 206.133V210.023C188.992 210.799 189.091 211.417 189.289 211.875V212H187.773ZM185.375 210.898C185.828 210.898 186.258 210.781 186.664 210.547C187.07 210.312 187.365 210.008 187.547 209.633V207.898H186.414C184.643 207.898 183.758 208.417 183.758 209.453C183.758 209.906 183.909 210.26 184.211 210.516C184.513 210.771 184.901 210.898 185.375 210.898ZM198.398 207.867C198.398 209.154 198.104 210.19 197.516 210.977C196.927 211.763 196.13 212.156 195.125 212.156C194.099 212.156 193.292 211.831 192.703 211.18V215.25H191.258V203.547H192.578L192.648 204.484C193.237 203.755 194.055 203.391 195.102 203.391C196.117 203.391 196.919 203.773 197.508 204.539C198.102 205.305 198.398 206.37 198.398 207.734V207.867ZM196.953 207.703C196.953 206.75 196.75 205.997 196.344 205.445C195.938 204.893 195.38 204.617 194.672 204.617C193.797 204.617 193.141 205.005 192.703 205.781V209.82C193.135 210.591 193.797 210.977 194.688 210.977C195.38 210.977 195.93 210.703 196.336 210.156C196.747 209.604 196.953 208.786 196.953 207.703ZM207.383 207.867C207.383 209.154 207.089 210.19 206.5 210.977C205.911 211.763 205.115 212.156 204.109 212.156C203.083 212.156 202.276 211.831 201.688 211.18V215.25H200.242V203.547H201.562L201.633 204.484C202.221 203.755 203.039 203.391 204.086 203.391C205.102 203.391 205.904 203.773 206.492 204.539C207.086 205.305 207.383 206.37 207.383 207.734V207.867ZM205.938 207.703C205.938 206.75 205.734 205.997 205.328 205.445C204.922 204.893 204.365 204.617 203.656 204.617C202.781 204.617 202.125 205.005 201.688 205.781V209.82C202.12 210.591 202.781 210.977 203.672 210.977C204.365 210.977 204.914 210.703 205.32 210.156C205.732 209.604 205.938 208.786 205.938 207.703ZM212.734 212.156C211.589 212.156 210.656 211.781 209.938 211.031C209.219 210.276 208.859 209.268 208.859 208.008V207.742C208.859 206.904 209.018 206.156 209.336 205.5C209.659 204.839 210.107 204.323 210.68 203.953C211.258 203.578 211.883 203.391 212.555 203.391C213.654 203.391 214.508 203.753 215.117 204.477C215.727 205.201 216.031 206.237 216.031 207.586V208.188H210.305C210.326 209.021 210.568 209.695 211.031 210.211C211.5 210.721 212.094 210.977 212.812 210.977C213.323 210.977 213.755 210.872 214.109 210.664C214.464 210.456 214.773 210.18 215.039 209.836L215.922 210.523C215.214 211.612 214.151 212.156 212.734 212.156ZM212.555 204.578C211.971 204.578 211.482 204.792 211.086 205.219C210.69 205.641 210.445 206.234 210.352 207H214.586V206.891C214.544 206.156 214.346 205.589 213.992 205.188C213.638 204.781 213.159 204.578 212.555 204.578ZM222.93 212C222.846 211.833 222.779 211.536 222.727 211.109C222.055 211.807 221.253 212.156 220.32 212.156C219.487 212.156 218.802 211.922 218.266 211.453C217.734 210.979 217.469 210.38 217.469 209.656C217.469 208.776 217.802 208.094 218.469 207.609C219.141 207.12 220.083 206.875 221.297 206.875H222.703V206.211C222.703 205.706 222.552 205.305 222.25 205.008C221.948 204.706 221.503 204.555 220.914 204.555C220.398 204.555 219.966 204.685 219.617 204.945C219.268 205.206 219.094 205.521 219.094 205.891H217.641C217.641 205.469 217.789 205.062 218.086 204.672C218.388 204.276 218.794 203.964 219.305 203.734C219.82 203.505 220.385 203.391 221 203.391C221.974 203.391 222.737 203.635 223.289 204.125C223.841 204.609 224.128 205.279 224.148 206.133V210.023C224.148 210.799 224.247 211.417 224.445 211.875V212H222.93ZM220.531 210.898C220.984 210.898 221.414 210.781 221.82 210.547C222.227 210.312 222.521 210.008 222.703 209.633V207.898H221.57C219.799 207.898 218.914 208.417 218.914 209.453C218.914 209.906 219.065 210.26 219.367 210.516C219.669 210.771 220.057 210.898 220.531 210.898ZM230.5 204.844C230.281 204.807 230.044 204.789 229.789 204.789C228.841 204.789 228.198 205.193 227.859 206V212H226.414V203.547H227.82L227.844 204.523C228.318 203.768 228.99 203.391 229.859 203.391C230.141 203.391 230.354 203.427 230.5 203.5V204.844ZM237.25 204.57C237.891 203.784 238.724 203.391 239.75 203.391C241.536 203.391 242.438 204.398 242.453 206.414V212H241.008V206.406C241.003 205.797 240.862 205.346 240.586 205.055C240.315 204.763 239.891 204.617 239.312 204.617C238.844 204.617 238.432 204.742 238.078 204.992C237.724 205.242 237.448 205.57 237.25 205.977V212H235.805V200H237.25V204.57ZM248.125 212.156C246.979 212.156 246.047 211.781 245.328 211.031C244.609 210.276 244.25 209.268 244.25 208.008V207.742C244.25 206.904 244.409 206.156 244.727 205.5C245.049 204.839 245.497 204.323 246.07 203.953C246.648 203.578 247.273 203.391 247.945 203.391C249.044 203.391 249.898 203.753 250.508 204.477C251.117 205.201 251.422 206.237 251.422 207.586V208.188H245.695C245.716 209.021 245.958 209.695 246.422 210.211C246.891 210.721 247.484 210.977 248.203 210.977C248.714 210.977 249.146 210.872 249.5 210.664C249.854 210.456 250.164 210.18 250.43 209.836L251.312 210.523C250.604 211.612 249.542 212.156 248.125 212.156ZM247.945 204.578C247.362 204.578 246.872 204.792 246.477 205.219C246.081 205.641 245.836 206.234 245.742 207H249.977V206.891C249.935 206.156 249.737 205.589 249.383 205.188C249.029 204.781 248.549 204.578 247.945 204.578ZM257.188 204.844C256.969 204.807 256.732 204.789 256.477 204.789C255.529 204.789 254.885 205.193 254.547 206V212H253.102V203.547H254.508L254.531 204.523C255.005 203.768 255.677 203.391 256.547 203.391C256.828 203.391 257.042 203.427 257.188 203.5V204.844ZM261.875 212.156C260.729 212.156 259.797 211.781 259.078 211.031C258.359 210.276 258 209.268 258 208.008V207.742C258 206.904 258.159 206.156 258.477 205.5C258.799 204.839 259.247 204.323 259.82 203.953C260.398 203.578 261.023 203.391 261.695 203.391C262.794 203.391 263.648 203.753 264.258 204.477C264.867 205.201 265.172 206.237 265.172 207.586V208.188H259.445C259.466 209.021 259.708 209.695 260.172 210.211C260.641 210.721 261.234 210.977 261.953 210.977C262.464 210.977 262.896 210.872 263.25 210.664C263.604 210.456 263.914 210.18 264.18 209.836L265.062 210.523C264.354 211.612 263.292 212.156 261.875 212.156ZM261.695 204.578C261.112 204.578 260.622 204.792 260.227 205.219C259.831 205.641 259.586 206.234 259.492 207H263.727V206.891C263.685 206.156 263.487 205.589 263.133 205.188C262.779 204.781 262.299 204.578 261.695 204.578Z" fill="#FF5656" fill-opacity="0.6"/>
<path fill-rule="evenodd" clip-rule="evenodd" d="M177.791 73.0372L174.941 71.3642L174.022 70.8247L173.604 71.8048L173.267 72.5938C171.93 75.733 169.272 77.683 166.33 77.683C163.388 77.683 160.73 75.733 159.394 72.5942L159.057 71.8053L158.64 70.8242L157.72 71.3642L154.87 73.0372L154.159 73.4548L154.482 74.2133L154.818 75.0022C156.998 80.1195 161.409 83.2991 166.33 83.2991C171.252 83.2991 175.663 80.1195 177.842 75.0017L178.179 74.2133L178.502 73.4548L177.791 73.0372ZM146.071 71.3642L145.152 70.8247L144.734 71.8048L144.398 72.5938C143.061 75.733 140.402 77.683 137.461 77.683C134.519 77.683 131.861 75.733 130.524 72.5942L130.188 71.8053L129.771 70.8242L128.851 71.3642L126.001 73.0372L125.29 73.4548L125.613 74.2133L125.949 75.0022C128.128 80.1195 132.539 83.2991 137.461 83.2991C142.382 83.2991 146.793 80.1195 148.973 75.0017L149.309 74.2133L149.633 73.4548L148.921 73.0372L146.071 71.3642Z" fill="#FF5656"/>
<path fill-rule="evenodd" clip-rule="evenodd" d="M152.365 99.6142C149.899 99.6142 147.901 101.613 147.901 104.078C147.901 106.543 149.899 108.541 152.365 108.541C154.829 108.541 156.828 106.543 156.828 104.078C156.828 101.613 154.829 99.6142 152.365 99.6142" fill="#FF5656"/>
<mask id="mask0_14_24" style="mask-type:alpha" maskUnits="userSpaceOnUse" x="210" y="35" width="13" height="15">
<path fill-rule="evenodd" clip-rule="evenodd" d="M210.032 35.7862H222.648V49.9279H210.032V35.7862Z" fill="white"/>
</mask>
<g mask="url(#mask0_14_24)">
<path fill-rule="evenodd" clip-rule="evenodd" d="M222.648 46.7737V49.9279H210.032V47.4571L217.234 38.9404H210.216V35.7862H222.413V38.257L215.21 46.7737H222.648Z" fill="#FF5656"/>
</g>
<path fill-rule="evenodd" clip-rule="evenodd" d="M216.338 18.5944L216.34 23.932L194.988 23.9409L194.987 19.7597L207.169 5.34141L195.292 5.34609L195.29 0.00796875L215.932 0L215.934 4.18078L203.75 18.5995L216.338 18.5944Z" fill="#FF5656"/>
<mask id="mask1_14_24" style="mask-type:alpha" maskUnits="userSpaceOnUse" x="103" y="12" width="98" height="129">
<path fill-rule="evenodd" clip-rule="evenodd" d="M103 12.79H200.792V140.243H103V12.79Z" fill="white"/>
</mask>
<g mask="url(#mask1_14_24)">
<path fill-rule="evenodd" clip-rule="evenodd" d="M192.174 131.625H111.619V92.0177H111.618V38.4166H127.1V45.5008C127.1 46.5368 127.939 47.3758 128.975 47.3758H174.817C175.853 47.3758 176.692 46.5368 176.692 45.5008V38.4166H192.173V100.572H192.174V131.625ZM198.905 31.6839C197.651 30.4282 196.123 29.7986 194.328 29.7986H176.692V22.983C176.692 21.9475 175.853 21.108 174.817 21.108H168.306V14.665C168.306 13.6296 167.467 12.79 166.431 12.79H137.802C136.767 12.79 135.927 13.6296 135.927 14.665V21.108H128.975C127.939 21.108 127.1 21.9475 127.1 22.983V29.7986H109.463C107.669 29.7986 106.143 30.4282 104.884 31.6839C103.629 32.9411 103 34.4679 103 36.2622V133.779C103 135.573 103.629 137.1 104.886 138.357C106.142 139.613 107.668 140.243 109.464 140.243H194.329C196.123 140.243 197.65 139.613 198.907 138.357C200.163 137.1 200.792 135.573 200.792 133.779V36.2622C200.792 34.4679 200.164 32.9411 198.905 31.6839V31.6839Z" fill="#FF5656"/>
</g>
</svg>
