
<svg width="368" height="368" viewBox="0 0 368 368" fill="none" xmlns="http://www.w3.org/2000/svg">
    <g clip-path="url(#clip0_5_4)">
    <g filter="url(#filter0_d_5_4)">
    <rect width="368" height="368" rx="4" fill="white"/>
    </g>
    <path d="M143.992 276H142.484L136.758 267.234V276H135.25V264.625H136.758L142.5 273.43V264.625H143.992V276ZM146.047 271.695C146.047 270.867 146.208 270.122 146.531 269.461C146.859 268.799 147.312 268.289 147.891 267.93C148.474 267.57 149.138 267.391 149.883 267.391C151.034 267.391 151.964 267.789 152.672 268.586C153.385 269.383 153.742 270.443 153.742 271.766V271.867C153.742 272.69 153.583 273.43 153.266 274.086C152.953 274.737 152.503 275.245 151.914 275.609C151.331 275.974 150.659 276.156 149.898 276.156C148.753 276.156 147.823 275.758 147.109 274.961C146.401 274.164 146.047 273.109 146.047 271.797V271.695ZM147.5 271.867C147.5 272.805 147.716 273.557 148.148 274.125C148.586 274.693 149.169 274.977 149.898 274.977C150.633 274.977 151.216 274.69 151.648 274.117C152.081 273.539 152.297 272.732 152.297 271.695C152.297 270.768 152.076 270.018 151.633 269.445C151.195 268.867 150.612 268.578 149.883 268.578C149.169 268.578 148.594 268.862 148.156 269.43C147.719 269.997 147.5 270.81 147.5 271.867ZM160.891 267.547L160.938 268.609C161.583 267.797 162.427 267.391 163.469 267.391C165.255 267.391 166.156 268.398 166.172 270.414V276H164.727V270.406C164.721 269.797 164.581 269.346 164.305 269.055C164.034 268.763 163.609 268.617 163.031 268.617C162.562 268.617 162.151 268.742 161.797 268.992C161.443 269.242 161.167 269.57 160.969 269.977V276H159.523V267.547H160.891ZM171.859 276.156C170.714 276.156 169.781 275.781 169.062 275.031C168.344 274.276 167.984 273.268 167.984 272.008V271.742C167.984 270.904 168.143 270.156 168.461 269.5C168.784 268.839 169.232 268.323 169.805 267.953C170.383 267.578 171.008 267.391 171.68 267.391C172.779 267.391 173.633 267.753 174.242 268.477C174.852 269.201 175.156 270.237 175.156 271.586V272.188H169.43C169.451 273.021 169.693 273.695 170.156 274.211C170.625 274.721 171.219 274.977 171.938 274.977C172.448 274.977 172.88 274.872 173.234 274.664C173.589 274.456 173.898 274.18 174.164 273.836L175.047 274.523C174.339 275.612 173.276 276.156 171.859 276.156ZM171.68 268.578C171.096 268.578 170.607 268.792 170.211 269.219C169.815 269.641 169.57 270.234 169.477 271H173.711V270.891C173.669 270.156 173.471 269.589 173.117 269.188C172.763 268.781 172.284 268.578 171.68 268.578ZM184.32 274.008L185.945 267.547H187.391L184.93 276H183.758L181.703 269.594L179.703 276H178.531L176.078 267.547H177.516L179.18 273.875L181.148 267.547H182.312L184.32 274.008ZM201.32 266.523H197.836V276H195.492V266.523H192.055V264.625H201.32V266.523ZM200.539 271.695C200.539 270.857 200.701 270.109 201.023 269.453C201.346 268.797 201.81 268.289 202.414 267.93C203.023 267.57 203.729 267.391 204.531 267.391C205.672 267.391 206.602 267.74 207.32 268.438C208.044 269.135 208.448 270.083 208.531 271.281L208.547 271.859C208.547 273.156 208.185 274.198 207.461 274.984C206.737 275.766 205.766 276.156 204.547 276.156C203.328 276.156 202.354 275.766 201.625 274.984C200.901 274.203 200.539 273.141 200.539 271.797V271.695ZM202.797 271.859C202.797 272.661 202.948 273.276 203.25 273.703C203.552 274.125 203.984 274.336 204.547 274.336C205.094 274.336 205.521 274.128 205.828 273.711C206.135 273.289 206.289 272.617 206.289 271.695C206.289 270.909 206.135 270.299 205.828 269.867C205.521 269.435 205.089 269.219 204.531 269.219C203.979 269.219 203.552 269.435 203.25 269.867C202.948 270.294 202.797 270.958 202.797 271.859ZM215 275.141C214.443 275.818 213.672 276.156 212.688 276.156C211.781 276.156 211.089 275.896 210.609 275.375C210.135 274.854 209.893 274.091 209.883 273.086V267.547H212.141V273.008C212.141 273.888 212.542 274.328 213.344 274.328C214.109 274.328 214.635 274.062 214.922 273.531V267.547H217.188V276H215.062L215 275.141ZM223.641 269.664C223.333 269.622 223.062 269.602 222.828 269.602C221.974 269.602 221.414 269.891 221.148 270.469V276H218.891V267.547H221.023L221.086 268.555C221.539 267.779 222.167 267.391 222.969 267.391C223.219 267.391 223.453 267.424 223.672 267.492L223.641 269.664ZM229.312 273.664C229.312 273.388 229.174 273.172 228.898 273.016C228.628 272.854 228.19 272.711 227.586 272.586C225.576 272.164 224.57 271.31 224.57 270.023C224.57 269.273 224.88 268.648 225.5 268.148C226.125 267.643 226.94 267.391 227.945 267.391C229.018 267.391 229.875 267.643 230.516 268.148C231.161 268.654 231.484 269.31 231.484 270.117H229.227C229.227 269.794 229.122 269.529 228.914 269.32C228.706 269.107 228.38 269 227.938 269C227.557 269 227.263 269.086 227.055 269.258C226.846 269.43 226.742 269.648 226.742 269.914C226.742 270.164 226.859 270.367 227.094 270.523C227.333 270.674 227.734 270.807 228.297 270.922C228.859 271.031 229.333 271.156 229.719 271.297C230.911 271.734 231.508 272.492 231.508 273.57C231.508 274.341 231.177 274.966 230.516 275.445C229.854 275.919 229 276.156 227.953 276.156C227.245 276.156 226.615 276.031 226.062 275.781C225.516 275.526 225.086 275.18 224.773 274.742C224.461 274.299 224.305 273.823 224.305 273.312H226.445C226.466 273.714 226.615 274.021 226.891 274.234C227.167 274.448 227.536 274.555 228 274.555C228.432 274.555 228.758 274.474 228.977 274.312C229.201 274.146 229.312 273.93 229.312 273.664ZM82.375 297.031H77.6094L76.5391 300H74.9922L79.3359 288.625H80.6484L85 300H83.4609L82.375 297.031ZM78.0625 295.797H81.9297L79.9922 290.477L78.0625 295.797ZM87.6719 291.547L87.7188 292.609C88.3646 291.797 89.2083 291.391 90.25 291.391C92.0365 291.391 92.9375 292.398 92.9531 294.414V300H91.5078V294.406C91.5026 293.797 91.362 293.346 91.0859 293.055C90.8151 292.763 90.3906 292.617 89.8125 292.617C89.3438 292.617 88.9323 292.742 88.5781 292.992C88.224 293.242 87.9479 293.57 87.75 293.977V300H86.3047V291.547H87.6719ZM97.8984 297.883L99.8672 291.547H101.414L98.0156 301.305C97.4896 302.711 96.6536 303.414 95.5078 303.414L95.2344 303.391L94.6953 303.289V302.117L95.0859 302.148C95.5755 302.148 95.9557 302.049 96.2266 301.852C96.5026 301.654 96.7292 301.292 96.9062 300.766L97.2266 299.906L94.2109 291.547H95.7891L97.8984 297.883ZM108.047 291.547L108.094 292.609C108.74 291.797 109.583 291.391 110.625 291.391C112.411 291.391 113.312 292.398 113.328 294.414V300H111.883V294.406C111.878 293.797 111.737 293.346 111.461 293.055C111.19 292.763 110.766 292.617 110.188 292.617C109.719 292.617 109.307 292.742 108.953 292.992C108.599 293.242 108.323 293.57 108.125 293.977V300H106.68V291.547H108.047ZM119.016 300.156C117.87 300.156 116.938 299.781 116.219 299.031C115.5 298.276 115.141 297.268 115.141 296.008V295.742C115.141 294.904 115.299 294.156 115.617 293.5C115.94 292.839 116.388 292.323 116.961 291.953C117.539 291.578 118.164 291.391 118.836 291.391C119.935 291.391 120.789 291.753 121.398 292.477C122.008 293.201 122.312 294.237 122.312 295.586V296.188H116.586C116.607 297.021 116.849 297.695 117.312 298.211C117.781 298.721 118.375 298.977 119.094 298.977C119.604 298.977 120.036 298.872 120.391 298.664C120.745 298.456 121.055 298.18 121.32 297.836L122.203 298.523C121.495 299.612 120.432 300.156 119.016 300.156ZM118.836 292.578C118.253 292.578 117.763 292.792 117.367 293.219C116.971 293.641 116.727 294.234 116.633 295H120.867V294.891C120.826 294.156 120.628 293.589 120.273 293.188C119.919 292.781 119.44 292.578 118.836 292.578ZM131.477 298.008L133.102 291.547H134.547L132.086 300H130.914L128.859 293.594L126.859 300H125.688L123.234 291.547H124.672L126.336 297.875L128.305 291.547H129.469L131.477 298.008ZM148.078 289.859H144.422V300H142.93V289.859H139.281V288.625H148.078V289.859ZM148.375 295.695C148.375 294.867 148.536 294.122 148.859 293.461C149.188 292.799 149.641 292.289 150.219 291.93C150.802 291.57 151.466 291.391 152.211 291.391C153.362 291.391 154.292 291.789 155 292.586C155.714 293.383 156.07 294.443 156.07 295.766V295.867C156.07 296.69 155.911 297.43 155.594 298.086C155.281 298.737 154.831 299.245 154.242 299.609C153.659 299.974 152.987 300.156 152.227 300.156C151.081 300.156 150.151 299.758 149.438 298.961C148.729 298.164 148.375 297.109 148.375 295.797V295.695ZM149.828 295.867C149.828 296.805 150.044 297.557 150.477 298.125C150.914 298.693 151.497 298.977 152.227 298.977C152.961 298.977 153.544 298.69 153.977 298.117C154.409 297.539 154.625 296.732 154.625 295.695C154.625 294.768 154.404 294.018 153.961 293.445C153.523 292.867 152.94 292.578 152.211 292.578C151.497 292.578 150.922 292.862 150.484 293.43C150.047 293.997 149.828 294.81 149.828 295.867ZM163.102 299.164C162.539 299.826 161.714 300.156 160.625 300.156C159.724 300.156 159.036 299.896 158.562 299.375C158.094 298.849 157.857 298.073 157.852 297.047V291.547H159.297V297.008C159.297 298.289 159.818 298.93 160.859 298.93C161.964 298.93 162.698 298.518 163.062 297.695V291.547H164.508V300H163.133L163.102 299.164ZM170.797 292.844C170.578 292.807 170.341 292.789 170.086 292.789C169.138 292.789 168.495 293.193 168.156 294V300H166.711V291.547H168.117L168.141 292.523C168.615 291.768 169.286 291.391 170.156 291.391C170.438 291.391 170.651 291.427 170.797 291.5V292.844ZM177.055 297.758C177.055 297.367 176.906 297.065 176.609 296.852C176.318 296.633 175.805 296.445 175.07 296.289C174.341 296.133 173.76 295.945 173.328 295.727C172.901 295.508 172.583 295.247 172.375 294.945C172.172 294.643 172.07 294.284 172.07 293.867C172.07 293.174 172.362 292.589 172.945 292.109C173.534 291.63 174.284 291.391 175.195 291.391C176.154 291.391 176.93 291.638 177.523 292.133C178.122 292.628 178.422 293.26 178.422 294.031H176.969C176.969 293.635 176.799 293.294 176.461 293.008C176.128 292.721 175.706 292.578 175.195 292.578C174.669 292.578 174.258 292.693 173.961 292.922C173.664 293.151 173.516 293.451 173.516 293.82C173.516 294.169 173.654 294.432 173.93 294.609C174.206 294.786 174.703 294.956 175.422 295.117C176.146 295.279 176.732 295.471 177.18 295.695C177.628 295.919 177.958 296.19 178.172 296.508C178.391 296.82 178.5 297.203 178.5 297.656C178.5 298.411 178.198 299.018 177.594 299.477C176.99 299.93 176.206 300.156 175.242 300.156C174.565 300.156 173.966 300.036 173.445 299.797C172.924 299.557 172.516 299.224 172.219 298.797C171.927 298.365 171.781 297.898 171.781 297.398H173.227C173.253 297.883 173.445 298.268 173.805 298.555C174.169 298.836 174.648 298.977 175.242 298.977C175.789 298.977 176.227 298.867 176.555 298.648C176.888 298.424 177.055 298.128 177.055 297.758ZM191.836 298.008L193.461 291.547H194.906L192.445 300H191.273L189.219 293.594L187.219 300H186.047L183.594 291.547H185.031L186.695 297.875L188.664 291.547H189.828L191.836 298.008ZM197.953 300H196.508V291.547H197.953V300ZM196.391 289.305C196.391 289.07 196.461 288.872 196.602 288.711C196.747 288.549 196.961 288.469 197.242 288.469C197.523 288.469 197.737 288.549 197.883 288.711C198.029 288.872 198.102 289.07 198.102 289.305C198.102 289.539 198.029 289.734 197.883 289.891C197.737 290.047 197.523 290.125 197.242 290.125C196.961 290.125 196.747 290.047 196.602 289.891C196.461 289.734 196.391 289.539 196.391 289.305ZM201.844 300H200.398V288H201.844V300ZM205.734 300H204.289V288H205.734V300ZM217.242 300C217.159 299.833 217.091 299.536 217.039 299.109C216.367 299.807 215.565 300.156 214.633 300.156C213.799 300.156 213.115 299.922 212.578 299.453C212.047 298.979 211.781 298.38 211.781 297.656C211.781 296.776 212.115 296.094 212.781 295.609C213.453 295.12 214.396 294.875 215.609 294.875H217.016V294.211C217.016 293.706 216.865 293.305 216.562 293.008C216.26 292.706 215.815 292.555 215.227 292.555C214.711 292.555 214.279 292.685 213.93 292.945C213.581 293.206 213.406 293.521 213.406 293.891H211.953C211.953 293.469 212.102 293.062 212.398 292.672C212.701 292.276 213.107 291.964 213.617 291.734C214.133 291.505 214.698 291.391 215.312 291.391C216.286 291.391 217.049 291.635 217.602 292.125C218.154 292.609 218.44 293.279 218.461 294.133V298.023C218.461 298.799 218.56 299.417 218.758 299.875V300H217.242ZM214.844 298.898C215.297 298.898 215.727 298.781 216.133 298.547C216.539 298.312 216.833 298.008 217.016 297.633V295.898H215.883C214.112 295.898 213.227 296.417 213.227 297.453C213.227 297.906 213.378 298.26 213.68 298.516C213.982 298.771 214.37 298.898 214.844 298.898ZM227.867 295.867C227.867 297.154 227.573 298.19 226.984 298.977C226.396 299.763 225.599 300.156 224.594 300.156C223.568 300.156 222.76 299.831 222.172 299.18V303.25H220.727V291.547H222.047L222.117 292.484C222.706 291.755 223.523 291.391 224.57 291.391C225.586 291.391 226.388 291.773 226.977 292.539C227.57 293.305 227.867 294.37 227.867 295.734V295.867ZM226.422 295.703C226.422 294.75 226.219 293.997 225.812 293.445C225.406 292.893 224.849 292.617 224.141 292.617C223.266 292.617 222.609 293.005 222.172 293.781V297.82C222.604 298.591 223.266 298.977 224.156 298.977C224.849 298.977 225.398 298.703 225.805 298.156C226.216 297.604 226.422 296.786 226.422 295.703ZM236.852 295.867C236.852 297.154 236.557 298.19 235.969 298.977C235.38 299.763 234.583 300.156 233.578 300.156C232.552 300.156 231.745 299.831 231.156 299.18V303.25H229.711V291.547H231.031L231.102 292.484C231.69 291.755 232.508 291.391 233.555 291.391C234.57 291.391 235.372 291.773 235.961 292.539C236.555 293.305 236.852 294.37 236.852 295.734V295.867ZM235.406 295.703C235.406 294.75 235.203 293.997 234.797 293.445C234.391 292.893 233.833 292.617 233.125 292.617C232.25 292.617 231.594 293.005 231.156 293.781V297.82C231.589 298.591 232.25 298.977 233.141 298.977C233.833 298.977 234.383 298.703 234.789 298.156C235.201 297.604 235.406 296.786 235.406 295.703ZM242.203 300.156C241.057 300.156 240.125 299.781 239.406 299.031C238.688 298.276 238.328 297.268 238.328 296.008V295.742C238.328 294.904 238.487 294.156 238.805 293.5C239.128 292.839 239.576 292.323 240.148 291.953C240.727 291.578 241.352 291.391 242.023 291.391C243.122 291.391 243.977 291.753 244.586 292.477C245.195 293.201 245.5 294.237 245.5 295.586V296.188H239.773C239.794 297.021 240.036 297.695 240.5 298.211C240.969 298.721 241.562 298.977 242.281 298.977C242.792 298.977 243.224 298.872 243.578 298.664C243.932 298.456 244.242 298.18 244.508 297.836L245.391 298.523C244.682 299.612 243.62 300.156 242.203 300.156ZM242.023 292.578C241.44 292.578 240.951 292.792 240.555 293.219C240.159 293.641 239.914 294.234 239.82 295H244.055V294.891C244.013 294.156 243.815 293.589 243.461 293.188C243.107 292.781 242.628 292.578 242.023 292.578ZM252.398 300C252.315 299.833 252.247 299.536 252.195 299.109C251.523 299.807 250.721 300.156 249.789 300.156C248.956 300.156 248.271 299.922 247.734 299.453C247.203 298.979 246.938 298.38 246.938 297.656C246.938 296.776 247.271 296.094 247.938 295.609C248.609 295.12 249.552 294.875 250.766 294.875H252.172V294.211C252.172 293.706 252.021 293.305 251.719 293.008C251.417 292.706 250.971 292.555 250.383 292.555C249.867 292.555 249.435 292.685 249.086 292.945C248.737 293.206 248.562 293.521 248.562 293.891H247.109C247.109 293.469 247.258 293.062 247.555 292.672C247.857 292.276 248.263 291.964 248.773 291.734C249.289 291.505 249.854 291.391 250.469 291.391C251.443 291.391 252.206 291.635 252.758 292.125C253.31 292.609 253.596 293.279 253.617 294.133V298.023C253.617 298.799 253.716 299.417 253.914 299.875V300H252.398ZM250 298.898C250.453 298.898 250.883 298.781 251.289 298.547C251.695 298.312 251.99 298.008 252.172 297.633V295.898H251.039C249.268 295.898 248.383 296.417 248.383 297.453C248.383 297.906 248.534 298.26 248.836 298.516C249.138 298.771 249.526 298.898 250 298.898ZM259.969 292.844C259.75 292.807 259.513 292.789 259.258 292.789C258.31 292.789 257.667 293.193 257.328 294V300H255.883V291.547H257.289L257.312 292.523C257.786 291.768 258.458 291.391 259.328 291.391C259.609 291.391 259.823 291.427 259.969 291.5V292.844ZM266.719 292.57C267.359 291.784 268.193 291.391 269.219 291.391C271.005 291.391 271.906 292.398 271.922 294.414V300H270.477V294.406C270.471 293.797 270.331 293.346 270.055 293.055C269.784 292.763 269.359 292.617 268.781 292.617C268.312 292.617 267.901 292.742 267.547 292.992C267.193 293.242 266.917 293.57 266.719 293.977V300H265.273V288H266.719V292.57ZM277.594 300.156C276.448 300.156 275.516 299.781 274.797 299.031C274.078 298.276 273.719 297.268 273.719 296.008V295.742C273.719 294.904 273.878 294.156 274.195 293.5C274.518 292.839 274.966 292.323 275.539 291.953C276.117 291.578 276.742 291.391 277.414 291.391C278.513 291.391 279.367 291.753 279.977 292.477C280.586 293.201 280.891 294.237 280.891 295.586V296.188H275.164C275.185 297.021 275.427 297.695 275.891 298.211C276.359 298.721 276.953 298.977 277.672 298.977C278.182 298.977 278.615 298.872 278.969 298.664C279.323 298.456 279.633 298.18 279.898 297.836L280.781 298.523C280.073 299.612 279.01 300.156 277.594 300.156ZM277.414 292.578C276.831 292.578 276.341 292.792 275.945 293.219C275.549 293.641 275.305 294.234 275.211 295H279.445V294.891C279.404 294.156 279.206 293.589 278.852 293.188C278.497 292.781 278.018 292.578 277.414 292.578ZM286.656 292.844C286.438 292.807 286.201 292.789 285.945 292.789C284.997 292.789 284.354 293.193 284.016 294V300H282.57V291.547H283.977L284 292.523C284.474 291.768 285.146 291.391 286.016 291.391C286.297 291.391 286.51 291.427 286.656 291.5V292.844ZM291.344 300.156C290.198 300.156 289.266 299.781 288.547 299.031C287.828 298.276 287.469 297.268 287.469 296.008V295.742C287.469 294.904 287.628 294.156 287.945 293.5C288.268 292.839 288.716 292.323 289.289 291.953C289.867 291.578 290.492 291.391 291.164 291.391C292.263 291.391 293.117 291.753 293.727 292.477C294.336 293.201 294.641 294.237 294.641 295.586V296.188H288.914C288.935 297.021 289.177 297.695 289.641 298.211C290.109 298.721 290.703 298.977 291.422 298.977C291.932 298.977 292.365 298.872 292.719 298.664C293.073 298.456 293.383 298.18 293.648 297.836L294.531 298.523C293.823 299.612 292.76 300.156 291.344 300.156ZM291.164 292.578C290.581 292.578 290.091 292.792 289.695 293.219C289.299 293.641 289.055 294.234 288.961 295H293.195V294.891C293.154 294.156 292.956 293.589 292.602 293.188C292.247 292.781 291.768 292.578 291.164 292.578Z" fill="#FF5656"/>
    <path fill-rule="evenodd" clip-rule="evenodd" d="M211.331 119.129L208.653 117.519L207.79 117L207.397 117.943L207.081 118.702C205.824 121.722 203.327 123.598 200.563 123.598C197.799 123.598 195.301 121.722 194.045 118.703L193.729 117.944L193.336 117L192.473 117.519L189.795 119.129L189.126 119.53L189.43 120.26L189.746 121.019C191.793 125.941 195.938 129 200.563 129C205.187 129 209.332 125.941 211.379 121.018L211.696 120.26L212 119.53L211.331 119.129ZM181.527 117.519L180.663 117L180.27 117.943L179.955 118.702C178.698 121.722 176.201 123.598 173.436 123.598C170.672 123.598 168.175 121.722 166.919 118.703L166.602 117.944L166.21 117L165.346 117.519L162.668 119.129L162 119.53L162.303 120.26L162.619 121.019C164.667 125.941 168.812 129 173.436 129C178.061 129 182.205 125.941 184.253 121.018L184.569 120.26L184.874 119.53L184.205 119.129L181.527 117.519Z" fill="#FF5656"/>
    <path fill-rule="evenodd" clip-rule="evenodd" d="M269 118.1V121H257V118.729L263.85 110.9H257.175V108H268.776V110.271L261.926 118.1H269Z" fill="#FF5656"/>
    <path fill-rule="evenodd" clip-rule="evenodd" d="M262.998 91.8636L263 96.9914L243.002 97L243 92.9831L254.411 79.1315L243.286 79.136L243.284 74.0077L262.618 74L262.619 78.0165L251.208 91.8685L262.998 91.8636Z" fill="#FF5656"/>
    <g opacity="0.2">
    <g filter="url(#filter1_d_5_4)">
    <path d="M246.312 118.258C248.371 113.115 244.571 107.583 238.95 107.583H139.833V99.7917C139.833 95.5062 136.271 92 131.917 92C127.562 92 124 95.5062 124 99.7917V247.833H139.833V185.5H238.95C244.571 185.5 248.371 179.968 246.312 174.825L234.833 146.542L246.312 118.258ZM203.167 146.542C203.167 155.113 196.042 162.125 187.333 162.125C178.625 162.125 171.5 155.113 171.5 146.542C171.5 137.971 178.625 130.958 187.333 130.958C196.042 130.958 203.167 137.971 203.167 146.542Z" fill="#FF5656"/>
    <path d="M246.776 118.446L246.777 118.444C248.97 112.964 244.915 107.083 238.95 107.083H140.333V99.7917C140.333 95.2226 136.539 91.5 131.917 91.5C127.294 91.5 123.5 95.2226 123.5 99.7917V247.833V248.333H124H139.833H140.333V247.833V186H238.95C244.915 186 248.97 180.119 246.777 174.64L246.776 174.637L235.373 146.542L246.776 118.446ZM202.667 146.542C202.667 154.829 195.773 161.625 187.333 161.625C178.894 161.625 172 154.829 172 146.542C172 138.254 178.894 131.458 187.333 131.458C195.773 131.458 202.667 138.254 202.667 146.542Z" stroke="#FF5656"/>
    <path d="M246.776 118.446L246.777 118.444C248.97 112.964 244.915 107.083 238.95 107.083H140.333V99.7917C140.333 95.2226 136.539 91.5 131.917 91.5C127.294 91.5 123.5 95.2226 123.5 99.7917V247.833V248.333H124H139.833H140.333V247.833V186H238.95C244.915 186 248.97 180.119 246.777 174.64L246.776 174.637L235.373 146.542L246.776 118.446ZM202.667 146.542C202.667 154.829 195.773 161.625 187.333 161.625C178.894 161.625 172 154.829 172 146.542C172 138.254 178.894 131.458 187.333 131.458C195.773 131.458 202.667 138.254 202.667 146.542Z" stroke="black" stroke-opacity="0.2"/>
    </g>
    </g>
    </g>
    <defs>
    <filter id="filter0_d_5_4" x="-8" y="-6" width="384" height="384" filterUnits="userSpaceOnUse" color-interpolation-filters="sRGB">
    <feFlood flood-opacity="0" result="BackgroundImageFix"/>
    <feColorMatrix in="SourceAlpha" type="matrix" values="0 0 0 0 0 0 0 0 0 0 0 0 0 0 0 0 0 0 127 0" result="hardAlpha"/>
    <feOffset dy="2"/>
    <feGaussianBlur stdDeviation="4"/>
    <feColorMatrix type="matrix" values="0 0 0 0 0 0 0 0 0 0 0 0 0 0 0 0 0 0 0.12 0"/>
    <feBlend mode="normal" in2="BackgroundImageFix" result="effect1_dropShadow_5_4"/>
    <feBlend mode="normal" in="SourceGraphic" in2="effect1_dropShadow_5_4" result="shape"/>
    </filter>
    <filter id="filter1_d_5_4" x="119" y="91" width="132.881" height="165.833" filterUnits="userSpaceOnUse" color-interpolation-filters="sRGB">
    <feFlood flood-opacity="0" result="BackgroundImageFix"/>
    <feColorMatrix in="SourceAlpha" type="matrix" values="0 0 0 0 0 0 0 0 0 0 0 0 0 0 0 0 0 0 127 0" result="hardAlpha"/>
    <feOffset dy="4"/>
    <feGaussianBlur stdDeviation="2"/>
    <feComposite in2="hardAlpha" operator="out"/>
    <feColorMatrix type="matrix" values="0 0 0 0 0 0 0 0 0 0 0 0 0 0 0 0 0 0 0.25 0"/>
    <feBlend mode="normal" in2="BackgroundImageFix" result="effect1_dropShadow_5_4"/>
    <feBlend mode="normal" in="SourceGraphic" in2="effect1_dropShadow_5_4" result="shape"/>
    </filter>
    <clipPath id="clip0_5_4">
    <rect width="368" height="368" fill="white"/>
    </clipPath>
    </defs>
    </svg>
    