<svg width="369" height="729" viewBox="0 0 369 729" fill="none" xmlns="http://www.w3.org/2000/svg">
<g filter="url(#filter0_f_1_3)">
<path d="M4.50999 724.37V4.37H364.51V724.37H4.50999ZM27.99 708.37H35.5L25.24 698.11L27.99 708.37ZM45.25 254.08L48.35 265.63L56.81 257.17L65.27 265.63L68.37 254.08L79.92 257.18L76.82 245.63L88.37 242.53L79.91 234.07L88.37 225.61L76.82 222.51L79.92 210.96L68.37 214.06L65.27 202.51L56.81 210.97L48.35 202.51L45.25 214.06L33.7 210.96L36.8 222.51L25.25 225.61L33.71 234.07L25.25 242.53L36.8 245.63L33.7 257.18L45.25 254.08ZM39.48 264.09L31.27 266.3L25.25 288.75L41.68 272.32L39.48 264.09ZM39.48 204.06L41.68 195.84L25.25 179.41L31.26 201.86L39.48 204.06ZM188.92 20.37L187.18 23.39L190.51 25.31L198.09 23.28L197.31 20.38H188.92V20.37ZM247.4 20.37L220.85 46.92L228.79 54.86V62.09H236.02L243.96 70.03L273.05 40.94L278.56 20.37H247.4ZM348.51 41.73L328.84 22.06L320.38 53.62L331.03 93.35L341.87 90.44L348.02 93.99L348.19 93.7L348.29 93.78L348.5 93.42V41.73H348.51ZM348.51 374.72L348.14 374.08L341.88 377.68L331.03 374.78L320.38 414.51L328.84 446.07L348.51 426.4V374.72ZM339.26 493.43L347.72 484.97L336.17 481.87L339.27 470.32L327.72 473.42L324.62 461.87L316.16 470.33L307.7 461.87L304.6 473.42L293.05 470.32L296.15 481.87L284.6 484.97L293.06 493.43L284.6 501.89L296.15 504.99L293.05 516.54L304.6 513.44L307.7 524.99L316.16 516.53L324.62 524.99L327.72 513.44L339.27 516.54L336.17 504.99L347.72 501.89L339.26 493.43ZM348.51 560.43L328.84 540.76L320.38 572.32L331.03 612.05L341.87 609.14L348.02 612.69L348.19 612.4L348.29 612.48L348.5 612.12V560.43H348.51ZM183.33 708.37L185.78 704.12L182.45 702.2L174.88 704.23L175.99 708.37H183.33ZM124.31 708.37L152.11 680.57L144.17 672.63V665.4H136.94L129 657.46L99.91 686.55L94.07 708.36H124.31V708.37ZM84.56 68.14L95.37 71.05L96.15 72.63L98.82 77.27L105.04 73.68L105.18 73.71L106.72 74.09L115.99 76.57L122.6 51.89C113.36 54.48 107.09 56.46 107.02 56.49L104.22 57.39L101.31 54.46L90.95 44.1C88.77 52.28 86.49 60.88 84.56 68.14ZM131.73 49.38L123.88 78.67L124.06 78.72L124.04 78.76L143.48 83.97L157.86 98.35L159.5 96.71L162.84 93.37L162.85 81.36H163.43V80.78L175.44 80.77L178.78 77.43L180.42 75.79L166.04 61.41L160.83 41.97L160.79 41.99L160.67 41.55L160.42 41.62C157.62 42.38 154.62 43.19 151.53 44.03C145.06 45.77 138.16 47.64 131.73 49.38ZM228.79 89.52L228.78 96.76L221.1 104.44L220.87 104.67L233.73 117.53L251.06 122.17L253.93 111.48L260.4 107.74L256.82 101.53L259.72 90.68L268.82 56.72L236.02 89.52H228.79V89.52ZM232.63 81.35L238.18 75.8L232.63 70.25H228.78V81.34H232.63V81.35ZM325.38 708.37L343.31 690.44L335.58 661.58L316.18 666.78L297.36 661.74V661.75L296.17 661.44C295 665.85 293.69 670.78 292.36 675.8L288.59 689.99L306.97 708.37H325.38V708.37ZM274.73 708.37L279.23 693.32L265.92 680.01L255.66 682.75C253.53 683.36 251.2 684.01 248.7 684.7L243.81 702.95C245.1 704.24 247.04 706.19 249.23 708.38H274.73V708.37ZM281.9 683.31L284.45 673.71C285.78 668.68 287.09 663.75 288.27 659.32L278 656.57L276.72 654.72L274.14 650.25L269.8 652.76L269.23 653.08L267.89 653.85L266.65 653.53L265.21 653.15L256.82 650.91L250.17 675.77L253.65 674.84C260.93 672.75 265.67 671.25 265.73 671.23L268.77 670.22L271.31 672.75L281.9 683.31ZM204.31 687.88L199.61 670.35L186.75 657.49L186.19 658.05L178.83 665.41H171.6L171.59 672.65L138.8 705.44L183.59 693.44L189.87 697.06L193.48 690.79L204.31 687.88ZM198.7 698.23L197 701.16L206.55 706.67L207.74 704.6L208.31 703.63L208.67 702.03L206.52 696.11L198.7 698.23ZM144.18 637.98V630.75L151.54 623.39L152.1 622.83L139.27 610L121.76 605.3L118.84 616.21L112.59 619.81L116.15 625.98L113.24 636.81L104.14 670.77L123.22 651.69L136.93 637.98H144.18ZM140.32 646.15L134.78 651.69L140.33 657.23H144.18V646.14L140.32 646.15ZM34.27 493.42L39.27 498.42H42.54V488.46H39.24L34.27 493.42ZM90.63 424.42L102.23 412.83L104.04 410.92L106.99 411.57L122.11 415.91C120.77 410.95 119.39 405.86 118.08 401L115.56 391.7L105.09 394.5L103.15 393.38L98.82 390.88L95.21 397.15L84.11 400.12L90.63 424.42ZM95.93 110.75L97.79 113.97L105.36 116L107.39 108.43L105.53 105.21L95.93 110.75ZM101.38 98.03L95.83 88.42L86.23 93.97L91.77 103.58L101.38 98.03ZM108.46 93.94L111.79 92.01L113.81 84.47L106.2 82.43L102.91 84.33L108.46 93.94ZM104.15 152.07L123.23 132.99L136.94 119.28L144.18 119.27V112.04L152.1 104.12L139.27 91.29L121.76 86.59L118.84 97.5L112.59 101.1L116.15 107.27L113.24 118.1L104.15 152.07ZM163.66 104.11L171.61 112.06L171.6 113.77V119.28H178.83L186.77 127.22L194.13 119.86L194.71 119.28H201.36V112.63L201.94 112.05L209.3 104.69L201.36 96.75V89.52L194.14 89.53L186.19 81.58L182.51 85.26L178.25 89.52L171.6 89.53L171.59 96.18L167.33 100.44L163.66 104.11ZM210.11 115.43V127.44H209.53V128.02H197.52L192.54 133L206.95 147.41L212.3 167.38C215.21 166.59 218.33 165.75 221.55 164.87C227.42 163.28 233.65 161.6 239.53 160.01L241.04 159.6L248.94 130.09H248.93L248.95 130.05L229.51 124.84L215.08 110.45L210.11 115.43ZM253.66 156.13C260.94 154.04 265.68 152.54 265.74 152.52L268.78 151.51L271.32 154.04L281.9 164.62L284.45 155.02C285.78 149.99 287.09 145.06 288.27 140.63L278 137.86L276.72 136.01L274.14 131.54L269.8 134.05L269.23 134.37L267.89 135.14L266.65 134.82L265.21 134.44L256.82 132.2L250.17 157.06L253.66 156.13ZM259.29 124.33L259.28 124.38L266.1 126.21L266.99 126.37L267.98 125.68L270.06 124.48L264.51 114.87L261.17 116.8L259.16 124.31L259.29 124.33ZM281.22 127.45L283.13 130.77L290.37 132.71L291.83 127.21C292.05 126.39 292.23 125.69 292.38 125.11L290.61 122.03L281.22 127.45ZM293.81 110.76L297.14 108.83L299.17 101.25L291.6 99.22L288.27 101.14L293.81 110.76ZM286.53 114.95L284.95 112.22C283.48 109.67 282.07 107.24 280.98 105.35L271.58 110.77L277.12 120.38L286.53 114.95ZM330.44 229.1V239.06H333.74L338.71 234.09L333.71 229.09H330.44V229.1ZM282.15 303.32L271.11 314.36L268.51 316.91L250.66 311.78L250.8 312.3C252.11 317.11 253.43 322.03 254.7 326.73C255.57 329.91 256.4 332.99 257.17 335.86L267.93 332.97L269.43 333.88L274.14 336.61L277.72 330.39L279.38 329.9L288.6 327.43L282.15 303.32ZM292.74 342.9L290.72 335.37L283.1 337.42L281.21 340.69L290.82 346.24L292.74 342.9ZM288.31 367.03L291.59 368.92L293.16 368.5L299.17 366.89L297.14 359.32L293.85 357.42L288.31 367.03ZM243.95 588.73L273.04 559.64L281.5 528.08L249.94 536.54L220.85 565.63L228.79 573.57V580.8H236.02L243.95 588.73ZM232.63 588.96H228.78V600.05H232.63L238.18 594.5L232.63 588.96ZM162.86 646.73V646.15H152.35V657.24H163.44V646.73H162.86ZM171.6 657.24H175.45L180.42 652.27L174.87 646.72H171.6V657.24V657.24ZM180.43 594.49L166.05 580.11L160.84 560.67L160.8 560.69L160.68 560.25L160.43 560.32C157.63 561.08 154.63 561.89 151.54 562.73C145.06 564.47 138.15 566.34 131.73 568.09L123.88 597.38L124.06 597.43L124.04 597.47L143.48 602.68L157.86 617.06L162.84 612.08L162.85 600.07H163.43V599.49L175.44 599.48L178.78 596.14L180.43 594.49ZM157.35 357.72L162.9 352.18V348.87H152.35V352.72L157.35 357.72ZM171.6 128.02V138.53H175.45L180.42 133.56L174.87 128.01H171.6V128.02ZM162.86 128.02V127.44H152.35V138.53H163.44V128.02H162.86ZM152.34 146.7V150.55L157.89 156.1L163.43 150.56L163.44 146.71H152.34V146.7ZM138.8 186.73L183.59 174.73L189.87 178.35L193.48 172.08L204.31 169.17L199.61 151.64L186.75 138.78L186.19 139.34L178.83 146.7H171.6L171.59 153.94L138.8 186.73ZM217.23 185.8L216.13 187.72L213.62 192.06L218.09 194.64L219.89 195.7L222.84 206.71L247.09 200.21L234.24 187.36L233.36 186.5L238.45 168.78C233.54 170.11 228.5 171.47 223.68 172.77C220.46 173.65 217.34 174.49 214.43 175.28L216.54 183.14L216.98 184.61L217.23 185.8ZM248.82 337.98L249.26 337.88C248.49 335.04 247.67 332.02 246.82 328.88C245.55 324.17 244.22 319.24 242.92 314.44L241.5 309.2L212.16 301.34L211.45 303.98L211.44 303.97L206.94 320.76L192.55 335.15L197.56 340.16H209.57V340.69H210.1V352.7L215.11 357.71L229.5 343.32L248.87 338.13L248.82 337.98ZM215.64 369.8L210.09 375.35V378.63H220.61L220.6 374.78L215.64 369.8ZM155.76 541.66L159.35 535.44L154.71 532.76L153.18 531.99L152.65 530.19L150.16 520.92L126 527.39L137.3 538.69L139.49 540.9L134.32 558.91C134.75 558.8 135.19 558.68 135.62 558.56C135.64 558.56 135.66 558.55 135.69 558.55C135.83 558.51 135.98 558.47 136.14 558.43C136.2 558.41 136.27 558.4 136.33 558.38C136.4 558.36 136.46 558.34 136.54 558.32C136.54 558.32 136.55 558.32 136.56 558.31C136.73 558.27 136.89 558.22 137.06 558.18C137.08 558.17 137.09 558.17 137.11 558.16C137.12 558.16 137.12 558.16 137.13 558.15C137.18 558.14 137.23 558.12 137.27 558.11C137.36 558.09 137.44 558.06 137.53 558.05C137.6 558.03 137.68 558 137.76 557.99C137.79 557.98 137.82 557.98 137.85 557.97C137.88 557.96 137.92 557.95 137.96 557.94C137.99 557.93 138.03 557.92 138.06 557.9C138.16 557.88 138.27 557.84 138.37 557.82C138.42 557.8 138.47 557.8 138.53 557.78C138.84 557.69 139.14 557.61 139.44 557.53C139.46 557.52 139.47 557.52 139.49 557.52C139.65 557.48 139.79 557.44 139.95 557.4C139.96 557.39 139.97 557.39 139.97 557.39C139.99 557.38 140.02 557.38 140.03 557.37C140.05 557.36 140.06 557.36 140.08 557.36C140.09 557.35 140.1 557.35 140.11 557.35C140.14 557.34 140.17 557.33 140.2 557.33C140.31 557.3 140.41 557.27 140.52 557.24C140.53 557.24 140.54 557.23 140.55 557.23C140.61 557.21 140.68 557.2 140.75 557.17C140.78 557.16 140.81 557.15 140.84 557.15C140.87 557.14 140.91 557.13 140.95 557.12C140.96 557.12 140.98 557.11 140.99 557.11C141.18 557.06 141.37 557.01 141.56 556.95C141.62 556.94 141.66 556.93 141.72 556.91C141.73 556.91 141.74 556.91 141.75 556.9C141.83 556.88 141.9 556.87 141.97 556.84C142.05 556.82 142.14 556.8 142.22 556.77C142.24 556.76 142.26 556.76 142.28 556.75C142.55 556.67 142.82 556.61 143.09 556.54L143.1 556.53C143.2 556.5 143.3 556.48 143.4 556.45C143.4 556.45 143.41 556.44 143.41 556.45C143.56 556.4 143.71 556.37 143.87 556.33C143.9 556.31 143.93 556.31 143.96 556.3C143.97 556.3 143.98 556.29 143.99 556.29C144.05 556.27 144.12 556.26 144.18 556.24C144.21 556.23 144.24 556.23 144.27 556.22C144.28 556.21 144.29 556.21 144.3 556.21C144.54 556.14 144.79 556.07 145.03 556.01C145.03 556.01 145.03 556.01 145.04 556C145.17 555.97 145.31 555.93 145.43 555.9C145.49 555.89 145.54 555.87 145.6 555.86C145.84 555.79 146.08 555.73 146.33 555.66C146.36 555.65 146.39 555.64 146.42 555.64C146.44 555.63 146.48 555.62 146.51 555.61C146.52 555.61 146.53 555.61 146.54 555.6C146.58 555.59 146.61 555.58 146.66 555.58C146.68 555.57 146.71 555.56 146.73 555.56C146.76 555.55 146.78 555.55 146.81 555.54C146.82 555.53 146.83 555.53 146.84 555.53C146.86 555.52 146.89 555.52 146.9 555.51C146.92 555.5 146.93 555.5 146.93 555.5C146.95 555.49 146.97 555.49 146.99 555.49C147.02 555.48 147.07 555.47 147.11 555.45C147.13 555.44 147.15 555.44 147.17 555.44C147.18 555.43 147.19 555.43 147.19 555.43C147.22 555.42 147.24 555.41 147.27 555.41C147.29 555.4 147.32 555.4 147.33 555.39C147.35 555.38 147.36 555.38 147.38 555.38C147.39 555.37 147.4 555.37 147.41 555.37C147.46 555.36 147.5 555.35 147.54 555.34C147.56 555.33 147.57 555.33 147.59 555.32C147.77 555.27 147.97 555.22 148.15 555.18C148.2 555.16 148.25 555.15 148.29 555.14C148.32 555.13 148.34 555.12 148.37 555.12C148.39 555.11 148.4 555.11 148.42 555.11C148.48 555.09 148.56 555.08 148.62 555.06C148.65 555.05 148.68 555.04 148.71 555.04C148.73 555.03 148.76 555.03 148.78 555.02C148.99 554.97 149.21 554.9 149.43 554.85C152.51 554.01 155.51 553.2 158.31 552.44L158.59 552.36L155.76 541.66ZM155.76 445.2L156.16 443.51L158.64 434.29L133.78 427.63C136.43 436.91 138.6 443.35 138.62 443.42L139.45 445.84L138.44 446.83L138.54 446.93L126.14 459.33C134.32 461.5 142.95 463.8 150.22 465.72L153.1 454.98L154.61 454.14L159.35 451.41L155.76 445.2ZM185.58 458.42L180.06 448.87L170.49 454.39L176 463.94C179.5 461.93 183.05 459.88 185.58 458.42ZM180.13 471.07L182.05 474.4L189.63 476.43L191.66 468.86L189.74 465.53L180.13 471.07ZM175.97 441.8L174.02 438.42L166.56 436.42L164.52 444.04L166.41 447.32L175.97 441.8ZM163.42 458.48L160.15 460.38L158.15 467.83C161.49 468.71 164.15 469.42 165.77 469.85C166.59 469.38 167.68 468.75 168.94 468.02L163.42 458.48ZM142.83 493.44L148.14 473.62C139.51 471.33 128.93 468.52 119.47 466.01L92.05 493.43L119.33 520.72L148.08 513.02L142.83 493.44ZM129.6 543.7L116.38 530.48L98.72 535.74L93.64 552.78L106.9 566.04L124.91 561.22L129.6 543.7ZM79.35 493.45L74.35 488.45H71.08V498.41H74.38L76.86 495.93L79.35 493.45ZM98.93 451.51L116.15 456.65C120.1 452.7 126.44 446.36 129.43 443.37C128.98 441.69 128.21 438.84 126.89 433.93L124.76 426L106.61 421.14L93.72 434.03L98.93 451.51ZM92.37 458.08L91.09 457.7L86.64 441.1L63.17 464.57L71.09 472.5V479.16L77.79 479.18L78.32 479.71L78.48 479.87L85.7 487.09L109.44 463.35C106.64 462.6 104.11 461.93 101.97 461.36C99.83 460.79 98.08 460.33 96.85 460C96.83 459.99 96.81 459.98 96.79 459.98C96.79 459.98 96.78 459.97 96.77 459.97C96.76 459.96 96.76 459.97 96.75 459.96C96.72 459.95 96.67 459.94 96.64 459.93C96.63 459.93 96.62 459.92 96.61 459.92C96.61 459.92 96.6 459.91 96.59 459.91C96.58 459.9 96.57 459.9 96.56 459.9C96.54 459.89 96.52 459.89 96.5 459.88H96.49C96.48 459.87 96.48 459.87 96.48 459.88C96.46 459.87 96.43 459.86 96.4 459.85C96.37 459.84 96.34 459.84 96.31 459.83C96.28 459.82 96.25 459.81 96.21 459.81C96.2 459.8 96.2 459.8 96.2 459.8C96.19 459.8 96.18 459.79 96.17 459.79C96.16 459.79 96.16 459.79 96.16 459.79C96.15 459.78 96.14 459.78 96.14 459.78C96.13 459.79 96.13 459.78 96.12 459.77C96.11 459.77 96.09 459.76 96.07 459.76C96.06 459.76 96.05 459.76 96.04 459.75C96.03 459.76 96.03 459.75 96.03 459.75C96.03 459.75 96.02 459.74 96.02 459.75C96.01 459.74 96.01 459.74 96 459.74C95.98 459.73 95.97 459.73 95.95 459.72C95.93 459.71 95.92 459.71 95.9 459.71C95.89 459.71 95.88 459.7 95.87 459.7C95.86 459.69 95.86 459.69 95.86 459.69C95.85 459.69 95.85 459.69 95.84 459.68C95.84 459.68 95.83 459.69 95.83 459.68C95.83 459.68 95.82 459.67 95.82 459.68C95.81 459.67 95.81 459.67 95.81 459.67C95.8 459.67 95.8 459.67 95.79 459.66C95.78 459.66 95.77 459.65 95.76 459.65C95.74 459.65 95.71 459.64 95.68 459.63C95.62 459.61 95.56 459.6 95.5 459.58H95.49C95.48 459.57 95.48 459.58 95.47 459.57C95.46 459.57 95.45 459.56 95.45 459.56C95.42 459.55 95.39 459.54 95.36 459.54C95.34 459.53 95.33 459.53 95.31 459.53C95.31 459.53 95.3 459.52 95.3 459.53C95.29 459.52 95.28 459.52 95.28 459.52C95.27 459.51 95.26 459.51 95.26 459.51C95.25 459.51 95.24 459.51 95.23 459.5C95.22 459.5 95.22 459.5 95.21 459.49C95.19 459.49 95.16 459.48 95.15 459.47C95.15 459.47 95.15 459.47 95.14 459.48C95.13 459.47 95.12 459.47 95.12 459.47C95.11 459.47 95.1 459.46 95.1 459.46C95.05 459.45 95.01 459.44 94.98 459.43C94.97 459.42 94.97 459.42 94.97 459.43L94.96 459.42C94.94 459.41 94.93 459.41 94.91 459.41C94.9 459.4 94.9 459.41 94.89 459.4C94.88 459.39 94.88 459.4 94.87 459.39C94.84 459.38 94.81 459.38 94.8 459.37C94.79 459.36 94.79 459.37 94.79 459.37L92.58 458.78L92.37 458.08ZM160.14 526.48L163.43 528.37L168.95 518.81L165.58 516.86L158.1 518.86L160.14 526.48ZM164.51 542.82L166.5 550.21L174.07 548.17C174.55 547.34 175.17 546.26 175.9 545L166.42 539.54L164.51 542.82ZM179.99 537.92C182.01 534.44 184.06 530.88 185.51 528.35L176.03 522.87L170.5 532.44L179.99 537.92ZM189.73 521.32L191.65 517.99L189.62 510.42L182.05 512.45L180.12 515.79L189.73 521.32ZM187.18 542.09L190.51 544.01L198.09 541.98L196.06 534.41L192.73 532.49L187.18 542.09ZM221.47 493.43L176.66 481.43L173.04 475.16L166.77 478.77L155.97 475.89L151.27 493.45L155.95 510.92L166.66 508.05L167.28 508.41L168.23 508.93L173.04 511.71L176.66 505.44L195.39 500.42L221.47 493.43ZM196.05 452.44L198.08 444.87L190.5 442.84L187.17 444.76L192.72 454.37L196.05 452.44ZM200.2 436.99L234.16 446.09L201.36 413.29V406.06L194.12 406.05L186.76 398.69L186.23 398.16L173.38 411L168.68 428.52L179.56 431.43L180.31 432.89L183.09 437.69L189.36 434.07L200.2 436.99ZM192.53 392.91L197.5 397.88L201.35 397.89L201.36 387.37H198.07L192.53 392.91ZM209.53 409.9L215.08 415.45L220.63 409.9V406.05H209.54V409.9H209.53ZM220.62 397.89V386.8H210.1V387.37H209.53V397.89H220.62ZM194.17 348.33L186.77 340.93L178.83 348.87H171.6V356.1L163.66 364.04L171.58 371.97V378.68H178.29L178.82 379.21L186.19 386.58L194.13 378.64L195.89 378.63L201.36 378.64V371.41L209.3 363.47L201.4 355.57V348.86H194.69L194.17 348.33ZM180.46 334.62L175.45 329.61H171.6V340.16H174.91L180.46 334.62ZM152.34 329.61V340.7H162.9V340.17H163.43V329.61H152.34ZM163.43 321.44L163.42 317.59L157.88 312.05L152.33 317.6V321.45H163.43V321.44ZM187.38 269.16L192.86 278.64L202.47 273.09L196.99 263.61C193.52 265.62 189.95 267.68 187.38 269.16ZM192.83 256.43L190.9 253.09L183.33 251.07L181.3 258.64L183.22 261.97L192.83 256.43ZM196.94 285.72L198.87 289.05L206.44 291.08L208.47 283.51L206.55 280.18L196.94 285.72ZM230.17 234.09L224.8 254.12C233.41 256.4 243.94 259.2 253.36 261.7L280.95 234.1L253.76 206.89L224.94 214.61L230.17 234.09ZM321.15 216.54L316.15 211.54L311.18 216.51V219.81H321.14V216.54H321.15ZM301.89 239.06V229.1H298.59L296.11 231.58L293.62 234.07L298.62 239.07H301.89V239.06ZM273.84 276.19L256.68 271.06L243.39 284.35L248.05 301.76L266.18 306.62L279.07 293.73L273.84 276.19ZM280.4 269.61L281.68 269.99L286.14 286.65L309.83 262.96L301.89 255.01V248.35H295.23L294.67 247.8H294.66L294.02 247.16L293.94 247.08L287.3 240.44L263.39 264.35C271.93 266.61 277.96 268.21 277.96 268.21L280.17 268.8L280.4 269.61ZM222.69 262L219.88 272.48L213.61 276.09L216.11 280.42L217.2 282.45L214.27 293.45L239.01 300.08C236.42 290.83 234.43 284.57 234.4 284.49L233.3 281.67L233.98 281.09L246.69 268.38C238.53 266.21 229.93 263.92 222.69 262ZM214.79 259.91C211.37 259 208.66 258.28 207 257.84C206.23 258.29 205.22 258.87 204.06 259.53L209.54 269.01L212.86 267.09L214.79 259.91ZM316.18 256.62L321.15 251.65V248.35H311.19V251.62L316.18 256.62ZM280.62 198.51L280.24 199.79L263.77 204.2L287.31 227.74L295.29 219.76L297.01 219.8H301.91V213.16L303.11 211.95L303.67 211.39L303.69 211.37L309.85 205.21L285.95 181.31C283.66 189.94 282.03 196.05 282.03 196.05L281.45 198.26L280.62 198.51ZM255.66 164.05C253.53 164.66 251.2 165.31 248.7 166L243.81 184.25C246.5 186.96 252.05 192.5 256.69 197.14L274.05 191.96L279.23 174.63L265.92 161.32L255.66 164.05ZM212.85 201.05L209.53 199.14L203.99 208.75L207.32 210.67L214.88 208.64L212.85 201.05ZM208.67 183.34L206.52 177.42L198.7 179.53L197 182.46L206.55 187.97L207.74 185.9L208.31 184.93L208.67 183.34ZM196.92 204.65L202.46 195.04L192.92 189.53L191.11 192.65C189.72 195.05 188.41 197.33 187.37 199.13L196.92 204.65ZM183.12 206.38L181.3 209.52L183.33 217.09L190.9 215.06L192.71 211.92L183.12 206.38ZM174.88 185.52L176.91 193.09L180.25 195.02L185.78 185.42L182.45 183.5L174.88 185.52ZM151.49 234.07L185.45 243.17L196.27 246.07L199.9 252.33L206.17 248.71L217 251.62L221.7 234.08L217.04 216.71L206.12 219.63L199.79 215.98L196.27 222.06L151.49 234.07ZM176.92 275.05L174.89 282.63L182.45 284.66L185.59 282.85L180.04 273.25L176.92 275.05ZM164.88 288.4L138.81 281.41L171.6 314.2L171.61 321.44H178.84L186.78 329.38L199.63 316.53L204.27 299.22L193.38 296.3L189.69 289.91L183.61 293.42L164.88 288.4ZM157.91 369.83L143.5 384.21L123.46 389.58L125.97 398.87C127.7 405.3 129.55 412.13 131.28 418.5L160.76 426.39L160.82 426.16L160.85 426.17L166.05 406.76L180.44 392.37L175.43 387.36H163.42V386.83H162.89V374.82L157.91 369.83ZM56.8 470.89L51.83 475.86V479.16H61.79V475.89L56.8 470.89ZM51.83 510.98L56.83 515.98L61.8 511.01V507.71H51.84V510.98H51.83ZM92.15 529.18L92.53 527.9L109.32 523.41L85.7 499.79L78.96 506.53L78.95 506.52L78.33 507.14L77.75 507.72H71.1V514.37L63.17 522.31L86.94 546.08C89.3 537.22 90.77 531.65 90.78 531.64L91.36 529.43L92.15 529.18ZM194.12 580.8L201.36 580.79V573.56L234.16 540.76L200.2 549.86L189.36 552.77L183.09 549.15L179.46 555.41L168.66 558.3L173.37 575.87L186.2 588.7L194.12 580.8ZM215.07 571.4L209.52 576.95V580.8H220.61V576.95L215.07 571.4ZM201.36 599.48V588.97L197.51 588.98L192.55 593.94L198.1 599.49H201.36V599.48ZM209.53 599.48H210.11V600.06H220.62V588.97H209.53V599.48ZM210.11 611.49L215.65 617.04L220.61 612.08L220.62 608.23H210.11V611.49ZM268.81 506.11L237.25 497.65L197.52 508.3L200.42 519.15L196.81 525.41L203.07 529.03L203.08 529.04L205.98 539.88L245.71 529.23L268.81 506.11ZM237.25 489.2L268.81 480.74L245.71 457.64L205.98 446.99L203.07 457.83L196.81 461.45L200.43 467.71L197.52 478.55L237.25 489.2ZM249.94 450.31L281.5 458.77L273.04 427.21L243.95 398.12L236.01 406.06H228.78V413.29L220.84 421.23L249.94 450.31ZM232.63 397.89L238.18 392.34L232.63 386.79H228.78V397.88H232.63V397.89ZM268.81 411.43L259.71 377.47L256.8 366.64L260.4 360.39L259.23 359.71C257.57 358.75 256.35 358.05 255.88 357.78L253.87 356.64L253.85 355.62L251.26 345.94L233.72 350.64L220.87 363.49L221.4 364.02L228.76 371.38L228.77 378.62H236L249.71 392.33L268.81 411.43ZM261.4 351.5L264.5 353.3L270.05 343.69L266.78 341.8L259.32 343.8C260.22 347.11 260.94 349.79 261.4 351.5ZM275.17 373.32L277.08 370.02C275.1 368.88 272.52 367.39 269.83 365.83L267.48 364.47L265.57 367.77L267.6 375.34L275.17 373.32ZM281.19 362.92L286.74 353.31L277.13 347.77L271.58 357.38L281.19 362.92ZM321.15 239.06V229.1H311.19V239.06H321.15ZM210.11 80.77V81.35H220.62V70.26H209.53V80.77H210.11ZM201.36 70.26L197.51 70.27L192.55 75.23L198.1 80.78H201.37V70.26H201.36ZM157.31 110.46L152.34 115.43V119.28H162.85V116.01L157.31 110.46ZM140.32 127.45L134.78 132.99L140.33 138.54H144.18V127.45H140.32ZM99.92 167.85L91.46 199.41L123.02 190.95L152.11 161.86L144.17 153.92V146.69H136.94L129 138.75L99.92 167.85ZM104.15 221.39L135.71 229.85L175.44 219.2L172.53 208.36L176.04 202.29L175.96 202.24L176.08 202.05L169.89 198.48L166.98 187.64L127.25 198.29L104.15 221.39ZM135.71 238.3L104.15 246.76L127.26 269.86L166.99 280.51L169.9 269.67L175.96 266.18L176.15 266.06L175.9 265.62L172.54 259.8L175.45 248.96L135.71 238.3ZM123.02 277.19L91.46 268.73L99.92 300.29L129.01 329.38L136.95 321.44H144.18V314.21L152.12 306.27L123.02 277.19ZM140.33 329.61L134.78 335.16L140.32 340.7L144.17 340.71V329.62H140.33V329.61ZM104.15 316.07L111.14 342.14L116.15 360.87L112.54 367.14L118.8 370.77L121.7 381.59L139.27 376.88L152.12 364.03L151.58 363.49L144.18 356.09V348.86L136.94 348.85L104.15 316.07ZM111.36 376.16C110.57 375.7 109.53 375.11 108.34 374.42L102.92 383.82L106.25 385.74L113.44 383.82C112.53 380.5 111.82 377.85 111.36 376.16ZM97.78 354.18L95.86 357.5L105.47 363.05L107.39 359.72L105.36 352.15L97.78 354.18ZM91.66 364.79L86.23 374.19L95.84 379.73L101.27 370.33C97.78 368.32 94.21 366.26 91.66 364.79ZM82.15 381.26L80.23 384.59L82.25 392.16L89.83 390.13L91.75 386.81L82.15 381.26ZM51.83 488.45V498.41H61.79V488.45H51.83ZM84.56 586.84L95.37 589.75L96.15 591.33L98.82 595.97L105.04 592.38L105.18 592.41L106.72 592.79L115.99 595.27L122.6 570.59C113.36 573.18 107.09 575.16 107.02 575.19L104.22 576.09L101.31 573.16L90.95 562.8C88.77 570.99 86.49 579.59 84.56 586.84ZM106.2 601.13L102.91 603.03L108.46 612.64L111.79 610.71L113.81 603.17L106.2 601.13ZM82.45 594.77C81.57 598.13 80.85 600.82 80.39 602.55L82.15 605.59L91.75 600.04L89.86 596.75L82.45 594.77ZM86.23 612.66L91.77 622.27L101.38 616.73L95.83 607.12L86.23 612.66ZM95.93 629.45L97.79 632.67L105.36 634.7L107.39 627.13L105.53 623.91L95.93 629.45ZM157.31 629.17L152.34 634.14V637.99H162.85V634.72L157.31 629.17ZM152.34 669.25L157.89 674.8L163.43 669.26L163.44 665.41H152.35V669.25H152.34ZM194.13 638.56L194.71 637.98H201.36V631.33L201.94 630.75L209.3 623.39L201.36 615.45V608.22L194.14 608.23L186.19 600.28L178.25 608.22L171.6 608.23L171.59 614.88L167.33 619.14L163.65 622.82L171.6 630.77L171.59 632.48V637.99H178.82L186.76 645.93L194.13 638.56ZM220.87 623.37L233.73 636.23L251.06 640.87L253.93 630.18L260.4 626.44L256.82 620.22L259.72 609.37L268.82 575.41L236.02 608.21H228.79L228.78 615.45L221.1 623.13L220.87 623.37ZM281.22 646.15L283.13 649.47L290.37 651.41L291.83 645.91C292.05 645.09 292.23 644.38 292.38 643.81L290.61 640.73L281.22 646.15ZM293.81 629.46L297.14 627.53L299.17 619.95L291.6 617.92L288.27 619.84L293.81 629.46ZM286.53 633.65L284.95 630.92C283.48 628.37 282.07 625.94 280.98 624.05L271.58 629.47L277.12 639.08L286.53 633.65ZM277.07 616.81L275.18 613.53L267.61 611.5L265.58 619.08L267.47 622.36L277.07 616.81ZM259.29 643.03L259.28 643.08L266.1 644.91L266.99 645.07L267.98 644.38L270.06 643.18L264.51 633.57L261.17 635.5L259.16 643.01L259.29 643.03ZM348.51 644.66L341.51 640.61L339.59 643.94L341.61 651.51L348.52 649.66V644.66H348.51ZM343.47 659.48L348.51 678.28V658.12L343.47 659.48ZM343.94 619.79L340.72 617.93L333.15 619.96L335.18 627.53L338.4 629.39L343.94 619.79ZM328.15 632.91L325.26 622.07L316.16 588.11L304.16 632.92L297.89 636.54L301.51 642.81L298.61 653.62L316.18 658.33L333.47 653.69L330.59 642.94L334.33 636.47L328.15 632.91ZM316.16 556.55L322.18 534.1L316.16 528.08L310.14 534.1L316.16 556.55ZM303.47 540.77L280.37 563.87L269.72 603.6L280.56 606.51L284.15 612.72L284.16 612.71L284.19 612.77L290.43 609.16L298.11 611.22L301.28 612.06L311.93 572.33L303.47 540.77ZM301.03 531.66L298.83 523.44L290.62 525.65L284.6 548.1L301.03 531.66ZM286.14 510.75L277.92 508.55L261.49 524.98L283.94 518.97L286.14 510.75ZM281.5 493.43L275.49 487.42L253.04 493.43L275.49 499.44L281.5 493.43ZM286.14 476.1L283.94 467.88L261.49 461.87L277.92 478.3L286.14 476.1ZM290.61 461.21L298.83 463.41L301.03 455.19L284.6 438.76L290.61 461.21ZM303.47 446.08L311.93 414.52L301.28 374.79L290.43 377.69L284.17 374.09L280.56 380.35L269.72 383.26L280.37 422.99L303.47 446.08ZM310.14 452.75L316.15 458.76L322.16 452.75L316.15 430.3L310.14 452.75ZM316.16 398.74L323.14 372.67L328.16 353.95L334.4 350.33C333.37 348.53 332.53 347.1 332.08 346.31L330.83 344.03L333.71 333.25L316.18 328.55L298.63 333.25L301.54 344.1L297.95 350.34L304.17 353.94L309.19 372.66L316.16 398.74ZM333.14 366.9L340.71 368.93L344.01 367.02C342.54 364.47 340.48 360.9 338.46 357.42L335.16 359.33L333.14 366.9ZM348.51 342.19V337.22L341.81 335.42C340.93 338.78 340.21 341.47 339.75 343.2L341.51 346.24L348.51 342.19ZM348.51 328.73V310.19C346.91 316.22 345.32 322.22 343.91 327.5L348.51 328.73ZM343.62 296.74L316.17 269.29L288.82 296.65L296.51 325.37L316.17 320.1L336.01 325.41C338.31 316.79 341.1 306.25 343.62 296.74ZM343.31 171.74L335.58 142.88L316.18 148.08L297.36 143.04V143.05L296.17 142.74C295 147.15 293.69 152.08 292.36 157.1L288.59 171.29L316.18 198.88L316.19 198.87L343.31 171.74ZM348.51 125.96L341.51 121.91L339.59 125.24L341.61 132.81L348.52 130.96V125.96H348.51ZM343.47 140.78L348.51 159.58V139.42L343.47 140.78ZM343.94 101.08L340.72 99.22L333.15 101.25L335.18 108.82L338.4 110.68L343.94 101.08ZM328.15 114.21L325.26 103.37L316.16 69.41L304.16 114.22L297.89 117.84L301.51 124.11L298.61 134.92L316.18 139.63L333.47 134.99L330.59 124.24L334.33 117.76L328.15 114.21ZM311.93 53.62L303.47 22.06L280.37 45.16L269.72 84.89L280.56 87.8L284.15 94.01L284.16 94L284.19 94.06L290.43 90.45L298.11 92.51L301.28 93.35L311.93 53.62ZM267.61 92.79L265.58 100.37L267.47 103.65L277.07 98.1L275.18 94.82L267.61 92.79ZM215.65 98.33L220.61 93.37L220.62 89.52H210.11V92.79L215.65 98.33ZM220.62 58.25L215.07 52.7L209.52 58.25V62.1H220.61V58.25H220.62ZM234.16 22.06L200.2 31.16L189.36 34.07L183.09 30.45L179.46 36.71L168.66 39.6L173.37 57.17L186.2 70L186.43 69.77L186.76 69.44L194.11 62.09L201.35 62.08V54.85L234.16 22.06ZM175.9 26.29L166.42 20.83L164.52 24.12L166.51 31.51L174.08 29.47C174.55 28.64 175.17 27.55 175.9 26.29ZM82.45 76.07C81.57 79.43 80.85 82.12 80.39 83.85L82.15 86.89L91.75 81.34L89.86 78.05L82.45 76.07ZM79.12 98.07L75.82 99.98L73.79 107.55L81.36 109.58L84.66 107.67C83.2 105.12 81.14 101.55 79.12 98.07ZM71.68 115.44L61.03 155.17L69.49 186.73L92.59 163.62L103.24 123.89L92.4 120.98L88.79 114.72L82.53 118.32L71.68 115.44ZM71.93 195.84L74.13 204.06L82.35 201.86L88.36 179.41L71.93 195.84ZM86.82 216.74L95.04 218.94L111.47 202.51L89.02 208.53L86.82 216.74ZM91.46 234.07L97.48 240.09L119.93 234.07L97.48 228.06L91.46 234.07ZM86.82 251.4L89.02 259.62L111.47 265.63L95.04 249.2L86.82 251.4ZM82.35 266.29L74.13 264.09L71.93 272.31L88.36 288.74L82.35 266.29ZM69.49 281.42L61.03 312.98L71.68 352.71L82.52 349.8L88.67 353.35L88.84 353.06L88.94 353.14L92.39 347.15L103.23 344.24L92.58 304.51L69.49 281.42ZM73.8 360.61L75.83 368.18L79.05 370.04L84.59 360.43L81.37 358.57L73.8 360.61ZM56.82 407.43L38 402.39V402.4L36.81 402.09C35.64 406.5 34.33 411.43 33 416.45L29.23 430.64L56.82 458.23L56.83 458.22L83.96 431.1L76.23 402.24L56.82 407.43ZM29.47 556L37.16 584.72L56.82 579.45L76.66 584.76C78.96 576.14 81.75 565.6 84.27 556.09L56.82 528.64L29.47 556ZM75.82 618.68L73.79 626.25L81.36 628.28L84.66 626.37C83.19 623.82 81.13 620.25 79.11 616.77L75.82 618.68ZM71.68 634.14L61.03 673.87L69.49 705.43L92.59 682.33L103.24 642.6L92.4 639.69L88.79 633.43L82.53 637.03L71.68 634.14ZM78.1 708.37H85.61L88.36 698.11L78.1 708.37ZM212.29 686.1C215.2 685.31 218.32 684.47 221.54 683.59C227.41 682 233.64 680.32 239.52 678.73L241.03 678.32L248.93 648.81H248.92L248.94 648.77L229.5 643.56L215.07 629.17L213.44 630.8L210.11 634.13V646.14H209.53V646.72H197.52L192.54 651.7L206.95 666.11L212.29 686.1ZM283.71 708.37H294.28L285.93 700.02C285.08 703.21 284.32 706.05 283.71 708.37ZM338.07 708.37H348.11L345.99 700.45L338.07 708.37ZM347.72 548.09L341.71 525.64L333.49 523.44L331.29 531.66L347.72 548.09ZM341.7 461.21L347.71 438.76L331.28 455.19L333.48 463.41L341.7 461.21ZM345.3 20.37H338.7L347.72 29.39L345.3 20.37ZM320.84 20.37H311.47L316.16 37.84L320.84 20.37ZM293.61 20.37H287.01L284.59 29.39L293.61 20.37ZM137.66 20.37L139.48 22.2L134.31 40.21C134.74 40.09 135.18 39.98 135.61 39.86C135.63 39.86 135.65 39.85 135.68 39.85C135.82 39.81 135.97 39.77 136.13 39.73C136.19 39.71 136.26 39.7 136.32 39.68C136.39 39.66 136.45 39.64 136.53 39.62C136.53 39.62 136.54 39.62 136.55 39.61C136.72 39.57 136.88 39.52 137.05 39.48C137.07 39.47 137.08 39.47 137.1 39.46C137.11 39.46 137.11 39.46 137.12 39.45C137.17 39.44 137.22 39.42 137.26 39.41C137.35 39.39 137.43 39.36 137.52 39.35C137.59 39.33 137.67 39.3 137.75 39.29C137.78 39.28 137.81 39.28 137.84 39.27C137.87 39.26 137.91 39.25 137.95 39.24C137.98 39.23 138.02 39.22 138.05 39.21C138.15 39.19 138.26 39.15 138.36 39.13C138.41 39.11 138.46 39.11 138.52 39.09C138.83 39 139.13 38.92 139.43 38.84C139.45 38.83 139.46 38.83 139.48 38.83C139.64 38.79 139.78 38.75 139.94 38.71C139.95 38.7 139.96 38.7 139.96 38.7C139.98 38.69 140.01 38.69 140.02 38.68C140.04 38.67 140.05 38.67 140.07 38.67C140.08 38.66 140.09 38.66 140.1 38.66C140.13 38.65 140.16 38.64 140.19 38.64C140.3 38.61 140.4 38.58 140.51 38.55C140.52 38.55 140.53 38.54 140.54 38.54C140.6 38.52 140.67 38.51 140.74 38.48C140.77 38.47 140.8 38.46 140.83 38.46C140.86 38.45 140.9 38.44 140.94 38.43C140.95 38.43 140.97 38.42 140.98 38.42C141.17 38.37 141.36 38.32 141.55 38.26C141.61 38.25 141.65 38.24 141.71 38.22C141.72 38.22 141.73 38.22 141.74 38.21C141.82 38.19 141.89 38.18 141.96 38.15C142.04 38.13 142.13 38.11 142.21 38.08C142.23 38.07 142.25 38.07 142.27 38.06C142.54 37.99 142.81 37.92 143.08 37.85L143.09 37.84C143.19 37.81 143.29 37.79 143.39 37.76C143.39 37.76 143.4 37.75 143.4 37.76C143.55 37.71 143.7 37.68 143.86 37.64C143.89 37.62 143.92 37.62 143.95 37.61C143.96 37.61 143.97 37.6 143.98 37.6C144.04 37.58 144.11 37.57 144.17 37.55C144.2 37.54 144.23 37.54 144.26 37.53C144.27 37.52 144.28 37.52 144.29 37.52C144.53 37.45 144.78 37.38 145.02 37.32C145.02 37.32 145.02 37.32 145.03 37.31C145.16 37.28 145.3 37.24 145.42 37.21C145.48 37.2 145.53 37.18 145.59 37.17C145.83 37.1 146.07 37.04 146.32 36.97C146.35 36.96 146.38 36.95 146.41 36.95C146.43 36.94 146.47 36.93 146.5 36.92C146.51 36.92 146.52 36.92 146.53 36.91C146.57 36.9 146.6 36.89 146.65 36.89C146.67 36.88 146.7 36.87 146.72 36.87C146.75 36.86 146.77 36.86 146.8 36.85C146.81 36.84 146.82 36.84 146.83 36.84C146.85 36.83 146.88 36.83 146.89 36.82C146.91 36.81 146.92 36.81 146.92 36.81C146.94 36.8 146.96 36.8 146.98 36.8C147.01 36.79 147.06 36.78 147.1 36.77C147.12 36.76 147.14 36.76 147.16 36.76C147.17 36.75 147.18 36.75 147.18 36.75C147.21 36.74 147.23 36.73 147.26 36.73C147.28 36.72 147.31 36.72 147.32 36.71C147.34 36.7 147.35 36.7 147.37 36.7C147.38 36.69 147.39 36.69 147.4 36.69C147.45 36.68 147.49 36.67 147.53 36.66C147.55 36.65 147.56 36.65 147.58 36.64C147.76 36.59 147.96 36.54 148.14 36.5C148.19 36.48 148.24 36.47 148.28 36.46C148.31 36.45 148.33 36.44 148.36 36.44C148.38 36.43 148.39 36.43 148.41 36.43C148.47 36.41 148.55 36.4 148.61 36.38C148.64 36.37 148.67 36.36 148.7 36.36C148.72 36.35 148.75 36.35 148.77 36.34C148.98 36.29 149.2 36.22 149.42 36.17C152.5 35.33 155.5 34.52 158.3 33.76L158.58 33.68L155.76 22.98L157.25 20.39H137.66V20.37ZM124.98 20.37H97.73L93.64 34.08L106.9 47.34L124.91 42.51L129.6 24.99L124.98 20.37ZM84.26 37.39L67.24 20.37H46.39L29.47 37.3L37.16 66.02L56.82 60.75L76.66 66.06C78.95 57.44 81.75 46.9 84.26 37.39ZM20.51 46.26V70.43L29.26 68.09L22.8 43.97L20.51 46.26ZM20.51 102.8L21.84 103.57L27.39 93.96L20.52 90V102.8H20.51ZM31.47 86.88L33.39 83.55L31.37 76.02L23.75 78.07L21.86 81.34L31.47 86.88ZM28.96 107.68L32.24 109.57L33.81 109.15L39.82 107.54L37.79 99.97L34.5 98.07L28.96 107.68ZM44.8 94.6L49.82 113.32L56.8 139.39L63.78 113.32L68.8 94.6L75.04 90.98C74.01 89.18 73.17 87.75 72.72 86.96L71.47 84.68L74.35 73.9L56.82 69.2L39.27 73.9L42.18 84.75L38.59 90.99L44.8 94.6ZM56.8 170.95L50.79 193.4L56.8 199.41L62.81 193.4L56.8 170.95ZM50.79 274.75L56.81 297.2L62.83 274.75L56.81 268.73L50.79 274.75ZM56.8 328.76L44.8 373.57L38.53 377.19L42.15 383.46L39.25 394.27L56.82 398.98L74.11 394.34L71.23 383.59L74.97 377.11L68.81 373.56L65.92 362.72L56.8 328.76ZM39.82 360.6L32.25 358.57L28.92 360.49L34.47 370.1L37.8 368.17L39.82 360.6ZM21.86 386.8L23.77 390.12L31.01 392.06L32.47 386.56C32.69 385.74 32.87 385.03 33.02 384.46L31.25 381.38L21.86 386.8ZM27.18 374.3L25.6 371.57C24.13 369.02 22.72 366.59 21.63 364.7L20.5 365.35V378.15L27.18 374.3ZM20.51 421.92L22.56 423.97L25.11 414.37C26.44 409.34 27.75 404.41 28.93 399.98L20.51 397.72V421.92V421.92ZM20.51 564.97V589.14L29.26 586.8L22.8 562.68L20.51 564.97ZM20.51 621.5L21.84 622.27L27.39 612.66L20.52 608.7V621.5H20.51ZM31.47 605.59L33.39 602.26L31.37 594.73L23.75 596.78L21.86 600.05L31.47 605.59ZM28.96 626.38L32.24 628.27L33.81 627.85L39.82 626.24L37.79 618.67L34.5 616.77L28.96 626.38ZM44.8 613.3L49.82 632.02L56.8 658.09L63.78 632.02L68.8 613.3L75.04 609.68C74.01 607.88 73.17 606.45 72.72 605.66L71.47 603.38L74.35 592.6L56.82 587.9L39.27 592.6L42.18 603.45L38.59 609.69L44.8 613.3ZM56.8 689.65L51.79 708.37H61.82L56.8 689.65ZM236.54 708.37L234.23 706.06L233.35 705.2L238.44 687.48C233.53 688.81 228.49 690.17 223.67 691.47C220.45 692.35 217.33 693.19 214.42 693.98L216.53 701.84L216.97 703.31L217.24 704.5L216.14 706.42L215.02 708.37H236.54V708.37ZM348.51 243.9L345.05 240.44L338.31 247.18L338.3 247.17L337.68 247.79L337.1 248.37H330.45V255.02L322.51 262.96L346.28 286.73C347.15 283.44 347.91 280.61 348.51 278.34V243.9ZM348.51 224.28V191.14L345.99 181.75L322.52 205.22L330.44 213.15V219.81L337.14 219.83L337.67 220.36L337.83 220.52L345.05 227.74L348.51 224.28ZM88.79 20.37H79.93L86.93 27.37C87.63 24.72 88.26 22.37 88.79 20.37ZM33.72 20.37H24.93L26.79 27.3L33.72 20.37ZM20.51 161.73L21.02 163.63L44.13 186.74L52.59 155.18L41.94 115.45L31.09 118.35L24.83 114.75L21.22 121.01L20.52 121.2V161.73H20.51ZM20.51 207.43V218.43L26.79 216.75L24.59 208.53L20.51 207.43ZM20.51 260.72L24.59 259.63L26.79 251.41L20.51 249.73V260.72ZM20.51 306.42V346.97L21.21 347.16L24.8 353.37L24.81 353.36L24.84 353.42L31.08 349.81L38.76 351.87L41.93 352.71L52.58 312.98L44.12 281.42L21.01 304.52L20.51 306.42ZM20.51 459.24V479.65L27.95 487.09L35.93 479.11L37.65 479.15H42.55V472.51L43.75 471.3L44.32 470.73L44.33 470.72L50.49 464.56L26.59 440.66C24.3 449.29 22.67 455.4 22.67 455.4L22.09 457.61L21.28 457.85L20.9 459.13L20.51 459.24ZM20.51 507.23V528.08L20.81 528.16L21.05 528.96L22.33 529.34L26.79 546L50.48 522.31L42.54 514.36V507.7H35.88L35.32 507.15H35.31L27.95 499.79L20.51 507.23ZM20.51 680.43L21.02 682.33L44.13 705.43L52.59 673.87L41.94 634.14L31.09 637.04L24.83 633.44L21.22 639.7L20.52 639.89V680.43H20.51Z" fill="#FF5656"/>
</g>
<defs>
<filter id="filter0_f_1_3" x="0.509995" y="0.369995" width="368" height="728" filterUnits="userSpaceOnUse" color-interpolation-filters="sRGB">
<feFlood flood-opacity="0" result="BackgroundImageFix"/>
<feBlend mode="normal" in="SourceGraphic" in2="BackgroundImageFix" result="shape"/>
<feGaussianBlur stdDeviation="2" result="effect1_foregroundBlur_1_3"/>
</filter>
</defs>
</svg>
